<svg id="locationn_polygons" data-name="locationn polygons" xmlns="http://www.w3.org/2000/svg" width="2267.5" height="1550" viewBox="0 0 9070 6200">
  <defs>
    <style>
      .cls-1 {
        fill: #811000;
        fill-rule: evenodd;
      }
    </style>
  </defs>
  <path id="Фігура_2" data-name="Фігура 2" class="cls-1" d="M2734,742l12,2,3,9q-3,19-6,38c-44.65,164.2-119.83,289.59-174,436-67.49,182.4-113.16,372.72-142,604-11.59,187.65-5,577-5,577s25.33,196.01,38,294q-113.985,6.495-228,13c-501.63,63.18-799.91,310.19-1117,555-120.411,92.96-261.5,183.41-356,302-271.349-202.9-119.262-70.24-413-419-179.665-246.33-184-482-184-482s364.529-207.03,764-653c331.33-290.28,915.95-930.52,776-774C1984.21,1007.16,2554.95,736.346,2734,742Z"/>
</svg>
