<?xml version="1.0" encoding="UTF-8" standalone="no"?>

<svg
   xmlns="http://www.w3.org/2000/svg"
   version="1.1"
   width="340"
   color="white"
   height="340"
   id="svg2">
  <defs
     id="defs4" />
  <path
     d="m 206.99469,338.81531 c 0,-0.55 -1.38142,-1 -3.06982,-1 -1.73405,0 -4.88875,-1.2427 -7.25,-2.85593 -2.2991,-1.57076 -5.86768,-3.16616 -7.93018,-3.54532 -2.0625,-0.37916 -3.75,-1.01283 -3.75,-1.40816 0,-1.21628 -8.23559,-4.36224 -10.12568,-3.86797 -0.97975,0.25621 -2.58978,-0.14726 -3.57784,-0.89659 -2.61702,-1.98471 -3.29648,-1.74129 -3.29648,1.18096 0,2.1246 -0.32382,2.45718 -1.75,1.79739 -0.9625,-0.44528 -5.36966,-0.83092 -9.79368,-0.85699 -5.89492,-0.0347 -8.75264,-0.51186 -10.6976,-1.78611 -3.39226,-2.22244 -5.54449,-1.37184 -6.56686,2.59535 -0.55895,2.16894 -1.50095,3.24396 -3.03872,3.46787 -1.98345,0.2888 -2.15254,0.0138 -1.53692,-2.5 0.38045,-1.55347 1.18274,-3.14423 1.78288,-3.53501 1.55228,-1.01078 -2.12263,-3.57324 -6.30918,-4.39929 -2.56653,-0.5064 -3.70696,-0.26683 -4.61024,0.96848 -1.619,2.21411 -2.53058,2.0767 -5.69625,-0.85868 -1.48288,-1.375 -3.16578,-2.5 -3.73979,-2.5 -0.574,0 -1.04364,-0.45 -1.04364,-1 0,-0.55 -0.83115,-1 -1.84699,-1 -1.01584,0 -2.8847,-0.9 -4.15301,-2 -1.84101,-1.5967 -1.97269,-2 -0.65301,-2 1.95797,0 2.15768,-1.3576 0.40301,-2.73967 -2.00815,-1.5817 -6.75,-2.43901 -6.75,-1.22037 0,0.59294 0.45,0.79996 1,0.46004 0.55,-0.33992 1,0.0835 1,0.94099 0,0.85745 -0.2906,1.55901 -0.64578,1.55901 -0.35519,0 -5.08019,-4.478 -10.500004,-9.95114 -9.531526,-9.62527 -9.854216,-10.09815 -9.854216,-14.44098 0,-2.46942 0.45,-4.76796 1,-5.10788 1.842018,-1.13843 1.025739,-4.00644 -1.711294,-6.01265 -6.787366,-4.97506 -8.281932,-7.00645 -9.964315,-13.5433 -2.293432,-8.91106 -1.76182,-9.90659 5.394224,-10.10158 6.824922,-0.18597 7.146851,-0.16392 9.912138,0.67896 1.389283,0.42346 2.607232,0.0757 3.5,-0.99942 0.753086,-0.90689 2.831747,-3.23398 4.619247,-5.1713 1.7875,-1.93732 3.25,-4.15878 3.25,-4.93656 0,-0.77778 0.36368,-1.41415 0.80817,-1.41415 0.4445,0 2.132,-1.82983 3.75,-4.0663 1.61801,-2.23646 3.40888,-4.59896 3.97971,-5.25 0.57084,-0.65103 1.8743,-3.4337 2.89657,-6.1837 1.02227,-2.75 2.48192,-5.675 3.24365,-6.5 5.70365,-6.17735 6.37797,-7.49279 5.76282,-11.24186 -0.55199,-3.36417 -0.3529,-3.84111 1.97256,-4.72524 3.5577,-1.35264 3.25123,-2.5882 -1.36475,-5.50214 -3.0321,-1.91408 -4.11023,-3.34167 -4.63461,-6.13687 -0.92464,-4.92872 0.21557,-17.54699 1.66661,-18.44378 0.64332,-0.3976 1.21822,-2.57403 1.27754,-4.83651 0.0593,-2.26248 0.45299,-4.1136 0.8748,-4.1136 0.42181,0 0.76693,-0.65917 0.76693,-1.46482 0,-1.74638 2.25557,-3.01696 6.93438,-3.9062 1.88891,-0.35901 4.2148,-1.359 5.16864,-2.22222 1.58715,-1.43634 1.92774,-1.376 4.01514,0.7114 l 2.28087,2.28087 0.81261,-3.13598 c 0.44694,-1.72478 1.59466,-3.372 2.55049,-3.66048 0.95583,-0.28848 6.1336,-0.36016 11.50617,-0.15929 7.76525,0.29033 11.6613,-0.10843 19,-1.94465 l 9.2317,-2.30986 3.69136,2.90561 c 2.03025,1.59809 3.97737,2.90562 4.32692,2.90562 0.34956,0 1.94949,1.31392 3.5554,2.91983 1.60591,1.60591 4.26861,3.21609 5.91712,3.57815 1.64851,0.36207 3.39426,1.36768 3.87945,2.23466 0.551,0.98458 1.53238,1.32683 2.61418,0.91171 1.36425,-0.52351 1.60287,-1.40565 1.12379,-4.15448 -1.96846,-11.29466 -1.99907,-10.48987 0.39901,-10.48987 1.73333,0 2.11033,-0.44245 1.70328,-1.999 -0.28751,-1.09946 -0.10766,-2.25555 0.39968,-2.5691 1.35261,-0.83596 -0.084,-2.65594 -1.62858,-2.06322 -0.72385,0.27778 -1.56421,-0.14155 -1.86747,-0.93182 -0.30325,-0.79027 -1.35299,-1.44243 -2.33276,-1.44924 -2.25138,-0.0156 -5.9229,-5.61859 -7.46847,-11.39733 -1.36448,-5.10161 0.16078,-16.0943 2.78984,-20.10677 2.68558,-4.0987 3.73606,-22.538048 1.36739,-24.001968 -1.0102,-0.624342 1.80071,-12.872292 3.05443,-13.308983 1.68284,-0.586165 3.15405,-7.970283 2.01285,-10.102645 -0.57058,-1.06614 -1.03742,-3.291462 -1.03742,-4.945161 0,-1.653698 -0.45,-3.284839 -1,-3.624758 -1.81416,-1.121213 -1.04292,-6.170558 1.69909,-11.124047 1.48451,-2.681774 3.04793,-5.022094 3.47428,-5.200711 0.42635,-0.178616 2.18434,-1.641116 3.90666,-3.25 1.72231,-1.608883 4.15653,-2.925242 5.40936,-2.925242 2.71315,0 9.51061,7.089739 9.51061,9.919547 0,1.052583 0.49508,2.078814 1.10019,2.280515 1.56064,0.520213 1.54774,11.108698 -0.0227,18.637282 -0.94945,4.551627 -1.02631,6.94673 -0.27275,8.5 2.05212,4.229931 2.09506,11.94645 0.10809,19.425443 -1.34487,5.062119 -2.04462,11.656388 -2.30937,21.762828 -0.20892,7.97503 -0.83369,15.05677 -1.38838,15.73722 -0.55469,0.68043 -1.57461,3.14428 -2.2665,5.4752 -0.69189,2.33092 -2.52586,5.48092 -4.0755,7 -2.08101,2.03997 -2.82478,3.74222 -2.84529,6.51196 -0.0153,2.0625 -0.40655,3.75 -0.86949,3.75 -0.46294,0 -1.37004,1.76338 -2.01576,3.91863 -0.94742,3.16218 -0.89188,4.75474 0.2877,8.25 1.2224,3.62216 3.53587,15.38598 3.56222,18.11359 0.004,0.43023 -1.00098,1.15531 -2.23363,1.6113 -1.61951,0.59909 -2.56769,0.38255 -3.41824,-0.78066 -0.64738,-0.88534 -1.50298,-1.2838 -1.90132,-0.88545 -0.39834,0.39834 -0.0976,1.48287 0.66824,2.41006 0.76587,0.92718 1.3925,2.62556 1.3925,3.77416 0,2.13367 0.12494,2.1598 8.17857,1.71003 1.19822,-0.0669 2.78565,-0.72874 3.52763,-1.47072 2.80908,-2.80907 8.64009,-3.9539 13.37971,-2.62689 2.42775,0.67973 4.41409,1.62739 4.41409,2.10591 0,0.47852 1.28026,0.87004 2.84501,0.87004 1.59545,0 3.65748,0.89776 4.69483,2.04402 2.52191,2.78669 5.92786,2.20074 6.06859,-1.04402 0.0596,-1.375 0.17214,-3.94838 0.25,-5.71862 0.10082,-2.29207 0.53906,-3.06608 1.52239,-2.68874 0.85878,0.32955 1.79848,-0.53296 2.48556,-2.28138 1.44675,-3.68162 3.33047,-6.61732 4.88362,-7.61095 0.6875,-0.43983 1.25,-1.42201 1.25,-2.18261 0,-0.76061 0.79504,-1.63526 1.76676,-1.94367 1.28603,-0.40817 1.79615,-1.68185 1.87479,-4.68099 0.0594,-2.26613 0.51493,-4.40662 1.01225,-4.75664 0.49731,-0.35002 1.72504,-4.6864 2.72829,-9.6364 1.00325,-4.95 2.0102,-9.195 2.23767,-9.43333 0.22746,-0.23834 0.94607,0.0992 1.59691,0.75 2.05024,2.05025 2.78332,1.3084 2.78332,-2.81667 0,-2.2 0.45,-4 1,-4 1.35769,0 1.26911,-9.92956 -0.12424,-13.92654 -0.83231,-2.38758 -0.83231,-3.51691 0,-4.34922 0.61833,-0.61833 1.12424,-1.68606 1.12424,-2.37272 0,-1.87071 4.2876,-6.13016 7.33815,-7.28998 1.86797,-0.7102 4.27952,-0.67414 7.92354,0.1185 4.18795,0.91095 6.10717,2.05984 9.57144,5.72969 4.23281,4.484 4.31948,4.71134 3.7437,9.81956 -0.66906,5.93577 -3.23928,12.14532 -5.82683,14.07741 -0.9625,0.71869 -1.75,1.70473 -1.75,2.1912 0,0.48646 -2.25,3.23119 -5,6.09938 -2.75,2.8682 -5,6.04466 -5,7.05881 0,1.01415 -0.40122,1.84391 -0.89159,1.84391 -0.49038,0 -1.148,1.02162 -1.4614,2.27027 -0.69667,2.77577 -6.17128,11.16309 -9.3824,14.37421 -2.44226,2.44227 -5.69067,3.09319 -6.76461,1.35552 -0.33992,-0.55 -1.04148,-1 -1.55902,-1 -1.25948,0 -1.20887,4.7164 0.059,5.5 0.55,0.33992 1,1.40176 1,2.35965 0,2.1878 -2.24836,7.12214 -3.25,7.13255 -0.4125,0.004 -0.75,0.60165 -0.75,1.32746 2e-5,1.36484 -4.40993,5.68034 -5.80464,5.68034 -1.67123,0 -8.19534,7.68794 -8.19534,9.6573 0,1.14014 0.94307,3.2719 2.09571,4.73724 2.24875,2.85884 1.95315,5.60546 -0.60328,5.60546 -1.28437,0 -1.19904,0.39855 0.46861,2.18856 2.0939,2.24753 2.73151,6.26539 1.14945,7.24315 -1.20147,0.74255 -2.25672,7.02275 -2.1454,12.76808 0.0757,3.90626 -0.29358,4.91334 -2.18702,5.96458 -1.25294,0.69561 -2.53521,1.28072 -2.8495,1.30019 -0.31428,0.0195 -1.35893,0.82294 -2.32143,1.78544 -2.14512,2.14512 -3.74778,2.28008 -2.96877,0.25 0.31659,-0.825 0.0775,-1.5 -0.53138,-1.5 -0.60885,0 -1.10699,0.45 -1.10699,1 0,0.55 -0.8376,1 -1.86133,1 -1.43686,0 -1.75435,0.55959 -1.39223,2.4539 0.38077,1.99188 -0.0219,2.57714 -2.13868,3.10841 -2.61438,0.65617 -3.48142,2.7797 -1.60776,3.93769 0.55,0.33992 1,1.71648 1,3.05902 0,1.34255 0.45,2.44098 1,2.44098 0.55,0 1,2.02501 1,4.5 0,2.92518 -0.43745,4.50536 -1.25,4.51531 -0.84605,0.0104 -0.77437,0.31612 0.22182,0.94612 1.24482,0.78724 1.28337,1.63536 0.25,5.49903 -1.70092,6.35954 -1.62349,11.90765 0.15666,11.22455 2.05601,-0.78896 3.05353,11.63069 1.54855,19.28035 -0.65298,3.31906 -1.51939,6.03464 -1.92536,6.03464 -0.40597,0 -1.4957,2.7 -2.42163,6 -0.92594,3.3 -2.11024,6 -2.63178,6 -0.52154,0 -0.94826,0.62356 -0.94826,1.38569 0,0.76214 -0.67223,2.67463 -1.49384,4.25 -0.82161,1.57538 -1.49661,3.87681 -1.5,5.11431 -0.006,2.02072 -0.49645,2.25 -4.8176,2.25 -3.42919,0 -5.42816,0.57457 -6.95819,2 -1.18071,1.10001 -2.51622,2 -2.9678,2 -0.45158,0 -1.46973,0.9 -2.26257,2 -1.48885,2.06567 -5,2.7679 -5,1 z m -63.32804,-20.19 c 1.73749,-1.91992 1.73362,-2.04026 -0.10897,-3.3876 -3.23548,-2.36583 -8.51342,-2.90054 -10.364,-1.04995 -1.50341,1.5034 -1.47538,1.62755 0.36749,1.62755 1.28866,0 2.38736,1.03935 3.10306,2.93547 1.26371,3.34794 3.9018,3.30068 7.00242,-0.12547 z m 5.51137,-1.02666 c -0.71756,-0.71757 -1.18333,-0.77661 -1.18333,-0.15001 0,1.33478 1.18261,2.5174 1.85,1.85 0.28417,-0.28416 -0.0158,-1.04916 -0.66667,-1.69999 z m -0.76512,-1.39033 c 1.60658,-0.6165 2.24632,-3.39301 0.78179,-3.39301 -1.03498,0 -3.2,2.16502 -3.2,3.2 0,0.95968 0.34794,0.98745 2.41821,0.19301 z m 24.39927,-38.2072 c 2.8287,-2.82619 5.04257,-3.9678 9.49237,-4.89488 5.64742,-1.17658 9.57706,-4.04172 9.65688,-7.04093 0.0183,-0.6875 0.37077,-1.25351 0.78327,-1.2578 1.19908,-0.0125 3.25,-5.14086 3.25,-8.12671 0,-2.031 0.99792,-3.4531 3.87366,-5.52022 2.24348,-1.61265 4.66329,-4.58181 5.75,-7.05538 1.03199,-2.34902 2.14813,-4.27521 2.48032,-4.28042 0.33218,-0.005 1.79468,-1.11298 3.25,-2.46172 2.8603,-2.65084 3.62888,-7.83143 1.37201,-9.24806 -0.7007,-0.43983 -2.01625,-1.96878 -2.92344,-3.39767 -0.9072,-1.42889 -3.48389,-4.3962 -5.726,-6.59401 -2.2421,-2.19781 -4.07655,-4.24909 -4.07655,-4.5584 0,-0.85947 4.25275,0.39276 6.47251,1.90584 2.38913,1.62854 3.52749,1.71078 3.52749,0.25484 0,-1.56809 -4.19028,-4.83786 -6.25,-4.87702 -0.9625,-0.0183 -1.79981,-0.59577 -1.86069,-1.28327 -0.26744,-3.02011 0.38169,-6.27973 1.31854,-6.62105 0.58335,-0.21252 0.43817,-0.72969 -0.33983,-1.21052 -1.08486,-0.67048 -0.95667,-1.13983 0.63685,-2.33165 1.09732,-0.82069 3.23263,-1.77422 4.74513,-2.11894 2.89625,-0.66008 3.8119,-2.46784 1.25,-2.46784 -1.81906,0 -1.86045,-0.44997 -0.27495,-2.98876 1.02993,-1.64916 0.91647,-2.18727 -0.71225,-3.37822 -1.64727,-1.20452 -1.73749,-1.65736 -0.60261,-3.02481 2.66682,-3.21331 -3.24084,-1.71438 -7.16019,1.81674 -3.36968,3.03589 -3.75,3.8787 -3.75,8.31013 0,5.42765 -0.66925,6.78431 -2.56896,5.20769 -0.86811,-0.72047 -1.45204,-0.7178 -1.90103,0.009 -1.04315,1.68785 -4.44069,1.20968 -6.76038,-0.95144 -2.58884,-2.4122 -3.76963,-2.54161 -3.76963,-0.41347 0,0.87278 1.35,2.09644 3,2.71925 3.11923,1.17737 4.24298,4.6939 1.5,4.6939 -0.825,0 -1.5,0.5051 -1.5,1.12244 0,0.7392 -0.4268,0.79729 -1.25,0.17013 -0.6875,-0.52378 -4.79798,-0.86486 -9.13441,-0.75797 -6.13858,0.15132 -8.08826,0.55863 -8.80505,1.83946 -0.50635,0.90481 -2.58337,2.34827 -4.61559,3.2077 -3.40957,1.44191 -3.95174,1.4259 -7.01971,-0.20731 -4.10921,-2.18751 -6.34454,-1.09052 -7.3003,3.58263 -0.57139,2.7938 -0.17675,3.80996 2.72853,7.02575 1.86809,2.06776 3.3993,4.60502 3.40269,5.63837 0.003,1.03334 0.6969,3.20341 1.54113,4.82239 1.28405,2.46239 1.32822,3.44275 0.27018,5.99708 -1.41921,3.42626 -1.19964,7.35319 0.52961,9.47195 0.87803,1.07581 0.85488,1.51293 -0.0971,1.83333 -1.7997,0.60573 -1.53961,3.03859 0.65421,6.11952 1.04732,1.47082 2.23478,4.9153 2.6388,7.65438 0.40402,2.73908 1.07777,5.20515 1.49721,5.48015 0.41945,0.275 0.97601,1.85 1.23681,3.5 0.26079,1.65 1.88015,5.3823 3.59857,8.294 1.71842,2.9117 3.20005,5.83671 3.2925,6.5 0.0925,0.66329 0.34635,-0.5104 0.5642,-2.6082 0.28553,-2.74964 1.42573,-4.84292 4.08518,-7.5 z m 26.18252,-83.68581 c 0,-1.375 0.45,-2.5 1,-2.5 0.55,0 1,1.125 1,2.5 0,1.375 -0.45,2.5 -1,2.5 -0.55,0 -1,-1.125 -1,-2.5 z m 5,-2.94098 c 0,-3.68859 1.60946,-5.74048 2.21294,-2.82126 0.51651,2.49851 -0.28256,6.26224 -1.32952,6.26224 -0.48588,0 -0.88342,-1.54844 -0.88342,-3.44098 z m -100,95.44098 c 0,-0.55 -0.45,-1 -1,-1 -0.55,0 -1,0.45 -1,1 0,0.55 0.45,1 1,1 0.55,0 1,-0.45 1,-1 z m 7.98635,-4.75 c -0.033,-4.23065 -1.23169,-6.25 -3.70997,-6.25 -1.86004,0 -2.33673,0.40037 -1.88337,1.58179 0.33385,0.86998 0.60699,1.99498 0.60699,2.5 0,0.50501 0.94814,0.91821 2.10699,0.91821 1.46204,0 1.93079,0.45915 1.53138,1.5 -0.31658,0.825 -0.13972,1.5 0.39301,1.5 0.53274,0 0.96248,-0.78749 0.95497,-1.75 z m 104.01365,-7.19098 c 0,-1.17986 -1.95035,-2.442 -2.66667,-1.72569 -0.71631,0.71632 0.54583,2.66668 1.72569,2.66668 0.51754,0 0.94098,-0.42344 0.94098,-0.94098 z m 22.5,-32.05902 c 0.35052,-0.56716 -0.48962,-1 -1.94098,-1 -1.40746,0 -2.55902,0.45 -2.55902,1 0,0.55 0.87344,1 1.94098,1 1.06754,0 2.2191,-0.45 2.55902,-1 z m -93.8913,-30.42268 c 0.60004,-1.56368 -2.87119,-5.5642 -4.8587,-5.59956 -0.6875,-0.0122 -2.375,-0.90222 -3.75,-1.97776 -1.375,-1.07554 -3.0625,-1.96553 -3.75,-1.97776 -2.14926,-0.0382 -1.36942,2.40425 1.5,4.69805 1.5125,1.20909 3.875,3.10168 5.25,4.20576 2.96819,2.38335 4.85976,2.603 5.6087,0.65128 z m 92.3913,-2.99399 c 0,-0.77916 0.53096,-1.59365 1.17991,-1.80997 1.63552,-0.54517 0.35705,-3.41562 -2.10914,-4.73549 -1.88986,-1.01142 -1.97052,-0.90439 -1.08124,1.43459 0.62067,1.6325 0.61562,2.52754 -0.0143,2.52754 -0.53639,0 -0.97525,-0.47656 -0.97525,-1.05902 0,-0.58246 -0.40752,-0.80715 -0.9056,-0.49932 -1.224,0.75647 1.06492,5.54061 2.6556,5.55054 0.6875,0.004 1.25,-0.6297 1.25,-1.40887 z m -54.73202,-28.33333 c -0.28419,-1.86597 -1.08542,-3.25 -1.88148,-3.25 -1.89862,0 -1.74034,2.15713 0.34705,4.72974 2.11507,2.60669 2.15145,2.57161 1.53443,-1.47974 z m 27.16199,-9.36331 c -1.00883,-1.63232 -2.42997,-0.90961 -2.42997,1.23575 0,1.76626 0.24988,1.91507 1.48899,0.8867 0.81894,-0.67966 1.24239,-1.63477 0.94098,-2.12245 z m 1.57003,-6.44571 c 0,-2.11803 -0.40488,-3.30878 -1,-2.94098 -0.55,0.33992 -1,1.94148 -1,3.55902 0,1.61754 0.45,2.94098 1,2.94098 0.55,0 1,-1.60156 1,-3.55902 z m -2.15282,-47.19176 c 1.5025,-1.20828 1.47093,-1.30206 -0.34718,-1.03101 -1.52415,0.22723 -2.0368,1.12897 -2.15467,3.78998 -0.10264,2.31697 0.0142,2.66385 0.34717,1.031 0.27602,-1.35345 1.24562,-3.05894 2.15468,-3.78997 z m 7.15282,-0.64223 c 0,-0.21616 -0.69837,-0.661 -1.55194,-0.98854 -0.88992,-0.3415 -1.29132,-0.17385 -0.94098,0.393 0.58726,0.95021 2.49292,1.40545 2.49292,0.59554 z m 76.5,-1.60699 c 0.33992,-0.54999 0.16803,-1 -0.38197,-1 -0.55,0 -1.27811,0.45001 -1.61803,1 -0.33992,0.55 -0.16803,1 0.38197,1 0.55,0 1.27811,-0.45 1.61803,-1 z m -116.5,214.55902 c 0,-0.79254 0.45,-1.7191 1,-2.05902 0.55,-0.33992 1,0.30852 1,1.44099 0,1.13245 -0.45,2.05901 -1,2.05901 -0.55,0 -1,-0.64844 -1,-1.44098 z m -18.73097,-0.25201 c 0.97297,-0.25354 2.32297,-0.23687 3,0.0371 0.67703,0.27393 -0.11903,0.48138 -1.76903,0.46099 -1.65,-0.0204 -2.20394,-0.2445 -1.23097,-0.49804 z m -30.00713,-4.99748 c 0.92977,-0.92976 2.02566,-1.3553 2.43533,-0.94563 0.40967,0.40967 0.0829,1.1635 -0.72619,1.67516 -2.43457,1.53967 -3.51652,1.07786 -1.70914,-0.72953 z M 49.524011,223.90769 c -0.333,-1.04919 -1.228395,-2.14666 -1.989765,-2.43883 -1.7239,-0.66152 -0.848578,-4.65355 1.020371,-4.65355 0.729666,0 1.914682,0.79532 2.633369,1.76738 0.718687,0.97206 2.544204,2.55743 4.056704,3.52306 3.833187,2.44721 3.430746,3.70957 -1.182612,3.70957 -2.990872,0 -4.077601,-0.45682 -4.538067,-1.90762 z m -15.043183,-6.11481 c -0.256982,-0.41581 -1.682565,-1.06104 -3.167962,-1.43385 -3.054174,-0.76655 -6.255433,-4.07155 -9.970604,-10.29372 -1.395689,-2.3375 -2.944856,-4.25 -3.442594,-4.25 -0.497738,0 -0.904978,-0.6031 -0.904978,-1.34023 0,-0.73713 -1.341848,-3.77463 -2.981885,-6.75 -3.672064,-6.6619 -3.92171,-11.9673 -0.778944,-16.55387 2.890922,-4.21902 8.454383,-6.77116 12.902833,-5.91893 5.606429,1.07406 12.615308,4.90114 14.356608,7.83918 0.904944,1.52688 2.73796,3.95509 4.07337,5.39602 2.277894,2.45789 2.923163,4.54977 2.615654,8.47961 -0.07109,0.90848 0.532612,2.20108 1.341556,2.87245 0.808945,0.67136 1.470808,1.84056 1.470808,2.59821 0,0.75766 0.45,1.37756 1,1.37756 1.398992,0 1.248085,5.34878 -0.245539,8.70295 -0.685047,1.53838 -2.346924,3.69705 -3.693062,4.79705 -2.884527,2.3571 -11.90152,5.56771 -12.575261,4.47757 z m 85.513862,-63.9967 c 0,-0.53948 -0.65917,-0.98087 -1.46482,-0.98087 -2.22612,0 -3.52254,-3.30303 -2.87137,-7.3157 0.41626,-2.56515 -0.005,-4.7255 -1.46717,-7.53154 -1.12797,-2.16406 -2.82024,-7.80873 -3.7606,-12.54371 -0.94035,-4.73497 -2.00239,-8.60905 -2.36008,-8.60905 -0.35769,0 -0.72267,-0.96 -0.81105,-2.13336 -0.0884,-1.17335 -1.27655,-4.43584 -2.64037,-7.25 -1.36381,-2.81414 -2.79593,-6.91663 -3.18249,-9.116635 -0.38656,-2.2 -1.03377,-4.45 -1.43825,-5 -1.06266,-1.444991 -2.066358,-6.098787 -2.857653,-13.25 -0.563464,-5.092214 -0.424936,-6.25 0.747806,-6.25 0.791657,0 1.115397,-0.323984 0.719417,-0.719964 -0.39598,-0.39598 -1.617769,-0.73348 -2.715087,-0.75 -1.277584,-0.01923 -2.786913,-1.468621 -4.196703,-4.030036 -1.210869,-2.2 -2.53908,-4.15 -2.95158,-4.333333 -0.4125,-0.183334 -0.75,-1.609132 -0.75,-3.168441 0,-2.166734 0.833301,-3.350115 3.534696,-5.019669 2.652153,-1.639121 3.384368,-2.658205 2.932612,-4.08156 -0.334491,-1.053888 -0.12769,-1.896997 0.465304,-1.896997 2.035779,0 1.054776,-2.054297 -1.432612,-3 -4.870402,-1.851724 -1.621758,-9.482412 5.12982,-12.049358 3.10147,-1.179176 9.72633,-0.390579 11.68223,1.390604 0.69983,0.637315 2.15341,1.656986 3.23018,2.265937 1.07677,0.608951 2.12281,1.958951 2.32453,3 0.20172,1.041049 1.32672,3.242817 2.5,4.892817 1.862,2.618547 2.16574,4.589387 2.38886,15.5 0.1865,9.12009 0.83183,14.527946 2.38663,20 1.17206,4.125 2.33719,10.140784 2.58917,13.368408 0.36742,4.706092 0.83551,5.967097 2.36337,6.366637 1.78881,0.46778 2.47976,3.47383 2.12958,9.26496 -0.17249,2.85254 1.94473,11 2.85849,11 1.33839,0 1.12348,8.39365 -0.25008,9.76721 -0.88962,0.88963 -0.83016,1.29683 0.25,1.71223 1.01951,0.39208 1.40626,2.29552 1.37818,6.78279 -0.0464,7.41614 -0.33216,8.49003 -3.00077,11.27758 -2.16221,2.25856 -11.46019,4.23907 -11.46019,2.44105 z m 42.75,-14.06823 c -0.9625,-1.6911 -1.75,-3.63481 -1.75,-4.31936 0,-0.68455 -1.125,-2.30153 -2.5,-3.59328 -1.375,-1.29175 -2.5,-3.13269 -2.5,-4.09098 0,-0.95829 -0.54066,-1.92257 -1.20147,-2.14284 -1.25769,-0.41923 -0.20724,-10.95928 2.06961,-20.76618 1.26289,-5.439545 1.45953,-17.679448 0.29559,-18.398804 -0.45995,-0.284264 -0.91639,-2.634972 -1.01431,-5.223795 -0.0979,-2.588824 -0.57072,-5.195302 -1.05066,-5.792174 -1.46261,-1.818937 -2.43766,-9.632526 -2.31649,-18.56322 0.0875,-6.447234 -0.26369,-8.896482 -1.46605,-10.225078 -1.45845,-1.611567 -1.33812,-1.97405 1.55135,-4.673212 3.74721,-3.500421 3.86799,-4.123712 0.7991,-4.123712 -1.28334,0 -2.58863,-0.255294 -2.90066,-0.567319 -0.56673,-0.566732 2.15398,-9.263521 4.67156,-14.932681 0.73273,-1.65 1.89302,-4.600631 2.57842,-6.556958 0.72543,-2.070588 2.47889,-4.26444 4.19613,-5.25 3.24171,-1.860486 9.31357,-2.269516 10.28788,-0.693042 0.33992,0.55 1.46604,1 2.50248,1 1.03645,0 2.68191,1.35 3.65659,3 0.97468,1.65 2.05325,3 2.39682,3 0.34358,0 1.20108,2.402699 1.90557,5.339331 0.93488,3.89704 0.9892,5.884339 0.20109,7.356937 -1.35326,2.528593 -1.56013,7.606297 -1.14639,28.138008 0.20242,10.04548 -0.052,16.590583 -0.66087,17 -3.19902,2.151124 -5.00348,31.860269 -2.22699,36.665719 1.29634,2.24367 0.83629,15.83799 -0.68799,20.32951 -1.79148,5.27891 -3.72036,7.74684 -7.63829,9.77287 -4.09654,2.1184 -6.12711,1.69228 -8.05202,-1.68974 z m 112.25,-16.91264 c 0,-0.54999 0.45,-1 1,-1 0.55,0 1,0.45001 1,1 0,0.55 -0.45,1 -1,1 -0.55,0 -1,-0.45 -1,-1 z"
     style="fill:currentColor"
     id="path12" />
  <path
     d="m 207.57071,338.93831 c -0.29812,-0.48236 -2.58333,-1.39102 -5.07827,-2.01925 -2.49493,-0.62822 -5.36593,-1.97193 -6.38,-2.986 -1.01407,-1.01407 -3.51315,-2.15695 -5.55351,-2.53972 -2.04036,-0.38278 -6.03951,-2.1836 -8.887,-4.00186 -4.19345,-2.67772 -5.51519,-3.09406 -6.95571,-2.19104 -1.31652,0.82529 -1.96588,0.81615 -2.5,-0.0352 -0.39684,-0.63254 -1.62153,-1.30754 -2.72153,-1.5 -1.5221,-0.26634 -1.9496,0.15087 -1.78908,1.74599 0.20443,2.03157 -0.1028,2.08176 -10,1.63387 -8.22952,-0.37243 -10.61736,-0.83314 -12.30546,-2.37423 -2.61382,-2.38617 -5.2103,-1.5261 -6.05198,2.00471 -1.22381,5.13383 -4.35348,7.03149 -4.35348,2.63972 0,-1.375 0.4187,-2.5 0.93045,-2.5 0.51175,0 1.07425,-0.96654 1.25,-2.14787 0.17575,-1.18133 1.10705,-2.53132 2.06955,-3 0.9625,-0.46867 2.5375,-1.23786 3.5,-1.70931 6.40132,-3.13549 -2.14765,-9.22987 -9.16821,-6.53583 -2.19165,0.84102 -1.99521,1.70686 1.08639,4.78846 1.78824,1.78824 2.33663,2.99974 1.66284,3.67353 -1.19912,1.19912 -6.33102,-0.45792 -6.33102,-2.04423 0,-1.78308 -2.93132,-1.10758 -4.23207,0.97525 -1.62255,2.59812 -2.65996,2.52042 -6.12393,-0.45864 -1.5708,-1.35093 -4.3833,-2.96028 -6.25,-3.57634 -3.46671,-1.14412 -3.72303,-1.58918 -3.44844,-5.98775 0.14408,-2.30777 -0.18772,-2.52272 -3.89403,-2.52272 -4.28943,0 -4.78739,0.40959 -2.85153,2.34545 0.66,0.66 0.92667,1.2 0.59259,1.2 -0.97657,0 -13.79259,-13.09477 -13.79259,-14.09259 0,-0.49907 -0.637282,-0.90741 -1.416182,-0.90741 -0.778901,0 -2.013751,-1.34999 -2.744112,-3 -0.730361,-1.65 -1.668079,-3 -2.083817,-3 -1.389454,0 -0.776238,-7.1225 0.744111,-8.64285 2.497336,-2.49734 2.645921,-2.29292 -8.222447,-11.31237 -2.023867,-1.67956 -3.505025,-5.65947 -4.989008,-13.40557 -0.781185,-4.07763 0.933967,-4.74191 10.618981,-4.11273 l 8.407525,0.54619 4.210107,-4.3316 c 2.315559,-2.38238 4.499822,-5.2444 4.853912,-6.36005 0.35409,-1.11565 1.43294,-2.89528 2.39744,-3.95473 4.2592,-4.67855 9.04213,-12.1966 9.69801,-15.24386 0.39274,-1.82466 1.34664,-3.56031 2.11978,-3.85699 0.77313,-0.29668 1.4057,-1.11139 1.4057,-1.81046 0,-0.69907 0.99941,-1.93462 2.22092,-2.74567 1.73538,-1.15225 2.26149,-2.54529 2.4065,-6.37197 0.10207,-2.69354 0.22765,-5.20354 0.27908,-5.57779 0.0514,-0.37425 1.106,-0.82425 2.3435,-1 3.19237,-0.45339 2.78709,-3.03518 -0.74197,-4.72661 -4.93068,-2.36322 -5.75631,-3.83071 -6.281,-11.16404 -0.43077,-6.02053 -0.1399,-7.73167 2.201,-12.94788 1.48356,-3.3058 2.4371,-6.83058 2.119,-7.83285 -0.83291,-2.62426 3.37236,-6.72287 7.73818,-7.5419 2.00777,-0.37666 4.26097,-1.29531 5.00711,-2.04145 1.14215,-1.14215 1.54379,-1.0569 2.54062,0.53928 1.71689,2.74918 3.56495,2.32942 4.86096,-1.1041 1.12784,-2.98799 1.16575,-3.00047 9.46924,-3.11842 4.58527,-0.0651 8.74544,-0.0414 9.24481,0.0526 4.0107,0.75567 13.6782,-0.61803 14.64631,-2.08117 0.30484,-0.46071 2.55484,-1.10897 5,-1.44057 4.70972,-0.63871 5.19445,-0.38621 12.44574,6.48292 1.65,1.56305 4.0125,3.15633 5.25,3.54063 1.2375,0.38431 2.25,1.11841 2.25,1.63135 0,0.51293 0.9,0.93261 2,0.93261 1.1,0 2,0.4813 2,1.06955 0,0.58825 1.0125,0.92575 2.25,0.75 1.7354,-0.24647 2.32278,-1.0778 2.56823,-3.63487 0.17503,-1.82343 -0.18185,-3.91789 -0.79306,-4.65435 -1.62587,-1.95901 -0.1971,-6.53028 2.04109,-6.53028 1.50741,0 1.811,-0.6935 1.64159,-3.75 -0.14268,-2.57429 -0.67813,-3.75 -1.70785,-3.75 -0.825,0 -2.27836,-0.9 -3.22968,-2 -1.31139,-1.51632 -1.9309,-1.69666 -2.56167,-0.74571 -0.57656,0.86921 -1.25413,0.17842 -2.20697,-2.25 -0.75623,-1.92736 -1.71983,-3.50429 -2.14132,-3.50429 -2.51304,0 -2.57542,-20.24384 -0.0675,-21.91418 2.91549,-1.9418 5.12551,-18.773226 3.22221,-24.540262 -1.65444,-5.013025 -0.52536,-11.702856 2.53195,-15.001741 1.4313,-1.544446 2.45298,-3.85439 2.45298,-5.546113 0,-3.944079 -2.00717,-13.278187 -3.10678,-14.447699 -1.10035,-1.1703 -1.18973,-6.55 -0.10883,-6.55 0.43142,0 1.61727,-1.4625 2.63522,-3.25 2.34912,-4.124972 10.0687,-11.75 11.89571,-11.75 2.12056,0 7.12756,5.231561 8.68306,9.072492 0.76344,1.88513 1.80304,3.711156 2.31023,4.057837 1.32329,0.904514 1.15248,11.215976 -0.19323,11.664543 -1.36765,0.455884 -1.54762,16.205128 -0.18517,16.205128 0.51161,0 0.94016,3.15 0.95233,7 0.0122,3.85 -0.34428,7 -0.79211,7 -1.13797,0 -2.22111,11.082358 -2.63724,26.983285 -0.21512,8.22022 -0.76278,13.61992 -1.40302,13.83332 -0.5776,0.19254 -1.05017,1.03063 -1.05017,1.86244 0,1.3829 -2.77998,7.13272 -4.0231,8.32095 -1.98578,1.8981 -3.9769,6.42228 -3.9769,9.03625 0,1.70863 -0.64823,3.75484 -1.44052,4.54713 -2.0293,2.0293 -3.06147,10.01947 -1.68466,13.04124 0.61885,1.35822 1.12518,3.31081 1.12518,4.3391 0,1.02829 0.38099,2.01961 0.84665,2.20295 0.46566,0.18333 1.11676,2.67309 1.4469,5.5328 0.53352,4.6214 0.37564,5.27075 -1.42009,5.84069 -1.35066,0.42869 -2.46952,0.0311 -3.37548,-1.19946 -1.31401,-1.78483 -1.37717,-1.78383 -2.08105,0.0331 -0.47663,1.23031 -0.20371,2.16603 0.79473,2.72478 0.97479,0.54553 1.34736,1.75744 1.03791,3.37621 -0.46824,2.44943 -0.31982,2.52522 4.94529,2.52522 4.0592,0 5.97343,-0.50813 7.59082,-2.01496 4.33215,-4.03601 10.59745,-4.64258 15.71432,-1.52138 1.1,0.67098 3.22505,1.5216 4.72232,1.89026 1.49728,0.36866 3.59382,1.60573 4.65898,2.74904 1.06515,1.14331 2.76511,1.92099 3.77767,1.72818 1.48665,-0.28309 1.89847,-1.44592 2.13944,-6.0409 0.21993,-4.19373 0.6426,-5.55824 1.60708,-5.18813 0.77939,0.29908 1.81998,-0.73223 2.57291,-2.54996 0.69533,-1.67868 1.54715,-3.05641 1.89292,-3.06162 0.34577,-0.005 1.51042,-2.01537 2.58811,-4.46701 1.07768,-2.45165 2.62425,-4.58557 3.4368,-4.74205 0.99137,-0.19092 1.55153,-1.72712 1.70278,-4.66971 0.12396,-2.41186 0.6048,-4.66118 1.06852,-4.99848 1.21153,-0.88124 3.33008,-7.32927 3.34612,-10.18428 0.0288,-5.1266 1.12337,-7.13596 3.62646,-6.65746 2.1323,0.40761 2.35989,0.098 2.35989,-3.21021 0,-2.01373 0.52492,-4.18625 1.16649,-4.82782 0.75157,-0.75157 1.12458,-4.75288 1.04869,-11.2493 l -0.1178,-10.08281 3.47407,-3.68317 c 2.86471,-3.03713 4.1326,-3.66591 7.22843,-3.58473 4.5135,0.11835 11.17352,3.34665 14.65908,7.10567 2.09063,2.25465 2.53715,3.7171 2.51908,8.25061 -0.0261,6.53718 -2.34592,11.97584 -7.38609,17.31587 -1.97557,2.09311 -3.59195,4.24026 -3.59195,4.77144 0,0.53118 -1.11752,1.47496 -2.48338,2.09729 -1.65813,0.7555 -2.69204,2.24376 -3.11129,4.47856 -0.34535,1.84088 -0.99527,3.34706 -1.44427,3.34706 -0.449,0 -1.61052,1.8 -2.58116,4 -0.97064,2.2 -2.12819,4 -2.57235,4 -0.44415,0 -0.81316,0.5625 -0.82002,1.25 -0.0185,1.85827 -7.66534,9.75 -9.4474,9.75 -0.84707,-1e-5 -1.54013,-0.45001 -1.54013,-1.00001 0,-0.55 -0.9,-1 -2,-1 -2.45236,0 -2.77354,4.0836 -0.5,6.35715 1.71382,1.71382 1.97859,3.64285 0.5,3.64285 -0.55,0 -1,0.60586 -1,1.34636 0,2.54026 -3.09467,7.54891 -5.04708,8.16859 -1.07411,0.3409 -1.95292,1.0395 -1.95292,1.55244 0,0.51293 -0.51464,0.93261 -1.14364,0.93261 -2.32622,0 -7.83491,6.46166 -7.84571,9.20295 -0.0121,3.07835 1.89414,7.79705 3.14987,7.79705 0.46171,0 0.83948,0.45 0.83948,1 0,0.55 -1.125,1 -2.5,1 -1.55556,0 -2.5,0.56667 -2.5,1.5 0,0.825 0.48214,1.5 1.07143,1.5 1.69467,0 3.88291,2.63685 2.99938,3.61429 -1.45051,1.60468 -3.14109,13.09399 -2.50866,17.04903 0.59092,3.69539 0.45012,3.96041 -2.97092,5.59178 -1.97517,0.9419 -3.59123,2.12168 -3.59123,2.62173 0,0.50006 -0.7875,1.20901 -1.75,1.57544 -1.40315,0.53418 -1.50225,0.41665 -0.5,-0.59301 1.40311,-1.41349 1.68104,-3.85925 0.43856,-3.85925 -0.44629,0 -1.71838,0.84495 -2.82687,1.87766 -1.93808,1.80559 -4.85854,3.07869 -8.18113,3.56634 -0.86468,0.12691 -1.76513,0.8097 -2.001,1.51732 -0.31288,0.93862 0.55144,1.17215 3.19579,0.86343 4.11675,-0.48061 4.90871,0.63614 1.12465,1.58588 -1.375,0.34511 -2.5,1.22674 -2.5,1.95919 0,2.31537 2.15779,7.63017 3.09783,7.63017 0.49619,0 0.90217,2.02501 0.90217,4.5 0,2.475 -0.35357,4.5 -0.78571,4.5 -0.43215,0 -0.84506,0.7875 -0.9176,1.75 -1.31215,17.41195 -1.30839,17.48633 0.85514,16.92055 2.00136,-0.52337 2.04569,-0.23114 1.70153,11.21785 -0.2763,9.19173 -0.70871,12.11047 -1.98286,13.38433 -0.89623,0.89603 -1.94064,3.28759 -2.3209,5.3146 -0.38027,2.02699 -1.62118,4.94305 -2.75758,6.48011 -1.1364,1.53706 -2.61474,4.9632 -3.2852,7.61362 l -1.21901,4.81894 -5.07319,0.29981 c -4.3302,0.2559 -5.68747,0.87833 -9.26751,4.25 -4.30645,4.05581 -5.42911,4.59734 -6.37109,3.07319 z m -57.75728,-22.17349 c -0.0439,-3.17833 -0.4047,-3.9833 -1.67584,-3.73851 -2.30587,0.44408 -2.49553,2.94204 -0.4205,5.53835 0.97768,1.22329 1.86189,2.23013 1.96492,2.23741 0.10303,0.007 0.16217,-1.80947 0.13142,-4.03724 z m -45.81874,-24.94951 c 0,-0.55 -0.42344,-1 -0.94098,-1 -0.51754,0 -1.2191,0.45 -1.55902,1 -0.33992,0.55 0.0835,1 0.94098,1 0.85746,0 1.55902,-0.45 1.55902,-1 z m 67.2993,-11.06329 c 2.65071,-4.02987 6.1015,-6.60125 9.79719,-7.30046 1.87193,-0.35416 4.46722,-0.85122 5.76731,-1.10459 3.45632,-0.67357 8.6015,-8.68221 10.01356,-15.58642 0.36608,-1.7899 1.53692,-3.74731 2.60188,-4.3498 3.81199,-2.1566 7.52076,-7.56236 7.52076,-10.96196 0,-0.80622 1.30164,-2.04201 2.89254,-2.74621 3.55531,-1.57373 5.64323,-7.0565 3.80695,-9.99686 -0.64932,-1.03973 -1.52234,-1.89041 -1.94004,-1.89041 -0.4177,0 -0.75945,-0.57479 -0.75945,-1.27732 0,-0.70252 -1.2375,-2.4166 -2.75,-3.80907 -6.0281,-5.54971 -8.1766,-10.07689 -3.09216,-6.51561 4.96143,3.47512 6.45952,1.01283 2.27709,-3.74267 -2.04252,-2.32239 -2.77112,-2.62121 -3.9684,-1.62756 -1.22563,1.01719 -1.46653,0.78411 -1.46653,-1.41889 0,-1.44981 0.51994,-3.64241 1.15543,-4.87245 0.63548,-1.23004 1.47121,-2.91142 1.85718,-3.73643 0.38597,-0.825 1.55352,-1.65618 2.59457,-1.84706 2.9413,-0.53932 4.11031,-2.09054 2.38446,-3.16406 -1.2439,-0.77375 -1.27841,-1.27184 -0.20776,-2.99903 1.42554,-2.29974 0.85669,-3.98985 -1.3429,-3.98985 -1.72946,0 -1.92763,-1.67112 -0.26393,-2.22568 0.65389,-0.21797 0.83872,-0.93979 0.41584,-1.62401 -1.02,-1.6504 -4.53955,-0.51293 -7.28962,2.35591 -1.20821,1.26038 -2.74943,2.47584 -3.42495,2.70101 -0.77356,0.25785 -1.1862,2.25364 -1.11472,5.39151 0.0624,2.74017 -0.30197,5.63892 -0.80975,6.44169 -0.63027,0.99643 -0.92808,1.06293 -0.93854,0.20957 -0.008,-0.6875 -0.69031,-1.25 -1.51531,-1.25 -0.825,0 -1.5,0.45 -1.5,1 0,1.70858 -3.51651,1.09909 -5.76963,-1 -1.18071,-1.1 -2.64856,-2 -3.26188,-2 -1.9259,0 -0.56251,3.4535 1.76819,4.47888 2.27899,1.00263 3.75723,3.36054 2.74279,4.37498 -1.03585,1.03585 -8.94362,0.25369 -9.33599,-0.92342 -0.27047,-0.8114 -0.58528,-0.83362 -1.05448,-0.0744 -0.3679,0.59526 -2.89143,1.29994 -5.60786,1.56595 -2.80799,0.27498 -5.42373,1.14664 -6.06253,2.02025 -0.61797,0.84512 -2.71518,2.20159 -4.66047,3.01439 -3.37704,1.41102 -3.6572,1.3663 -6.19903,-0.98939 -1.46419,-1.357 -3.12111,-2.46724 -3.68206,-2.46724 -1.9898,0 -3.83068,2.85785 -4.48775,6.96691 -0.61894,3.87066 -0.40881,4.40772 2.97234,7.59692 2.0011,1.88749 3.63836,4.12224 3.63836,4.9661 0,0.84388 0.66828,3.13373 1.48506,5.08856 1.33074,3.1849 1.32031,3.71899 -0.10034,5.13965 -1.21657,1.21657 -1.41087,2.53417 -0.83519,5.66363 0.41261,2.24303 0.70094,5.20323 0.64073,6.57823 -0.13683,3.12444 1.72054,8 3.04764,8 0.54739,0 0.77814,1.13574 0.51279,2.52387 -0.26536,1.38812 -0.0745,2.776 0.4241,3.08415 0.49861,0.30816 0.64496,1.38455 0.32521,2.39198 -0.31975,1.00743 -0.15221,2.09691 0.37231,2.42108 0.52452,0.32417 1.25737,2.38704 1.62858,4.58416 0.3712,2.19712 1.01701,3.99476 1.43513,3.99476 0.41813,0 1.57192,1.8 2.56398,4 0.99206,2.2 2.18541,4 2.65187,4 0.46647,0 0.89988,1.0125 0.96313,2.25 0.0728,1.42497 0.3686,0.96662 0.80662,-1.25 0.3804,-1.925 1.45035,-4.65348 2.37768,-6.0633 z m 28.89565,-86.43671 c 0.0204,-1.65 0.2445,-2.20394 0.49804,-1.23097 0.25354,0.97298 0.23687,2.32297 -0.0371,3 -0.27393,0.67703 -0.48137,-0.11903 -0.46099,-1.76903 z m 4.884,-3.08333 c 0.048,-1.16495 0.28494,-1.4019 0.60416,-0.60417 0.28887,0.72187 0.25335,1.58437 -0.0789,1.91667 -0.3323,0.33229 -0.56864,-0.25834 -0.52522,-1.3125 z m -99.97548,94.39 c 0.93241,-1.74221 0.83208,-1.84255 -0.91013,-0.91014 -2.39997,1.28442 -3.80615,4.27586 -1.61463,3.43489 0.81227,-0.31169 1.94841,-1.44784 2.52476,-2.52475 z m 6.73435,0.44333 c -0.15835,-0.9625 0.0364,-2.26628 0.43268,-2.89729 0.39632,-0.63101 0.44134,-2.54352 0.10004,-4.25 -0.57087,-2.85435 -0.94312,-3.10271 -4.65053,-3.10271 -3.75218,0 -3.92489,0.12065 -2.50549,1.75 0.83848,0.96251 1.32072,2.3125 1.07166,3 -0.24907,0.6875 0.22194,1.25 1.04667,1.25 0.82473,0 2.09708,1.35 2.82744,3 1.49823,3.38473 2.10284,3.83526 1.67753,1.25 z m 103.91265,-11.5 c -0.22891,-0.6875 -1.16483,-1.39519 -2.07983,-1.57265 -1.16012,-0.225 -1.48098,0.15332 -1.06014,1.25 0.70939,1.84865 3.75217,2.16131 3.13997,0.32265 z m -70.94453,-62.89997 c 0.24554,-2.11298 -0.29748,-2.89997 -2.75,-3.98556 -1.68076,-0.74398 -3.05594,-1.69284 -3.05594,-2.10858 0,-0.41574 -0.87344,-0.75589 -1.94098,-0.75589 -1.06754,0 -2.2191,-0.45 -2.55902,-1 -0.8668,-1.40251 -3.5,-1.25024 -3.5,0.20239 0,1.58037 6.05106,7.79761 7.58918,7.79761 0.65826,0 1.46863,0.70826 1.80081,1.57391 0.9487,2.47229 4.06994,1.25384 4.41595,-1.72388 z m 93.6887,-3.82563 c 0.7415,-3.37602 0.23678,-4.56259 -2.58254,-6.07143 -1.78256,-0.95401 -1.91338,-0.80622 -1.33306,1.50592 0.52316,2.08447 0.34225,2.44814 -0.96779,1.94543 -1.06973,-0.4105 -1.61125,-0.0782 -1.61125,0.98869 0,0.88385 0.45,1.60699 1,1.60699 0.55,0 1,0.675 1,1.5 0,0.825 0.86425,1.5 1.92054,1.5 1.31735,0 2.12581,-0.93456 2.5741,-2.9756 z m -57.99464,-11.0244 c -0.33992,-0.55 -1.04148,-1 -1.55902,-1 -0.51754,0 -0.94098,0.45 -0.94098,1 0,0.55 0.70156,1 1.55902,1 0.85746,0 1.2809,-0.45 0.94098,-1 z m 38,-2 c -0.33992,-0.55 -1.04148,-1 -1.55902,-1 -0.51754,0 -0.94098,0.45 -0.94098,1 0,0.55 0.70156,1 1.55902,1 0.85746,0 1.2809,-0.45 0.94098,-1 z m -27.77083,-3.60417 c -0.3323,-0.33229 -1.1948,-0.36781 -1.91667,-0.0789 -0.79773,0.31922 -0.56078,0.55618 0.60417,0.60416 1.05416,0.0434 1.64479,-0.19293 1.3125,-0.52522 z m -3.72917,-2.39583 c 0,-0.55 -0.70156,-1 -1.55902,-1 -0.85746,0 -1.2809,0.45 -0.94098,1 0.33992,0.55 1.04148,1 1.55902,1 0.51754,0 0.94098,-0.45 0.94098,-1 z m -4.49726,-7.98377 c -0.41081,-2.43155 -1.16828,-3.9631 -1.84928,-3.73906 -1.82422,0.60017 -1.99418,4.65486 -0.2236,5.3343 0.86358,0.33137 1.57014,1.30437 1.57014,2.16219 0,0.85782 0.26968,1.29001 0.59928,0.9604 0.32961,-0.32961 0.28616,-2.45263 -0.0965,-4.71783 z m -12.00274,-1.01623 c 0.33992,-0.55 0.14148,-1 -0.44098,-1 -0.58246,0 -1.05902,0.45 -1.05902,1 0,0.55 0.19844,1 0.44098,1 0.24254,0 0.7191,-0.45 1.05902,-1 z m 39.31955,-6.82833 c 0.21221,-1.4422 -0.20766,-2.17167 -1.25,-2.17167 -1.02102,0 -1.56955,0.90283 -1.56955,2.58333 0,3.13272 2.34847,2.78985 2.81955,-0.41166 z m -84.31955,-5.17167 c -0.48382,-0.78284 -1.05907,-0.84093 -1.72574,-0.17426 -0.55,0.55 -0.67341,1.52841 -0.27426,2.17426 0.48382,0.78284 1.05907,0.84094 1.72574,0.17426 0.55,-0.55 0.67341,-1.52841 0.27426,-2.17426 z m 15.5,2 c 0,-0.55 -0.45,-1 -1,-1 -0.55,0 -1,0.45 -1,1 0,0.55 0.45,1 1,1 0.55,0 1,-0.45 1,-1 z m 70,-4.5 c 0,-2.44444 -0.45238,-3.5 -1.5,-3.5 -1.04762,0 -1.5,1.05556 -1.5,3.5 0,2.44444 0.45238,3.5 1.5,3.5 1.04762,0 1.5,-1.05556 1.5,-3.5 z m 75,-38.05902 c 0,-0.85746 -0.45734,-1.27635 -1.01631,-0.93089 -0.55897,0.34546 -0.75742,1.04702 -0.44098,1.55901 0.85723,1.38704 1.45729,1.12841 1.45729,-0.62812 z m -78.01531,-6.69098 c 0.008,-0.9625 0.46531,-1.75 1.01531,-1.75 0.55,0 1,-0.70799 1,-1.57331 0,-0.95821 -0.68421,-1.44355 -1.75,-1.24139 -1.30486,0.24752 -1.81997,1.47441 -2.02507,4.82333 -0.20102,3.28225 -0.003,4.08756 0.73469,2.99137 0.55536,-0.825 1.01665,-2.28749 1.02507,-3.25 z m 7.77032,-3 c -0.22642,-0.6875 -1.44245,-1.40081 -2.7023,-1.58513 -1.99803,-0.29234 -2.11576,-0.13753 -0.92167,1.21195 1.64879,1.86335 4.20128,2.12619 3.62397,0.37318 z m 78.24499,-2.25 c 0,-0.825 -0.48214,-1.5 -1.07143,-1.5 -0.58928,0 -1.74643,0.675 -2.57143,1.5 -1.33333,1.33333 -1.21428,1.5 1.07143,1.5 1.61905,0 2.57143,-0.55556 2.57143,-1.5 z m -9.22917,-2.6875 c -0.61807,-1.85421 -2.77083,-2.16176 -2.77083,-0.39582 0,0.87082 0.7125,1.58332 1.58333,1.58332 0.87084,0 1.40521,-0.53436 1.1875,-1.1875 z m -70.77083,-7.8125 c 0,-0.54999 -0.42344,-1 -0.94098,-1 -0.51754,0 -1.2191,0.45001 -1.55902,1 -0.33992,0.55 0.0835,1 0.94098,1 0.85746,0 1.55902,-0.45 1.55902,-1 z m 79.5,-1 c 0.33992,-0.54999 0.14148,-1 -0.44098,-1 -0.58246,0 -1.05902,0.45001 -1.05902,1 0,0.55 0.19844,1 0.44098,1 0.24254,0 0.7191,-0.45 1.05902,-1 z M 158.80719,330.1322 c 0.72187,-0.28886 1.58437,-0.25335 1.91667,0.0789 0.33229,0.33229 -0.25834,0.56864 -1.3125,0.52522 -1.16495,-0.048 -1.4019,-0.28494 -0.60417,-0.60416 z M 49.650685,222.97813 c -1.740595,-1.81679 -2.488701,-3.43521 -2.080103,-4.5 0.679351,-1.77036 2.424108,-2.29409 2.424108,-0.72766 0,0.51433 1.790392,2.20183 3.978649,3.75 4.724564,3.34258 4.996864,4.31485 1.208442,4.31485 -1.784207,0 -3.80697,-1.03758 -5.531096,-2.83718 z M 32.765581,216.72934 C 29.107883,215.75111 19.99469,206.08482 19.99469,203.18335 c 0,-0.67384 -0.589272,-1.81983 -1.309494,-2.5466 -1.495896,-1.50954 -4.690506,-7.67093 -4.690506,-9.04651 0,-0.50478 -0.724339,-1.64213 -1.609643,-2.52743 -2.066786,-2.06679 -1.360185,-10.12525 1.003829,-11.44822 0.883198,-0.49426 1.605814,-1.46795 1.605814,-2.16376 0,-1.36329 6.079287,-4.63552 8.612059,-4.63552 2.694388,0 16.505299,7.13868 17.129641,8.85408 0.329478,0.90526 1.625771,2.69818 2.88065,3.98427 1.362997,1.39688 2.558122,4.21518 2.96842,7 0.377751,2.5639 0.972257,4.88666 1.321124,5.16165 3.085392,2.43212 5.505554,11 3.107158,11 -0.539521,0 -1.263305,1.125 -1.608408,2.5 -0.345103,1.375 -0.943824,2.5 -1.330491,2.5 -0.386666,0 -1.575383,0.79002 -2.641592,1.75561 -2.575975,2.33286 -9.396197,4.03333 -12.66767,3.15841 z m 87.642969,-63.27791 c -0.34531,-0.89987 -1.43155,-1.63612 -2.41386,-1.63612 -2.48675,0 -3.13518,-2.362 -1.34864,-4.91264 1.36113,-1.94328 1.29087,-2.58084 -0.75648,-6.8648 -1.24133,-2.5974 -2.57299,-4.94756 -2.95924,-5.22256 -1.07304,-0.76398 -3.15681,-11.83312 -2.44453,-12.98561 0.34481,-0.55791 0.22537,-1.01439 -0.26543,-1.01439 -0.49079,0 -0.89235,-1.38958 -0.89235,-3.08798 0,-1.69838 -0.49483,-3.3938 -1.09962,-3.76757 -0.60479,-0.37379 -1.85775,-2.9217 -2.78436,-5.66203 -0.9266,-2.74033 -1.99924,-5.20741 -2.38365,-5.48242 -0.3844,-0.275 -1.51381,-4.437495 -2.50979,-9.249995 -0.99599,-4.8125 -2.20351,-8.75 -2.683395,-8.75 -0.479883,0 -0.872515,-2.475 -0.872515,-5.5 0,-3.025 0.45,-5.5 1,-5.5 0.55,0 1,-0.675 1,-1.5 0,-1.724024 -1.571089,-2.003009 -2.531223,-0.44948 -0.851634,1.377972 -5.329408,-3.770107 -6.132509,-7.05052 -0.336624,-1.375 -1.055094,-3.0625 -1.5966,-3.75 -1.156772,-1.468645 0.729823,-4.25 2.882777,-4.25 0.757655,0 1.377555,-0.45 1.377555,-1 0,-0.55 0.570119,-1 1.266932,-1 0.794625,0 1.306159,-1.496041 1.372157,-4.013034 0.08997,-3.431113 -0.238755,-4.099369 -2.266931,-4.608408 -2.609179,-0.654862 -2.884652,-1.552437 -1.354147,-4.412212 3.32872,-6.219769 8.228419,-8.565427 14.357069,-6.873226 5.12841,1.41602 7.19933,3.396997 10.87939,10.40688 2.98067,5.677663 3.16127,6.654687 3.36176,18.186381 0.21258,12.227618 1.89905,23.231737 3.75239,24.484155 0.54574,0.368795 1.19272,3.441753 1.43771,6.828794 0.36606,5.06072 0.80993,6.293085 2.49053,6.914775 1.37004,0.50681 1.65857,0.9954 0.87411,1.48023 -1.63702,1.01173 -1.46036,4.1206 0.31802,5.59652 0.81894,0.67967 1.22918,1.65613 0.91165,2.16991 -0.7944,1.28537 1.58463,10.83923 2.6991,10.83923 1.42623,0 1.04744,4.81471 -0.63471,8.06763 -1.27716,2.46977 -1.30516,3.05649 -0.16667,3.49337 0.75257,0.28879 1.37641,1.06821 1.38632,1.73203 0.01,0.66383 0.33909,3.05814 0.73153,5.32067 0.56876,3.27904 0.34711,4.48012 -1.09241,5.91964 -1.33278,1.33278 -1.47,1.91793 -0.52375,2.23334 2.43033,0.81011 -2.82539,4.26506 -5.47605,3.59979 -1.57175,-0.39448 -3.07612,0.004 -4.34345,1.15113 -1.77302,1.60457 -1.99255,1.6147 -2.56669,0.11852 z M 109.49469,73.496352 c 1.577,-0.433933 1.48782,-0.511275 -0.42167,-0.365682 -1.33192,0.101555 -2.60368,0.859645 -2.82613,1.684645 -0.26724,0.991104 -0.12419,1.115167 0.42167,0.365682 0.45437,-0.623875 1.72613,-1.381965 2.82613,-1.684645 z m 54.79004,68.068958 c -0.52516,-0.6875 -1.57179,-2.825 -2.32583,-4.75 -0.75405,-1.925 -1.98278,-3.96467 -2.73052,-4.53259 -2.11356,-1.6053 -5.07995,-8.98193 -4.24541,-10.55723 0.41088,-0.7756 1.04581,-5.16677 1.41096,-9.75817 0.36514,-4.59139 1.12379,-10.49237 1.68588,-13.113285 0.78906,-3.679286 0.66792,-6.291967 -0.53157,-11.464067 -0.85445,-3.684318 -1.55355,-7.930835 -1.55355,-9.436706 0,-1.505871 -0.45168,-3.189625 -1.00373,-3.741676 -0.55205,-0.55205 -1.3917,-7.719784 -1.8659,-15.928296 -0.86856,-15.035207 -0.38922,-18.467975 2.57879,-18.467975 0.69141,0 0.97154,-0.668518 0.64103,-1.529801 -0.38964,-1.015375 -1.27079,-1.312787 -2.62038,-0.884445 -1.9009,0.603322 -1.99196,0.343527 -1.39818,-3.988608 0.34934,-2.54868 1.48294,-6.53818 2.51912,-8.865555 1.03618,-2.327375 2.15212,-5.369061 2.47987,-6.759302 0.87465,-3.710092 6.0994,-8.311205 9.39806,-8.276284 4.63196,0.04904 11.27132,2.279079 11.27132,3.785835 0,0.772614 0.81232,1.992769 1.80516,2.711456 2.81026,2.034263 3.86959,7.377907 2.77486,13.997315 -0.52843,3.195164 -1.32511,5.809389 -1.7704,5.809389 -1.08772,0 -1.03955,5.739861 0.0538,6.415611 0.4749,0.293504 0.97555,6.057562 1.11256,12.809017 0.32372,15.952222 0.2414,18.009945 -0.74815,18.69994 -3.34011,2.329017 -4.87352,25.519222 -2.61684,39.575427 1.99621,12.43387 0.77666,18.93592 -4.61103,24.58372 -4.30264,4.51037 -7.99904,5.90605 -9.70996,3.66628 z"
     style="fill:currentColor"
     id="path14" />
</svg>
