<?xml version="1.0" encoding="UTF-8" standalone="no"?>

<svg
   xmlns="http://www.w3.org/2000/svg"
   version="1.1"
   width="340"
   color="black"
   height="340"
   id="svg2">
  <defs
     id="defs4" />
  <path
     d="m 206.99469,338.81531 c 0,-0.55 -1.38142,-1 -3.06982,-1 -1.73405,0 -4.88875,-1.2427 -7.25,-2.85593 -2.2991,-1.57076 -5.86768,-3.16616 -7.93018,-3.54532 -2.0625,-0.37916 -3.75,-1.01283 -3.75,-1.40816 0,-1.21628 -8.23559,-4.36224 -10.12568,-3.86797 -0.97975,0.25621 -2.58978,-0.14726 -3.57784,-0.89659 -2.61702,-1.98471 -3.29648,-1.74129 -3.29648,1.18096 0,2.1246 -0.32382,2.45718 -1.75,1.79739 -0.9625,-0.44528 -5.36966,-0.83092 -9.79368,-0.85699 -5.89492,-0.0347 -8.75264,-0.51186 -10.6976,-1.78611 -3.39226,-2.22244 -5.54449,-1.37184 -6.56686,2.59535 -0.55895,2.16894 -1.50095,3.24396 -3.03872,3.46787 -1.98345,0.2888 -2.15254,0.0138 -1.53692,-2.5 0.38045,-1.55347 1.18274,-3.14423 1.78288,-3.53501 1.55228,-1.01078 -2.12263,-3.57324 -6.30918,-4.39929 -2.56653,-0.5064 -3.70696,-0.26683 -4.61024,0.96848 -1.619,2.21411 -2.53058,2.0767 -5.69625,-0.85868 -1.48288,-1.375 -3.16578,-2.5 -3.73979,-2.5 -0.574,0 -1.04364,-0.45 -1.04364,-1 0,-0.55 -0.83115,-1 -1.84699,-1 -1.01584,0 -2.8847,-0.9 -4.15301,-2 -1.84101,-1.5967 -1.97269,-2 -0.65301,-2 1.95797,0 2.15768,-1.3576 0.40301,-2.73967 -2.00815,-1.5817 -6.75,-2.43901 -6.75,-1.22037 0,0.59294 0.45,0.79996 1,0.46004 0.55,-0.33992 1,0.0835 1,0.94099 0,0.85745 -0.2906,1.55901 -0.64578,1.55901 -0.35519,0 -5.08019,-4.478 -10.500004,-9.95114 -9.531526,-9.62527 -9.854216,-10.09815 -9.854216,-14.44098 0,-2.46942 0.45,-4.76796 1,-5.10788 1.842018,-1.13843 1.025739,-4.00644 -1.711294,-6.01265 -6.787366,-4.97506 -8.281932,-7.00645 -9.964315,-13.5433 -2.293432,-8.91106 -1.76182,-9.90659 5.394224,-10.10158 6.824922,-0.18597 7.146851,-0.16392 9.912138,0.67896 1.389283,0.42346 2.607232,0.0757 3.5,-0.99942 0.753086,-0.90689 2.831747,-3.23398 4.619247,-5.1713 1.7875,-1.93732 3.25,-4.15878 3.25,-4.93656 0,-0.77778 0.36368,-1.41415 0.80817,-1.41415 0.4445,0 2.132,-1.82983 3.75,-4.0663 1.61801,-2.23646 3.40888,-4.59896 3.97971,-5.25 0.57084,-0.65103 1.8743,-3.4337 2.89657,-6.1837 1.02227,-2.75 2.48192,-5.675 3.24365,-6.5 5.70365,-6.17735 6.37797,-7.49279 5.76282,-11.24186 -0.55199,-3.36417 -0.3529,-3.84111 1.97256,-4.72524 3.5577,-1.35264 3.25123,-2.5882 -1.36475,-5.50214 -3.0321,-1.91408 -4.11023,-3.34167 -4.63461,-6.13687 -0.92464,-4.92872 0.21557,-17.54699 1.66661,-18.44378 0.64332,-0.3976 1.21822,-2.57403 1.27754,-4.83651 0.0593,-2.26248 0.45299,-4.1136 0.8748,-4.1136 0.42181,0 0.76693,-0.65917 0.76693,-1.46482 0,-1.74638 2.25557,-3.01696 6.93438,-3.9062 1.88891,-0.35901 4.2148,-1.359 5.16864,-2.22222 1.58715,-1.43634 1.92774,-1.376 4.01514,0.7114 l 2.28087,2.28087 0.81261,-3.13598 c 0.44694,-1.72478 1.59466,-3.372 2.55049,-3.66048 0.95583,-0.28848 6.1336,-0.36016 11.50617,-0.15929 7.76525,0.29033 11.6613,-0.10843 19,-1.94465 l 9.2317,-2.30986 3.69136,2.90561 c 2.03025,1.59809 3.97737,2.90562 4.32692,2.90562 0.34956,0 1.94949,1.31392 3.5554,2.91983 1.60591,1.60591 4.26861,3.21609 5.91712,3.57815 1.64851,0.36207 3.39426,1.36768 3.87945,2.23466 0.551,0.98458 1.53238,1.32683 2.61418,0.91171 1.36425,-0.52351 1.60287,-1.40565 1.12379,-4.15448 -1.96846,-11.29466 -1.99907,-10.48987 0.39901,-10.48987 1.73333,0 2.11033,-0.44245 1.70328,-1.999 -0.28751,-1.09946 -0.10766,-2.25555 0.39968,-2.5691 1.35261,-0.83596 -0.084,-2.65594 -1.62858,-2.06322 -0.72385,0.27778 -1.56421,-0.14155 -1.86747,-0.93182 -0.30325,-0.79027 -1.35299,-1.44243 -2.33276,-1.44924 -2.25138,-0.0156 -5.9229,-5.61859 -7.46847,-11.39733 -1.36448,-5.10161 0.16078,-16.0943 2.78984,-20.10677 2.68558,-4.0987 3.73606,-22.538048 1.36739,-24.001968 -1.0102,-0.624342 1.80071,-12.872292 3.05443,-13.308983 1.68284,-0.586165 3.15405,-7.970283 2.01285,-10.102645 -0.57058,-1.06614 -1.03742,-3.291462 -1.03742,-4.945161 0,-1.653698 -0.45,-3.284839 -1,-3.624758 -1.81416,-1.121213 -1.04292,-6.170558 1.69909,-11.124047 1.48451,-2.681774 3.04793,-5.022094 3.47428,-5.200711 0.42635,-0.178616 2.18434,-1.641116 3.90666,-3.25 1.72231,-1.608883 4.15653,-2.925242 5.40936,-2.925242 2.71315,0 9.51061,7.089739 9.51061,9.919547 0,1.052583 0.49508,2.078814 1.10019,2.280515 1.56064,0.520213 1.54774,11.108698 -0.0227,18.637282 -0.94945,4.551627 -1.02631,6.94673 -0.27275,8.5 2.05212,4.229931 2.09506,11.94645 0.10809,19.425443 -1.34487,5.062119 -2.04462,11.656388 -2.30937,21.762828 -0.20892,7.97503 -0.83369,15.05677 -1.38838,15.73722 -0.55469,0.68043 -1.57461,3.14428 -2.2665,5.4752 -0.69189,2.33092 -2.52586,5.48092 -4.0755,7 -2.08101,2.03997 -2.82478,3.74222 -2.84529,6.51196 -0.0153,2.0625 -0.40655,3.75 -0.86949,3.75 -0.46294,0 -1.37004,1.76338 -2.01576,3.91863 -0.94742,3.16218 -0.89188,4.75474 0.2877,8.25 1.2224,3.62216 3.53587,15.38598 3.56222,18.11359 0.004,0.43023 -1.00098,1.15531 -2.23363,1.6113 -1.61951,0.59909 -2.56769,0.38255 -3.41824,-0.78066 -0.64738,-0.88534 -1.50298,-1.2838 -1.90132,-0.88545 -0.39834,0.39834 -0.0976,1.48287 0.66824,2.41006 0.76587,0.92718 1.3925,2.62556 1.3925,3.77416 0,2.13367 0.12494,2.1598 8.17857,1.71003 1.19822,-0.0669 2.78565,-0.72874 3.52763,-1.47072 2.80908,-2.80907 8.64009,-3.9539 13.37971,-2.62689 2.42775,0.67973 4.41409,1.62739 4.41409,2.10591 0,0.47852 1.28026,0.87004 2.84501,0.87004 1.59545,0 3.65748,0.89776 4.69483,2.04402 2.52191,2.78669 5.92786,2.20074 6.06859,-1.04402 0.0596,-1.375 0.17214,-3.94838 0.25,-5.71862 0.10082,-2.29207 0.53906,-3.06608 1.52239,-2.68874 0.85878,0.32955 1.79848,-0.53296 2.48556,-2.28138 1.44675,-3.68162 3.33047,-6.61732 4.88362,-7.61095 0.6875,-0.43983 1.25,-1.42201 1.25,-2.18261 0,-0.76061 0.79504,-1.63526 1.76676,-1.94367 1.28603,-0.40817 1.79615,-1.68185 1.87479,-4.68099 0.0594,-2.26613 0.51493,-4.40662 1.01225,-4.75664 0.49731,-0.35002 1.72504,-4.6864 2.72829,-9.6364 1.00325,-4.95 2.0102,-9.195 2.23767,-9.43333 0.22746,-0.23834 0.94607,0.0992 1.59691,0.75 2.05024,2.05025 2.78332,1.3084 2.78332,-2.81667 0,-2.2 0.45,-4 1,-4 1.35769,0 1.26911,-9.92956 -0.12424,-13.92654 -0.83231,-2.38758 -0.83231,-3.51691 0,-4.34922 0.61833,-0.61833 1.12424,-1.68606 1.12424,-2.37272 0,-1.87071 4.2876,-6.13016 7.33815,-7.28998 1.86797,-0.7102 4.27952,-0.67414 7.92354,0.1185 4.18795,0.91095 6.10717,2.05984 9.57144,5.72969 4.23281,4.484 4.31948,4.71134 3.7437,9.81956 -0.66906,5.93577 -3.23928,12.14532 -5.82683,14.07741 -0.9625,0.71869 -1.75,1.70473 -1.75,2.1912 0,0.48646 -2.25,3.23119 -5,6.09938 -2.75,2.8682 -5,6.04466 -5,7.05881 0,1.01415 -0.40122,1.84391 -0.89159,1.84391 -0.49038,0 -1.148,1.02162 -1.4614,2.27027 -0.69667,2.77577 -6.17128,11.16309 -9.3824,14.37421 -2.44226,2.44227 -5.69067,3.09319 -6.76461,1.35552 -0.33992,-0.55 -1.04148,-1 -1.55902,-1 -1.25948,0 -1.20887,4.7164 0.059,5.5 0.55,0.33992 1,1.40176 1,2.35965 0,2.1878 -2.24836,7.12214 -3.25,7.13255 -0.4125,0.004 -0.75,0.60165 -0.75,1.32746 2e-5,1.36484 -4.40993,5.68034 -5.80464,5.68034 -1.67123,0 -8.19534,7.68794 -8.19534,9.6573 0,1.14014 0.94307,3.2719 2.09571,4.73724 2.24875,2.85884 1.95315,5.60546 -0.60328,5.60546 -1.28437,0 -1.19904,0.39855 0.46861,2.18856 2.0939,2.24753 2.73151,6.26539 1.14945,7.24315 -1.20147,0.74255 -2.25672,7.02275 -2.1454,12.76808 0.0757,3.90626 -0.29358,4.91334 -2.18702,5.96458 -1.25294,0.69561 -2.53521,1.28072 -2.8495,1.30019 -0.31428,0.0195 -1.35893,0.82294 -2.32143,1.78544 -2.14512,2.14512 -3.74778,2.28008 -2.96877,0.25 0.31659,-0.825 0.0775,-1.5 -0.53138,-1.5 -0.60885,0 -1.10699,0.45 -1.10699,1 0,0.55 -0.8376,1 -1.86133,1 -1.43686,0 -1.75435,0.55959 -1.39223,2.4539 0.38077,1.99188 -0.0219,2.57714 -2.13868,3.10841 -2.61438,0.65617 -3.48142,2.7797 -1.60776,3.93769 0.55,0.33992 1,1.71648 1,3.05902 0,1.34255 0.45,2.44098 1,2.44098 0.55,0 1,2.02501 1,4.5 0,2.92518 -0.43745,4.50536 -1.25,4.51531 -0.84605,0.0104 -0.77437,0.31612 0.22182,0.94612 1.24482,0.78724 1.28337,1.63536 0.25,5.49903 -1.70092,6.35954 -1.62349,11.90765 0.15666,11.22455 2.05601,-0.78896 3.05353,11.63069 1.54855,19.28035 -0.65298,3.31906 -1.51939,6.03464 -1.92536,6.03464 -0.40597,0 -1.4957,2.7 -2.42163,6 -0.92594,3.3 -2.11024,6 -2.63178,6 -0.52154,0 -0.94826,0.62356 -0.94826,1.38569 0,0.76214 -0.67223,2.67463 -1.49384,4.25 -0.82161,1.57538 -1.49661,3.87681 -1.5,5.11431 -0.006,2.02072 -0.49645,2.25 -4.8176,2.25 -3.42919,0 -5.42816,0.57457 -6.95819,2 -1.18071,1.10001 -2.51622,2 -2.9678,2 -0.45158,0 -1.46973,0.9 -2.26257,2 -1.48885,2.06567 -5,2.7679 -5,1 z m -63.32804,-20.19 c 1.73749,-1.91992 1.73362,-2.04026 -0.10897,-3.3876 -3.23548,-2.36583 -8.51342,-2.90054 -10.364,-1.04995 -1.50341,1.5034 -1.47538,1.62755 0.36749,1.62755 1.28866,0 2.38736,1.03935 3.10306,2.93547 1.26371,3.34794 3.9018,3.30068 7.00242,-0.12547 z m 5.51137,-1.02666 c -0.71756,-0.71757 -1.18333,-0.77661 -1.18333,-0.15001 0,1.33478 1.18261,2.5174 1.85,1.85 0.28417,-0.28416 -0.0158,-1.04916 -0.66667,-1.69999 z m -0.76512,-1.39033 c 1.60658,-0.6165 2.24632,-3.39301 0.78179,-3.39301 -1.03498,0 -3.2,2.16502 -3.2,3.2 0,0.95968 0.34794,0.98745 2.41821,0.19301 z m 24.39927,-38.2072 c 2.8287,-2.82619 5.04257,-3.9678 9.49237,-4.89488 5.64742,-1.17658 9.57706,-4.04172 9.65688,-7.04093 0.0183,-0.6875 0.37077,-1.25351 0.78327,-1.2578 1.19908,-0.0125 3.25,-5.14086 3.25,-8.12671 0,-2.031 0.99792,-3.4531 3.87366,-5.52022 2.24348,-1.61265 4.66329,-4.58181 5.75,-7.05538 1.03199,-2.34902 2.14813,-4.27521 2.48032,-4.28042 0.33218,-0.005 1.79468,-1.11298 3.25,-2.46172 2.8603,-2.65084 3.62888,-7.83143 1.37201,-9.24806 -0.7007,-0.43983 -2.01625,-1.96878 -2.92344,-3.39767 -0.9072,-1.42889 -3.48389,-4.3962 -5.726,-6.59401 -2.2421,-2.19781 -4.07655,-4.24909 -4.07655,-4.5584 0,-0.85947 4.25275,0.39276 6.47251,1.90584 2.38913,1.62854 3.52749,1.71078 3.52749,0.25484 0,-1.56809 -4.19028,-4.83786 -6.25,-4.87702 -0.9625,-0.0183 -1.79981,-0.59577 -1.86069,-1.28327 -0.26744,-3.02011 0.38169,-6.27973 1.31854,-6.62105 0.58335,-0.21252 0.43817,-0.72969 -0.33983,-1.21052 -1.08486,-0.67048 -0.95667,-1.13983 0.63685,-2.33165 1.09732,-0.82069 3.23263,-1.77422 4.74513,-2.11894 2.89625,-0.66008 3.8119,-2.46784 1.25,-2.46784 -1.81906,0 -1.86045,-0.44997 -0.27495,-2.98876 1.02993,-1.64916 0.91647,-2.18727 -0.71225,-3.37822 -1.64727,-1.20452 -1.73749,-1.65736 -0.60261,-3.02481 2.66682,-3.21331 -3.24084,-1.71438 -7.16019,1.81674 -3.36968,3.03589 -3.75,3.8787 -3.75,8.31013 0,5.42765 -0.66925,6.78431 -2.56896,5.20769 -0.86811,-0.72047 -1.45204,-0.7178 -1.90103,0.009 -1.04315,1.68785 -4.44069,1.20968 -6.76038,-0.95144 -2.58884,-2.4122 -3.76963,-2.54161 -3.76963,-0.41347 0,0.87278 1.35,2.09644 3,2.71925 3.11923,1.17737 4.24298,4.6939 1.5,4.6939 -0.825,0 -1.5,0.5051 -1.5,1.12244 0,0.7392 -0.4268,0.79729 -1.25,0.17013 -0.6875,-0.52378 -4.79798,-0.86486 -9.13441,-0.75797 -6.13858,0.15132 -8.08826,0.55863 -8.80505,1.83946 -0.50635,0.90481 -2.58337,2.34827 -4.61559,3.2077 -3.40957,1.44191 -3.95174,1.4259 -7.01971,-0.20731 -4.10921,-2.18751 -6.34454,-1.09052 -7.3003,3.58263 -0.57139,2.7938 -0.17675,3.80996 2.72853,7.02575 1.86809,2.06776 3.3993,4.60502 3.40269,5.63837 0.003,1.03334 0.6969,3.20341 1.54113,4.82239 1.28405,2.46239 1.32822,3.44275 0.27018,5.99708 -1.41921,3.42626 -1.19964,7.35319 0.52961,9.47195 0.87803,1.07581 0.85488,1.51293 -0.0971,1.83333 -1.7997,0.60573 -1.53961,3.03859 0.65421,6.11952 1.04732,1.47082 2.23478,4.9153 2.6388,7.65438 0.40402,2.73908 1.07777,5.20515 1.49721,5.48015 0.41945,0.275 0.97601,1.85 1.23681,3.5 0.26079,1.65 1.88015,5.3823 3.59857,8.294 1.71842,2.9117 3.20005,5.83671 3.2925,6.5 0.0925,0.66329 0.34635,-0.5104 0.5642,-2.6082 0.28553,-2.74964 1.42573,-4.84292 4.08518,-7.5 z m 26.18252,-83.68581 c 0,-1.375 0.45,-2.5 1,-2.5 0.55,0 1,1.125 1,2.5 0,1.375 -0.45,2.5 -1,2.5 -0.55,0 -1,-1.125 -1,-2.5 z m 5,-2.94098 c 0,-3.68859 1.60946,-5.74048 2.21294,-2.82126 0.51651,2.49851 -0.28256,6.26224 -1.32952,6.26224 -0.48588,0 -0.88342,-1.54844 -0.88342,-3.44098 z m -100,95.44098 c 0,-0.55 -0.45,-1 -1,-1 -0.55,0 -1,0.45 -1,1 0,0.55 0.45,1 1,1 0.55,0 1,-0.45 1,-1 z m 7.98635,-4.75 c -0.033,-4.23065 -1.23169,-6.25 -3.70997,-6.25 -1.86004,0 -2.33673,0.40037 -1.88337,1.58179 0.33385,0.86998 0.60699,1.99498 0.60699,2.5 0,0.50501 0.94814,0.91821 2.10699,0.91821 1.46204,0 1.93079,0.45915 1.53138,1.5 -0.31658,0.825 -0.13972,1.5 0.39301,1.5 0.53274,0 0.96248,-0.78749 0.95497,-1.75 z m 104.01365,-7.19098 c 0,-1.17986 -1.95035,-2.442 -2.66667,-1.72569 -0.71631,0.71632 0.54583,2.66668 1.72569,2.66668 0.51754,0 0.94098,-0.42344 0.94098,-0.94098 z m 22.5,-32.05902 c 0.35052,-0.56716 -0.48962,-1 -1.94098,-1 -1.40746,0 -2.55902,0.45 -2.55902,1 0,0.55 0.87344,1 1.94098,1 1.06754,0 2.2191,-0.45 2.55902,-1 z m -93.8913,-30.42268 c 0.60004,-1.56368 -2.87119,-5.5642 -4.8587,-5.59956 -0.6875,-0.0122 -2.375,-0.90222 -3.75,-1.97776 -1.375,-1.07554 -3.0625,-1.96553 -3.75,-1.97776 -2.14926,-0.0382 -1.36942,2.40425 1.5,4.69805 1.5125,1.20909 3.875,3.10168 5.25,4.20576 2.96819,2.38335 4.85976,2.603 5.6087,0.65128 z m 92.3913,-2.99399 c 0,-0.77916 0.53096,-1.59365 1.17991,-1.80997 1.63552,-0.54517 0.35705,-3.41562 -2.10914,-4.73549 -1.88986,-1.01142 -1.97052,-0.90439 -1.08124,1.43459 0.62067,1.6325 0.61562,2.52754 -0.0143,2.52754 -0.53639,0 -0.97525,-0.47656 -0.97525,-1.05902 0,-0.58246 -0.40752,-0.80715 -0.9056,-0.49932 -1.224,0.75647 1.06492,5.54061 2.6556,5.55054 0.6875,0.004 1.25,-0.6297 1.25,-1.40887 z m -54.73202,-28.33333 c -0.28419,-1.86597 -1.08542,-3.25 -1.88148,-3.25 -1.89862,0 -1.74034,2.15713 0.34705,4.72974 2.11507,2.60669 2.15145,2.57161 1.53443,-1.47974 z m 27.16199,-9.36331 c -1.00883,-1.63232 -2.42997,-0.90961 -2.42997,1.23575 0,1.76626 0.24988,1.91507 1.48899,0.8867 0.81894,-0.67966 1.24239,-1.63477 0.94098,-2.12245 z m 1.57003,-6.44571 c 0,-2.11803 -0.40488,-3.30878 -1,-2.94098 -0.55,0.33992 -1,1.94148 -1,3.55902 0,1.61754 0.45,2.94098 1,2.94098 0.55,0 1,-1.60156 1,-3.55902 z m -2.15282,-47.19176 c 1.5025,-1.20828 1.47093,-1.30206 -0.34718,-1.03101 -1.52415,0.22723 -2.0368,1.12897 -2.15467,3.78998 -0.10264,2.31697 0.0142,2.66385 0.34717,1.031 0.27602,-1.35345 1.24562,-3.05894 2.15468,-3.78997 z m 7.15282,-0.64223 c 0,-0.21616 -0.69837,-0.661 -1.55194,-0.98854 -0.88992,-0.3415 -1.29132,-0.17385 -0.94098,0.393 0.58726,0.95021 2.49292,1.40545 2.49292,0.59554 z m 76.5,-1.60699 c 0.33992,-0.54999 0.16803,-1 -0.38197,-1 -0.55,0 -1.27811,0.45001 -1.61803,1 -0.33992,0.55 -0.16803,1 0.38197,1 0.55,0 1.27811,-0.45 1.61803,-1 z m -116.5,214.55902 c 0,-0.79254 0.45,-1.7191 1,-2.05902 0.55,-0.33992 1,0.30852 1,1.44099 0,1.13245 -0.45,2.05901 -1,2.05901 -0.55,0 -1,-0.64844 -1,-1.44098 z m -18.73097,-0.25201 c 0.97297,-0.25354 2.32297,-0.23687 3,0.0371 0.67703,0.27393 -0.11903,0.48138 -1.76903,0.46099 -1.65,-0.0204 -2.20394,-0.2445 -1.23097,-0.49804 z m -30.00713,-4.99748 c 0.92977,-0.92976 2.02566,-1.3553 2.43533,-0.94563 0.40967,0.40967 0.0829,1.1635 -0.72619,1.67516 -2.43457,1.53967 -3.51652,1.07786 -1.70914,-0.72953 z M 49.524011,223.90769 c -0.333,-1.04919 -1.228395,-2.14666 -1.989765,-2.43883 -1.7239,-0.66152 -0.848578,-4.65355 1.020371,-4.65355 0.729666,0 1.914682,0.79532 2.633369,1.76738 0.718687,0.97206 2.544204,2.55743 4.056704,3.52306 3.833187,2.44721 3.430746,3.70957 -1.182612,3.70957 -2.990872,0 -4.077601,-0.45682 -4.538067,-1.90762 z m -15.043183,-6.11481 c -0.256982,-0.41581 -1.682565,-1.06104 -3.167962,-1.43385 -3.054174,-0.76655 -6.255433,-4.07155 -9.970604,-10.29372 -1.395689,-2.3375 -2.944856,-4.25 -3.442594,-4.25 -0.497738,0 -0.904978,-0.6031 -0.904978,-1.34023 0,-0.73713 -1.341848,-3.77463 -2.981885,-6.75 -3.672064,-6.6619 -3.92171,-11.9673 -0.778944,-16.55387 2.890922,-4.21902 8.454383,-6.77116 12.902833,-5.91893 5.606429,1.07406 12.615308,4.90114 14.356608,7.83918 0.904944,1.52688 2.73796,3.95509 4.07337,5.39602 2.277894,2.45789 2.923163,4.54977 2.615654,8.47961 -0.07109,0.90848 0.532612,2.20108 1.341556,2.87245 0.808945,0.67136 1.470808,1.84056 1.470808,2.59821 0,0.75766 0.45,1.37756 1,1.37756 1.398992,0 1.248085,5.34878 -0.245539,8.70295 -0.685047,1.53838 -2.346924,3.69705 -3.693062,4.79705 -2.884527,2.3571 -11.90152,5.56771 -12.575261,4.47757 z m 85.513862,-63.9967 c 0,-0.53948 -0.65917,-0.98087 -1.46482,-0.98087 -2.22612,0 -3.52254,-3.30303 -2.87137,-7.3157 0.41626,-2.56515 -0.005,-4.7255 -1.46717,-7.53154 -1.12797,-2.16406 -2.82024,-7.80873 -3.7606,-12.54371 -0.94035,-4.73497 -2.00239,-8.60905 -2.36008,-8.60905 -0.35769,0 -0.72267,-0.96 -0.81105,-2.13336 -0.0884,-1.17335 -1.27655,-4.43584 -2.64037,-7.25 -1.36381,-2.81414 -2.79593,-6.91663 -3.18249,-9.116635 -0.38656,-2.2 -1.03377,-4.45 -1.43825,-5 -1.06266,-1.444991 -2.066358,-6.098787 -2.857653,-13.25 -0.563464,-5.092214 -0.424936,-6.25 0.747806,-6.25 0.791657,0 1.115397,-0.323984 0.719417,-0.719964 -0.39598,-0.39598 -1.617769,-0.73348 -2.715087,-0.75 -1.277584,-0.01923 -2.786913,-1.468621 -4.196703,-4.030036 -1.210869,-2.2 -2.53908,-4.15 -2.95158,-4.333333 -0.4125,-0.183334 -0.75,-1.609132 -0.75,-3.168441 0,-2.166734 0.833301,-3.350115 3.534696,-5.019669 2.652153,-1.639121 3.384368,-2.658205 2.932612,-4.08156 -0.334491,-1.053888 -0.12769,-1.896997 0.465304,-1.896997 2.035779,0 1.054776,-2.054297 -1.432612,-3 -4.870402,-1.851724 -1.621758,-9.482412 5.12982,-12.049358 3.10147,-1.179176 9.72633,-0.390579 11.68223,1.390604 0.69983,0.637315 2.15341,1.656986 3.23018,2.265937 1.07677,0.608951 2.12281,1.958951 2.32453,3 0.20172,1.041049 1.32672,3.242817 2.5,4.892817 1.862,2.618547 2.16574,4.589387 2.38886,15.5 0.1865,9.12009 0.83183,14.527946 2.38663,20 1.17206,4.125 2.33719,10.140784 2.58917,13.368408 0.36742,4.706092 0.83551,5.967097 2.36337,6.366637 1.78881,0.46778 2.47976,3.47383 2.12958,9.26496 -0.17249,2.85254 1.94473,11 2.85849,11 1.33839,0 1.12348,8.39365 -0.25008,9.76721 -0.88962,0.88963 -0.83016,1.29683 0.25,1.71223 1.01951,0.39208 1.40626,2.29552 1.37818,6.78279 -0.0464,7.41614 -0.33216,8.49003 -3.00077,11.27758 -2.16221,2.25856 -11.46019,4.23907 -11.46019,2.44105 z m 42.75,-14.06823 c -0.9625,-1.6911 -1.75,-3.63481 -1.75,-4.31936 0,-0.68455 -1.125,-2.30153 -2.5,-3.59328 -1.375,-1.29175 -2.5,-3.13269 -2.5,-4.09098 0,-0.95829 -0.54066,-1.92257 -1.20147,-2.14284 -1.25769,-0.41923 -0.20724,-10.95928 2.06961,-20.76618 1.26289,-5.439545 1.45953,-17.679448 0.29559,-18.398804 -0.45995,-0.284264 -0.91639,-2.634972 -1.01431,-5.223795 -0.0979,-2.588824 -0.57072,-5.195302 -1.05066,-5.792174 -1.46261,-1.818937 -2.43766,-9.632526 -2.31649,-18.56322 0.0875,-6.447234 -0.26369,-8.896482 -1.46605,-10.225078 -1.45845,-1.611567 -1.33812,-1.97405 1.55135,-4.673212 3.74721,-3.500421 3.86799,-4.123712 0.7991,-4.123712 -1.28334,0 -2.58863,-0.255294 -2.90066,-0.567319 -0.56673,-0.566732 2.15398,-9.263521 4.67156,-14.932681 0.73273,-1.65 1.89302,-4.600631 2.57842,-6.556958 0.72543,-2.070588 2.47889,-4.26444 4.19613,-5.25 3.24171,-1.860486 9.31357,-2.269516 10.28788,-0.693042 0.33992,0.55 1.46604,1 2.50248,1 1.03645,0 2.68191,1.35 3.65659,3 0.97468,1.65 2.05325,3 2.39682,3 0.34358,0 1.20108,2.402699 1.90557,5.339331 0.93488,3.89704 0.9892,5.884339 0.20109,7.356937 -1.35326,2.528593 -1.56013,7.606297 -1.14639,28.138008 0.20242,10.04548 -0.052,16.590583 -0.66087,17 -3.19902,2.151124 -5.00348,31.860269 -2.22699,36.665719 1.29634,2.24367 0.83629,15.83799 -0.68799,20.32951 -1.79148,5.27891 -3.72036,7.74684 -7.63829,9.77287 -4.09654,2.1184 -6.12711,1.69228 -8.05202,-1.68974 z m 112.25,-16.91264 c 0,-0.54999 0.45,-1 1,-1 0.55,0 1,0.45001 1,1 0,0.55 -0.45,1 -1,1 -0.55,0 -1,-0.45 -1,-1 z"
     style="fill:currentColor"
     id="path12" />
</svg>
