<!DOCTYPE svg PUBLIC "-//W3C//DTD SVG 20010904//EN" "http://www.w3.org/TR/2001/REC-SVG-20010904/DTD/svg10.dtd">
<svg version="1.0" xmlns="http://www.w3.org/2000/svg" width="2268px" height="1552px" viewBox="0 0 12000 8200" preserveAspectRatio="xMidYMid meet">
<g id="layer101" fill="#8e281a" stroke="none">
 <path d="M3654 7572 c-21 -37 -59 -103 -85 -147 -102 -172 -145 -276 -184 -442 -20 -87 -48 -203 -62 -258 -13 -55 -40 -163 -59 -240 -40 -164 -74 -450 -74 -631 0 -94 6 -149 26 -240 14 -66 32 -150 40 -188 16 -77 21 -87 34 -66 14 22 12 58 -9 146 -45 183 -51 225 -51 355 0 73 5 173 10 223 6 50 15 129 20 176 6 46 36 193 69 325 33 132 75 307 95 390 37 158 87 275 186 440 26 44 60 104 74 133 14 28 29 52 33 52 4 0 49 -20 100 -45 50 -25 95 -45 98 -45 3 0 5 8 5 18 0 20 -140 95 -197 105 -31 6 -34 4 -69 -61z"/>
 <path d="M3945 7521 c-8 -15 3 -31 21 -31 9 0 14 7 12 17 -4 20 -24 28 -33 14z"/>
 <path d="M4010 7480 c0 -5 5 -10 10 -10 6 0 10 5 10 10 0 6 -4 10 -10 10 -5 0 -10 -4 -10 -10z"/>
 <path d="M7911 7480 c-58 -9 -82 -23 -64 -41 7 -7 39 -7 104 0 76 7 193 4 319 -8 3 -1 5 -92 6 -203 0 -112 4 -314 9 -449 5 -168 4 -267 -4 -310 -6 -35 -15 -114 -21 -175 -5 -61 -18 -143 -28 -182 -15 -58 -16 -75 -6 -94 l12 -23 12 30 c18 48 50 206 50 252 0 23 7 91 16 150 16 109 16 214 -2 733 -3 91 -2 195 3 232 11 80 17 75 -116 88 -111 11 -213 11 -290 0z"/>
 <path d="M4045 7460 c3 -5 8 -10 11 -10 2 0 4 5 4 10 0 6 -5 10 -11 10 -5 0 -7 -4 -4 -10z"/>
 <path d="M7780 7445 c0 -8 5 -15 10 -15 6 0 10 7 10 15 0 8 -4 15 -10 15 -5 0 -10 -7 -10 -15z"/>
 <path d="M7299 7404 c-10 -12 -9 -18 3 -31 19 -18 38 -10 38 17 0 24 -25 33 -41 14z"/>
 <path d="M7362 7399 c2 -6 8 -10 13 -10 5 0 11 4 13 10 2 6 -4 11 -13 11 -9 0 -15 -5 -13 -11z"/>
 <path d="M7210 7375 c-10 -11 -10 -19 -2 -27 15 -15 44 -2 40 19 -4 23 -22 27 -38 8z"/>
 <path d="M7015 7341 c-97 -34 -137 -53 -375 -169 -102 -50 -231 -109 -288 -131 -57 -23 -133 -56 -170 -75 -37 -18 -84 -39 -104 -45 -27 -9 -38 -18 -38 -32 0 -29 22 -24 154 35 229 102 317 136 321 123 10 -35 27 -218 37 -417 9 -174 9 -306 -1 -590 -21 -604 -36 -914 -44 -927 -5 -7 -21 -13 -36 -13 -15 0 -52 -4 -82 -10 -221 -40 -243 -41 -842 -51 -330 -6 -605 -8 -612 -5 -24 9 -48 169 -80 536 -32 365 -16 671 51 995 21 101 77 291 89 303 2 2 39 -8 84 -22 114 -36 302 -66 415 -66 87 0 96 2 96 18 0 17 -12 20 -117 26 -233 13 -468 75 -643 168 -52 28 -166 98 -253 155 -143 94 -187 114 -187 84 0 -23 297 -215 452 -292 57 -29 104 -53 106 -54 2 -2 -11 -44 -28 -94 -39 -116 -74 -283 -102 -492 -26 -192 -30 -498 -9 -719 19 -203 50 -460 60 -505 6 -22 8 -41 5 -44 -2 -3 -57 -8 -122 -13 -108 -8 -171 -16 -447 -54 -140 -19 -689 -19 -807 0 -48 8 -92 17 -97 20 -5 4 -19 40 -32 81 -19 65 -24 73 -40 65 -15 -8 -16 -15 -8 -42 5 -18 26 -94 45 -168 20 -74 54 -177 75 -228 112 -262 138 -450 100 -709 -40 -276 -53 -358 -76 -473 -13 -63 -20 -118 -16 -123 28 -29 63 103 101 383 7 47 21 144 32 215 28 188 23 353 -17 465 -8 24 -22 71 -31 104 -9 34 -35 106 -59 161 -41 95 -72 201 -63 210 3 3 58 -2 124 -11 95 -13 180 -15 419 -11 261 4 321 8 457 31 87 14 231 30 320 36 174 10 776 30 919 30 l85 0 46 -87 c59 -113 157 -387 158 -440 0 -9 -20 -13 -66 -13 -75 0 -240 -37 -335 -76 -277 -113 -436 -248 -557 -474 -49 -91 -76 -175 -96 -300 -15 -98 -36 -394 -36 -512 l0 -66 -42 4 c-24 3 -79 9 -122 15 -44 5 -166 9 -271 9 -159 0 -217 -4 -337 -25 -80 -14 -163 -31 -185 -39 -110 -39 -259 -138 -412 -275 l-74 -66 6 200 c4 110 10 224 13 253 6 48 5 52 -14 52 -18 0 -21 -9 -29 -77 -12 -119 -10 -583 5 -718 16 -150 37 -262 61 -317 10 -24 44 -119 76 -213 73 -214 96 -261 194 -383 164 -203 316 -323 492 -386 155 -56 348 -131 445 -174 60 -27 148 -53 255 -77 180 -41 266 -70 325 -109 85 -57 171 -119 199 -145 85 -78 133 -95 325 -120 47 -6 137 -17 200 -25 63 -8 207 -18 320 -21 170 -5 213 -3 249 10 24 8 56 15 70 15 15 0 69 11 121 24 52 13 115 27 140 31 122 18 212 68 225 123 6 30 -12 87 -73 227 -45 104 -62 180 -62 279 0 39 -16 163 -36 276 -28 157 -38 245 -43 375 -5 151 -8 170 -23 173 -17 3 -18 -9 -18 -146 0 -90 6 -181 15 -228 41 -222 65 -387 65 -454 0 -102 20 -187 70 -300 65 -149 74 -178 62 -205 -13 -29 -82 -62 -158 -75 -32 -6 -111 -22 -174 -36 -268 -59 -236 -56 -490 -45 -129 6 -280 18 -335 26 -55 8 -143 20 -195 26 -84 10 -102 16 -160 52 -36 23 -81 55 -101 72 -69 58 -168 126 -229 156 -34 17 -60 33 -58 37 55 104 71 199 65 377 -5 140 -36 337 -86 538 -17 67 -39 167 -50 222 -11 55 -27 121 -35 148 l-15 47 297 0 c313 0 354 4 587 55 170 37 326 84 590 180 210 76 277 95 388 109 42 5 45 -3 26 -84 -6 -25 -17 -81 -24 -125 -12 -69 -12 -82 0 -94 8 -8 16 -13 18 -10 2 2 18 78 35 169 17 91 54 239 82 330 29 91 65 217 81 280 37 142 84 242 187 399 63 97 87 144 116 229 46 139 73 291 54 303 -23 15 -26 10 -33 -43 -24 -181 -75 -321 -169 -464 -41 -62 -95 -155 -121 -207 l-47 -95 -56 -17 c-45 -15 -77 -17 -176 -12 -200 9 -326 52 -456 153 -116 91 -164 179 -218 404 -11 47 -37 151 -56 231 -20 81 -36 158 -36 170 -1 29 -38 205 -75 354 -73 294 -121 441 -187 566 -18 35 -34 67 -36 72 -2 4 52 7 120 7 216 1 368 20 788 100 239 46 569 103 689 121 93 13 436 8 463 -7 14 -8 11 -18 -26 -79 -40 -66 -109 -216 -156 -334 -12 -30 -34 -108 -50 -172 -16 -64 -42 -159 -58 -210 -48 -149 -75 -258 -68 -274 11 -30 25 -13 45 58 12 39 37 122 55 182 19 61 46 159 61 219 50 208 150 438 260 597 64 93 106 177 147 292 45 125 50 152 28 152 -10 0 -30 -42 -62 -128 -57 -157 -115 -263 -143 -260 -11 1 -72 7 -135 14 -145 15 -305 6 -492 -27 -78 -14 -208 -36 -288 -49 -80 -14 -201 -36 -269 -50 -68 -14 -127 -25 -132 -25 -4 0 -6 53 -3 118 2 64 12 304 21 532 16 431 13 967 -7 1120 -5 41 -12 102 -15 135 l-6 60 153 74 c194 95 274 129 368 156 47 14 75 27 75 36 0 24 -55 20 -140 -10z m-1061 -2933 c42 -151 60 -231 76 -327 20 -119 82 -392 127 -561 38 -142 93 -249 162 -313 63 -58 148 -117 202 -140 129 -56 392 -90 493 -63 53 13 56 13 56 -4 0 -16 -36 -144 -118 -417 -14 -50 -17 -53 -48 -53 -75 0 -213 -37 -418 -111 -275 -100 -399 -138 -602 -183 -227 -50 -352 -60 -636 -51 -207 6 -238 9 -243 24 -2 9 -11 59 -19 111 -8 52 -22 136 -30 185 -14 83 -20 133 -46 390 -21 205 -6 583 30 765 66 327 301 576 660 700 150 51 346 78 354 48z m-1309 -1398 c39 -6 101 -13 138 -17 37 -3 70 -9 72 -13 3 -4 11 -84 20 -177 8 -93 22 -211 31 -263 8 -52 21 -138 29 -190 19 -121 31 -176 60 -275 13 -44 31 -118 39 -165 9 -47 32 -152 51 -235 53 -233 85 -424 85 -518 0 -170 -46 -337 -93 -337 -18 0 -154 31 -291 66 -32 8 -102 35 -155 59 -81 37 -193 80 -466 180 -112 41 -280 185 -419 358 -90 112 -116 162 -176 342 -26 77 -64 185 -83 240 -27 76 -39 128 -47 215 -6 63 -15 143 -20 176 -17 104 -13 125 28 170 85 93 277 242 377 291 84 42 117 52 273 78 151 25 417 33 547 15z"/>
 <path d="M4327 7284 c-8 -8 1 -24 14 -24 5 0 9 7 9 15 0 15 -12 20 -23 9z"/>
 <path d="M5930 6865 c0 -9 5 -15 11 -13 6 2 11 8 11 13 0 5 -5 11 -11 13 -6 2 -11 -4 -11 -13z"/>
 <path d="M5973 6873 c4 -3 10 -3 14 0 3 4 0 7 -7 7 -7 0 -10 -3 -7 -7z"/>
 <path d="M5710 6815 c0 -8 9 -15 20 -15 11 0 20 7 20 15 0 8 -9 15 -20 15 -11 0 -20 -7 -20 -15z"/>
 <path d="M5652 6804 c4 -21 22 -23 26 -1 2 10 -3 17 -13 17 -10 0 -15 -6 -13 -16z"/>
 <path d="M8544 6512 c-6 -4 -16 -54 -23 -112 -16 -135 -44 -269 -81 -394 -35 -116 -35 -116 -14 -116 8 0 21 15 29 33 34 82 85 314 110 500 l6 47 87 0 c48 0 137 -9 197 -19 108 -19 133 -16 122 11 -11 30 -397 75 -433 50z"/>
 <path d="M9024 6446 c-11 -28 1 -51 25 -51 32 0 49 28 32 49 -17 20 -50 21 -57 2z"/>
 <path d="M9167 6423 c-13 -12 -7 -41 10 -47 9 -4 23 0 31 8 13 12 13 18 2 30 -13 17 -32 21 -43 9z"/>
 <path d="M9110 6405 c0 -9 5 -15 11 -13 6 2 11 8 11 13 0 5 -5 11 -11 13 -6 2 -11 -4 -11 -13z"/>
 <path d="M9593 6284 c-8 -21 13 -42 28 -27 13 13 5 43 -11 43 -6 0 -13 -7 -17 -16z"/>
 <path d="M9657 6264 c-13 -13 -7 -52 9 -58 22 -9 46 13 42 38 -3 21 -37 34 -51 20z"/>
 <path d="M2630 6235 c-247 -51 -424 -114 -496 -177 -37 -33 -42 -46 -19 -54 8 -4 32 9 56 30 52 44 160 87 333 131 170 43 269 57 386 53 l95 -3 -3 -35 c-2 -19 -12 -84 -23 -145 -26 -153 -24 -234 12 -410 46 -231 64 -285 94 -285 10 0 8 18 -7 78 -45 173 -78 359 -78 432 0 41 9 125 19 185 35 206 35 200 6 213 -45 21 -246 13 -375 -13z"/>
 <path d="M9735 6210 c-8 -12 12 -40 28 -40 21 0 457 -247 587 -333 135 -89 280 -217 280 -248 0 -50 -159 -353 -283 -539 -179 -267 -363 -453 -529 -534 -100 -49 -271 -96 -344 -96 -105 1 -255 19 -362 45 -131 32 -221 84 -394 228 -195 163 -356 286 -479 367 -63 41 -116 75 -118 77 -2 1 12 26 31 55 52 79 165 297 187 361 19 55 19 57 2 67 -15 8 -20 3 -31 -33 -15 -51 -68 -158 -168 -337 -41 -74 -91 -164 -110 -199 -19 -35 -65 -154 -103 -265 -37 -110 -91 -266 -119 -346 -48 -135 -104 -349 -94 -359 14 -14 45 43 58 105 8 38 37 135 65 215 27 79 82 236 120 349 74 217 127 340 146 340 34 0 318 -208 560 -411 146 -122 268 -204 345 -232 71 -26 238 -56 371 -67 117 -10 129 -9 221 15 53 14 108 29 122 35 14 5 26 6 26 1 0 -5 -15 -65 -34 -133 -34 -122 -72 -401 -78 -573 -5 -113 12 -806 23 -970 14 -204 56 -351 122 -423 l21 -23 -31 -57 c-29 -55 -30 -61 -25 -149 3 -61 9 -96 18 -104 8 -6 14 -16 14 -21 0 -5 -30 15 -67 44 -180 142 -332 230 -446 259 -23 6 -162 14 -309 18 -216 5 -271 9 -282 21 -18 20 -46 112 -91 300 -109 452 -221 626 -549 849 -72 49 -182 114 -243 145 -62 31 -113 62 -113 69 1 6 7 41 15 77 18 83 18 90 0 90 -19 0 -27 -21 -55 -142 -27 -122 -71 -213 -195 -407 -115 -181 -155 -264 -191 -391 -14 -52 -44 -146 -65 -209 -26 -75 -43 -146 -50 -210 -6 -53 -20 -154 -31 -224 -11 -71 -18 -131 -15 -133 3 -3 13 6 24 20 19 24 38 127 62 339 7 54 26 133 51 205 22 64 49 153 60 197 25 96 99 249 176 365 80 121 158 257 179 313 10 26 22 47 27 47 25 0 229 -114 343 -191 170 -116 252 -191 321 -295 102 -156 149 -279 219 -573 19 -80 43 -172 54 -205 21 -59 21 -59 1 -125 -23 -78 -53 -247 -74 -417 -29 -238 -67 -349 -150 -441 -67 -75 -146 -109 -345 -150 -240 -49 -366 -73 -450 -84 -41 -6 -78 -12 -82 -14 -18 -12 -222 -49 -285 -52 -84 -5 -73 -24 -103 182 -35 246 -53 447 -49 548 5 88 3 97 -13 97 -49 0 -35 -277 40 -766 27 -179 37 -216 70 -282 65 -128 131 -197 241 -252 36 -18 91 -50 123 -72 31 -21 104 -61 160 -89 110 -53 176 -68 301 -69 47 0 94 -8 148 -26 91 -30 87 -30 353 15 169 29 196 31 435 31 197 0 269 4 314 15 77 20 334 140 411 191 194 129 386 276 485 370 53 50 112 95 158 118 39 21 72 42 72 47 0 4 -15 18 -32 30 -71 49 -146 120 -189 179 -46 64 -49 66 -171 90 -47 9 -57 15 -60 33 -2 15 -13 25 -34 31 -31 9 -31 11 -37 85 -4 48 -2 80 5 89 8 9 7 16 -5 25 -16 13 -37 158 -37 260 0 37 -4 57 -14 60 -9 4 -15 32 -19 87 -4 68 -2 90 15 131 11 27 24 49 28 49 4 0 24 -7 43 -15 52 -21 56 -20 77 30 11 25 23 45 28 45 5 0 29 -7 53 -15 37 -13 47 -22 55 -48 12 -41 46 -49 61 -14 l11 25 74 -20 c40 -11 78 -24 83 -30 6 -5 15 -32 20 -61 10 -49 11 -52 50 -59 22 -5 44 -13 49 -18 14 -14 42 -12 55 4 8 10 6 20 -10 40 -28 35 -18 44 25 21 32 -18 35 -18 61 -1 35 23 41 43 20 66 -25 27 -10 38 24 19 34 -20 54 -11 76 32 9 16 20 27 24 25 17 -11 57 19 74 55 38 79 205 287 363 450 151 157 187 245 187 464 0 79 -5 119 -27 190 -29 100 -129 315 -146 315 -26 0 -18 -35 29 -137 97 -209 121 -355 88 -528 -21 -106 -57 -166 -171 -284 -147 -152 -281 -316 -346 -423 -25 -40 -44 -59 -64 -65 -22 -6 -32 -17 -38 -41 -8 -30 -11 -32 -49 -30 -51 4 -72 -19 -51 -53 12 -18 11 -24 -1 -36 -13 -14 -18 -14 -38 1 -54 37 -97 7 -66 -46 l16 -28 -29 15 c-16 8 -38 15 -49 15 -26 0 -41 29 -41 79 0 22 -4 42 -8 45 -5 3 -40 12 -78 20 -38 8 -81 17 -96 21 -21 5 -27 3 -33 -14 -8 -26 -25 -28 -25 -2 0 10 -6 23 -12 28 -18 13 -118 53 -133 53 -7 0 -20 -18 -29 -41 l-17 -41 -27 17 c-15 10 -38 27 -51 39 -34 30 -88 148 -105 230 -32 148 -58 1075 -37 1271 30 267 43 348 78 474 l38 134 90 56 c140 86 295 243 440 446 31 44 61 80 65 80 4 0 64 -65 133 -145 176 -202 354 -377 368 -363 17 17 0 40 -145 186 -69 71 -147 154 -173 185 -26 32 -67 78 -90 104 -73 80 -73 81 -8 187 89 149 195 369 195 409 0 32 -156 175 -285 261 -173 116 -610 361 -643 361 -6 0 -14 -5 -17 -10z m-685 -3954 c85 -3 175 -10 200 -16 112 -28 263 -116 444 -260 39 -30 73 -57 77 -60 11 -8 42 -238 46 -347 l4 -92 30 -6 c19 -4 29 -13 29 -25 0 -26 19 -35 118 -56 76 -16 86 -21 108 -53 33 -49 130 -147 170 -172 19 -11 34 -24 34 -27 0 -4 -25 -20 -56 -36 -31 -16 -98 -69 -148 -116 -94 -89 -251 -209 -432 -332 -103 -70 -369 -200 -446 -218 -24 -5 -156 -10 -294 -10 -254 0 -379 -12 -585 -55 -96 -20 -124 -19 -209 10 -51 17 -95 25 -144 25 -121 0 -190 17 -299 72 -56 28 -127 67 -157 88 -30 20 -87 53 -126 73 -49 25 -86 53 -118 89 -51 58 -122 193 -132 250 l-6 36 59 7 c32 3 114 17 183 31 69 14 163 32 210 40 249 41 582 111 641 135 109 42 192 121 246 232 38 77 59 161 79 317 28 224 71 450 90 481 2 3 54 5 116 3 62 -2 183 -6 268 -8z"/>
 <path d="M2037 5956 c-8 -20 20 -43 35 -28 14 14 3 42 -16 42 -7 0 -16 -6 -19 -14z"/>
 <path d="M1984 5879 c-8 -14 11 -33 25 -25 16 10 13 36 -3 36 -8 0 -18 -5 -22 -11z"/>
 <path d="M1952 5839 c2 -6 8 -10 13 -10 5 0 11 4 13 10 2 6 -4 11 -13 11 -9 0 -15 -5 -13 -11z"/>
 <path d="M1930 5800 c0 -5 5 -10 10 -10 6 0 10 5 10 10 0 6 -4 10 -10 10 -5 0 -10 -4 -10 -10z"/>
 <path d="M1746 5653 c-11 -11 -6 -23 9 -23 8 0 15 4 15 9 0 13 -16 22 -24 14z"/>
 <path d="M1704 5619 c-9 -16 18 -30 33 -17 7 6 10 14 7 19 -7 13 -31 11 -40 -2z"/>
 <path d="M1620 5490 c0 -5 5 -10 10 -10 6 0 10 5 10 10 0 6 -4 10 -10 10 -5 0 -10 -4 -10 -10z"/>
 <path d="M1596 5461 c-4 -5 -2 -12 3 -15 5 -4 12 -2 15 3 4 5 2 12 -3 15 -5 4 -12 2 -15 -3z"/>
 <path d="M1552 5427 c-15 -17 1 -42 23 -33 18 6 17 37 -1 43 -6 2 -16 -2 -22 -10z"/>
 <path d="M1423 5288 c-43 -51 -127 -156 -185 -233 -174 -230 -264 -332 -353 -402 -79 -62 -94 -83 -60 -83 8 0 50 29 93 63 l78 64 65 -62 c126 -119 375 -319 594 -477 296 -214 647 -411 856 -482 123 -42 347 -82 504 -91 61 -3 138 -8 173 -11 l63 -6 -6 -37 c-5 -28 -2 -41 9 -51 9 -7 16 -11 16 -9 0 2 21 81 45 174 89 339 88 330 82 450 -8 183 -86 523 -155 680 -21 50 -51 133 -66 185 -37 131 -45 147 -67 153 -10 3 -19 2 -19 -1 0 -23 87 -290 115 -352 99 -222 179 -675 145 -821 -24 -104 -82 -314 -89 -321 -3 -4 -80 -3 -171 2 -401 22 -599 79 -960 278 -80 44 -306 188 -420 268 -216 150 -680 531 -680 558 0 6 37 56 82 111 44 55 120 152 167 215 47 63 123 157 168 210 46 52 83 101 83 108 0 30 -33 5 -107 -80z"/>
 <path d="M756 4553 c-11 -11 -6 -23 9 -23 8 0 15 4 15 9 0 13 -16 22 -24 14z"/>
 <path d="M720 4510 c0 -5 5 -10 10 -10 6 0 10 5 10 10 0 6 -4 10 -10 10 -5 0 -10 -4 -10 -10z"/>
 <path d="M10913 4474 c-8 -21 13 -42 28 -27 13 13 5 43 -11 43 -6 0 -13 -7 -17 -16z"/>
 <path d="M10940 4410 c0 -5 5 -10 10 -10 6 0 10 5 10 10 0 6 -4 10 -10 10 -5 0 -10 -4 -10 -10z"/>
 <path d="M10960 4274 c0 -8 5 -12 10 -9 6 3 10 10 10 16 0 5 -4 9 -10 9 -5 0 -10 -7 -10 -16z"/>
 <path d="M10965 4230 c-11 -17 5 -32 21 -19 7 6 11 15 8 20 -7 12 -21 11 -29 -1z"/>
 <path d="M375 4060 c3 -5 8 -10 11 -10 2 0 4 5 4 10 0 6 -5 10 -11 10 -5 0 -7 -4 -4 -10z"/>
 <path d="M350 4020 c0 -5 5 -10 10 -10 6 0 10 5 10 10 0 6 -4 10 -10 10 -5 0 -10 -4 -10 -10z"/>
 <path d="M320 3975 c0 -21 30 -31 40 -14 11 17 3 29 -21 29 -10 0 -19 -7 -19 -15z"/>
 <path d="M279 3893 c-32 -85 -81 -266 -86 -319 l-6 -61 114 -62 c128 -70 271 -175 339 -248 25 -26 99 -93 164 -148 144 -121 270 -244 353 -346 34 -41 117 -122 185 -179 153 -131 173 -152 223 -223 22 -32 101 -111 175 -176 124 -109 314 -298 465 -462 39 -42 103 -94 180 -144 66 -43 163 -107 216 -141 140 -92 213 -132 313 -170 48 -19 125 -54 170 -78 44 -24 117 -56 161 -71 44 -15 96 -35 116 -45 47 -24 150 -57 218 -70 61 -11 101 4 101 39 0 60 -82 293 -170 481 -105 225 -200 509 -219 655 -7 50 -19 135 -27 190 -32 224 -42 527 -24 750 8 109 8 121 -8 133 -15 12 -18 8 -26 -35 -12 -71 -11 -614 2 -713 6 -47 20 -159 32 -250 11 -93 32 -202 46 -250 51 -165 127 -366 181 -480 92 -195 179 -443 166 -476 -3 -8 -16 -11 -41 -7 -88 14 -385 129 -534 207 -60 31 -115 56 -123 56 -46 0 -162 68 -560 329 -77 50 -121 92 -299 284 -106 114 -169 174 -384 364 -35 30 -81 81 -102 113 -22 32 -70 85 -106 117 -196 171 -257 229 -302 286 -61 76 -248 258 -362 352 -47 39 -112 97 -145 130 -87 88 -229 192 -344 254 -88 47 -101 57 -101 80 0 31 41 188 74 282 13 38 21 70 18 74 -13 13 -33 3 -43 -22z"/>
 <path d="M11087 3904 c-8 -8 1 -24 14 -24 5 0 9 7 9 15 0 15 -12 20 -23 9z"/>
 <path d="M11084 3849 c-10 -17 23 -46 37 -32 7 7 9 19 6 27 -7 18 -33 21 -43 5z"/>
 </g>

</svg>
