<!--<svg id="vector_borders" xmlns="http://www.w3.org/2000/svg" width="9070" height="6200" viewBox="0 0 9070 6200">-->
<svg id="vector_borders" xmlns="http://www.w3.org/2000/svg" width="2268px" height="1552px" viewBox="0 0 9070 6200">
  <defs>
    <style>
      .border_default {
        fill: #811000;
<!--        fill: #ffffff00;-->
        z-index: 1;
        transition: all 200ms ease-out;
      }
      .border_available {
        fill: #b11000;
        z-index: 2;
        transition: all 200ms ease-out;
        border-color: #9ecaed;
        box-shadow: 0 0 10px #9ecaed;
<!--        animation: blink 1s linear infinite;-->
      }
      @keyframes blink{
        0%{opacity: 0;}
        50%{opacity: 1;}
        100%{opacity: 0;}
      }
    </style>
  </defs>  
  <path id="borders_area01" class="border_default" d="M2737,713c51.82,1.079,45.21,50.96,33,90-27.68,88.486-53.97,171.043-89,251l-64,131c-37.27,86.26-64.86,174.34-94,268q-11.505,33.495-23,67c-12.49,53.11-11.49,106.22-22,164q-10.995,72.495-22,145-3,56.49-6,113c-6.52,43.38-1.14,87.9-8,134q-0.495,37.995-1,76,1.005,43.5,2,87c8.28,54.84,10.97,116.28,11,175q-13.995,6.495-28,13-7.005-118.995-14-238v-73c-0.01-64.36-.41-124.93,9-183q2.505-48.495,5-97,20.505-151.98,41-304c23.89-92.82,59.06-182.11,90-267,12.33-33.83,20.47-65.19,35-96,46.7-99.02,94.51-194.828,129-308,7.74-25.4,37.38-92.064,23-118-34.31-.7-67.99,11.775-94,20l-63,18q-36.99,17.5-74,35l-97,33c-50.34,21.339-94.24,50.163-142,74-35.69,17.814-80.95,26.767-118,43-82.42,36.11-156.2,91.19-227,141-73.79,51.91-152.35,95.03-222,150-24.59,19.41-43.47,49.46-63,74l-106,112-113,113q-29.49,24-59,48-13.5,13.995-27,28c-32.31,25.54-63.91,50.37-93,79-31.93,31.42-51.9,74.73-81,109-24.38,28.71-56.99,49.78-87,73Q1015,1949,952,2005c-37.764,41.48-73.63,85.1-109,129q-20,18-40,36c-34.822,43.28-78.387,81.54-122,116-31.619,24.98-61.943,54.16-91,82-17.667,16.93-39.707,28.62-59,44q-29.5,33-59,66-43,34.5-86,69-49.995,32.49-100,65c-38.627,22.55-78.932,37.87-115,62q4.5,30.99,9,62c19.121,75.59,43.477,147.97,67,217l-6,12c-4.033,1.28-10.157,3.18-15,1-16.8-7.74-21.53-43.71-28-62-19.624-55.46-35.549-115.27-50-176-4.641-19.5-12.06-61.89-3-77,29.5-6.54,48.479-28.93,73-40,88.417-39.93,156.422-93.12,228-149l70-76c146.229-113.52,279.278-236.93,395-381,16.968-21.13,40.736-39.06,62-56q34-31.5,68-63,40.5-32.49,81-65c37.19-29.92,61.2-80.71,91-118l29-26c53.12-56.56,120.06-99.26,175-154q95.49-97.995,191-196c23.52-29.17,47.76-66.63,77-90,55.17-44.11,113.84-81.19,175-120q89.985-60.495,180-121,45.99-25.5,92-51c38.68-22.546,90.36-31.526,132-50q61.5-33,123-66,57-20,114-40l82-38,94-29ZM2472,2615q12.495,56.49,25,113-53.49,3.495-107,7-42.495.495-85,1c-122.61,19.82-244.91,21.39-352,55-99.3,31.16-192.39,72.76-275,121-43.51,25.41-88.79,44.11-131,70-107.39,65.87-215.21,135.17-316,209l-99,81c-75.67,58.07-148.141,116.77-223,175q-24.5,22.995-49,46c-33.581,27.02-83.25,64.8-105,102q-4-3.495-8-7c-12.412-25.24-83.093-77.59-108-96-10.66-7.88-23.075-11.52-32-21l1-10q3.5-4.005,7-8c27.286,0.29,89.645,56.89,110,73q14,13.5,28,27c13.514-27.58,61.591-61.5,86-81q25-23.505,50-47c73.557-57.33,144.02-115.57,219-172q53.49-43.5,107-87c140.96-100.72,285.43-192.4,443-277,92.49-49.66,190.57-99.73,302-131,43.18-12.12,86.05-15.78,133-25,109.76-21.56,238.92-31.75,367-32v-3q-6.495-27.495-13-55C2456.87,2636.33,2465.03,2624.49,2472,2615ZM253,2985q6,0.495,12,1c6.452,5.9,11.032,9.2,11,22-2.114,4.42-3.48,6.89-8,9-3.815,2.46-13.445,4.6-19,2-4.5-1.98-6.3-4.19-8-9C235.887,2998.2,247.065,2989.57,253,2985Zm20,46c1.666,0.33,3.334.67,5,1,2,1.67,4,3.33,6,5-0.21,5.66-1.084,6.71-3,10-3,.33-6,0.67-9,1-4.729-3.41-5.672-6.82-4-14Zm15,32,7,3c2.759,7.05,1.757,17.8-8,14C277.989,3076.15,282.408,3066.6,288,3063Zm137,188c2,1.33,4,2.67,6,4v5l-5,3-6-3C420.4,3253.01,421.13,3254.01,425,3251Zm124,153c7.515,0.16,7.5,1.4,11,5l-1,7c-5.68,2.87-7.628,3.09-13,0l-1-7C546.333,3407.33,547.667,3405.67,549,3404Zm25,19c3,0.33,6,.67,9,1a15.268,15.268,0,0,1,5,5c2.921,4.26,1.617,8.54,0,13l-11,3q-5-4.005-10-8v-6C569.149,3426.87,570.747,3425.82,574,3423Z"/>
  <path id="borders_area02" class="border_default" d="M2460,2700q15.495,0.495,31,1c4.16,30.06,14.38,58.8,23,87,22.47,73.48,40.77,144.96,54,225v30c12.75,83.39-11.49,167.7-27,234-19.34,82.69-26.43,163.1-53,239-16.37,46.77-37.8,88-56,131q-24,76.485-48,153c-3.56,11.9-11.41,55.82-18,61q-16.995,4.005-34,8v-1c31.87-70.86,42.73-156.74,72-229,17.96-44.33,40.69-85.96,57-134,27.91-82.21,37.15-170.73,57-260,13.71-61.65,33.71-152.77,21-232-11.69-72.86-30.15-138.63-50-206q-10.5-38.49-21-77h-24c-42.71,10.6-95.18-1.58-142,6-114.25,18.49-226.72,20.65-329,49-110.18,30.54-211.06,78.29-301,130q-42,21.495-84,43-114.99,72-230,144-66.99,46.995-134,94-48,39.495-96,79c-75.88,57.95-148.137,116.69-223,175q-21.5,20.505-43,41c-31.224,25.07-64.889,50.92-89,83v3c14.933,11.46,25.366,29.18,37,44,16.7,21.28,35.209,41.12,52,63,66.437,86.57,134.528,174.22,202,260q36,41.49,72,83c6.49,6.94,26,21.54,23,33-1.16,6.96-3.86,7.43-8,11-21.72-.36-75.31-73.79-89-91l-45-51q-94.491-123.99-189-248l-69-82c-5.5-5.64-24.674-21.16-22-27,12.526-27.66,68.358-72.5,93-92q22.5-21.495,45-43c54.166-43.42,106.046-88.94,162-130,59.37-43.56,114.44-92.75,173-137q63.495-44.49,127-89,119.49-74.985,239-150,42.99-22.005,86-44c90.81-52.9,194.33-100.18,306-131,103.03-28.43,216.02-30.33,331-49,44.95-7.3,80.5,2.17,123-5Q2441.005,2701,2460,2700ZM2326,4031c3.33,12.7-16.35,71.2-21,86-21.31,67.89-33.16,148.82-48,219-16.16,76.46-.81,167.95,13,237,9.78,48.9,13.18,95.46,20,143q-15.495,7.5-31,15c-27.59,6.8-108.38,4.52-137,0q-22.995-.495-46-1c-117.22-19.64-226.3-40.98-328-78-48.06-17.5-95.45-38.69-132-68-8.91-7.15-38.76-30.03-21-44a13.544,13.544,0,0,1,11-2c16.61,2.89,27,23.2,39,32,22.14,16.23,49.45,28.63,76,40,100.45,43.04,213.33,62.77,333,86,51.82,10.06,147.25,15.21,204,5-2.04-50.02-15.23-118.35-26-165-6.09-26.38-3.28-50.97-8-81q-1.995-31.995-4-64c10.61-64.7,20.74-121.81,35-183,9.71-41.66,18.66-80.61,29-118q4.005-19.005,8-38Q2309,4041.5,2326,4031Zm-1148,47c11.69-.61,17.61,1.39,21,9q1.005,6,2,12c-2.27,4.74-4.15,7.77-9,10-3.33.67-6.67,1.33-10,2-6.44-3.02-11.27-6.2-14-13-2.45-7.6.27-14.36,6-17C1175.33,4080,1176.67,4079,1178,4078Zm30,37c2.67,0.33,5.33.67,8,1,1.33,0.67,2.67,1.33,4,2,0.67,2.67,1.33,5.33,2,8q-3,4.005-6,8c-7.34-.01-8.12-1.25-12-4v-10C1205.33,4118.33,1206.67,4116.67,1208,4115Zm21,26c2,0.33,4,.67,6,1,2,1.67,4,3.33,6,5,0.6,17.37-13.35,13.51-19,5,0.67-2.67,1.33-5.33,2-8C1225.67,4143,1227.33,4142,1229,4141Zm70,88c8.9-.16,11.97,1.82,17,5q1.5,6.495,3,13c-2.14,5.23-3.92,8.64-9,11-2.92,1.79-8.17,2.8-12,1-5.78-2.02-12.93-9.89-10-17C1289.32,4233.75,1293.29,4232.63,1299,4229Zm27,25c2.33,0.33,4.67.67,7,1l7,7c-0.07,7.04-1.5,8.96-4,13-3.7,1.16-6.91,2.72-11,1-5.66-2.24-7.71-5.33-8-13A48.543,48.543,0,0,1,1326,4254Zm138,123c2.33,0.33,4.67.67,7,1,1.67,2.33,3.33,4.67,5,7-1.54,12.44-10.9,11.52-18,6-0.33-2.33-.67-4.67-1-7A71.159,71.159,0,0,1,1464,4377Zm17,26c10.74-.29,13.06,2.6,16,10-0.62,6.32-2.26,8.82-7,11-3.64,1.73-4.25,1.26-9,1a15.22,15.22,0,0,1-5-5c-2.22-3.27-1.97-6.59-1-11Zm28,22c25.54-1.83,24.96,29.28,2,29-3.67-1.69-5.99-2.5-8-6-1.33-2.33-2.67-4.67-4-7C1499.88,4431.42,1503.34,4429.49,1509,4425Zm41,54c25.39-1.68,28.44,28.37,10,35-5.06,1.46-9.45.27-14-1-6.39-7.75-13.48-24.49,0-31C1547.33,4481,1548.67,4480,1550,4479Z"/>
  <path id="borders_area03" class="border_default" d="M2784,3707h268q54,1.005,108,2,73.5,8.505,147,17c57.96,11.99,119.05,18.04,181,28q36,1.005,72,2c56.86,9.15,114.74,12.86,177,13l-18,45q-7.995,36-16,72-13.5,118.485-27,237-1.005,22.995-2,46-7.005,70.5-14,141v41q-2.505,45.495-5,91-0.495,36-1,72a1279.494,1279.494,0,0,0,20,227c12.48,70.43,14.06,139.36,30,203,25.3,101.02,38.1,204.7,87,282-59.91,13.7-107.79,45.62-156,71-67.6,35.6-128.84,73.06-191,114q-41.49,28.995-83,58c-7.64,5.18-17.38,19.93-32,14-6.25-2.87-8.27-8.65-8-18,11.86-23.34,77.41-61.36,102-77l129-84q36.99-19.5,74-39c31.67-18.79,79.12-50.15,119-57v-1c-46.24-105.54-64.44-228.3-91-356q-7.995-69-16-138c-10.99-62.42-16-128.78-16-201q0.495-33.99,1-68,1.5-32.49,3-65,1.005-36.99,2-74,11.505-128.49,23-257,9.495-80.985,19-162,9.495-42.99,19-86h-3l-243-18q-74.49-12.495-149-25-77.985-8.505-156-17H2874c-86.09-.01-164.65,3.63-237,14-24.42,3.5-63.12,3.9-75,20Q2546,3830,2530,3886q-13.005-7.5-26-15,18-64.995,36-130,35.49-9,71-18c29.81-6.92,62.43-6.98,90-12Q2742.49,3709.005,2784,3707Zm-309,331c31.85,24.87,17.76,85.14,5,127-27.36,89.72-56.61,222.92-37,343q1.5,33.99,3,68c9.89,56.4,6.78,123.9,19,182,24.91,118.46,54.66,228.89,83,341,25.87,102.35,36.36,211.03,73,304,28.69,72.79,68.44,143.5,108,208,25.77,42.01,59.07,87.28,76,136,55.77-9.77,95.05-49.52,142-67,12.74-4.74,19.9,4.81,20,17-7.54,14.04-26.98,19.43-41,27-41.32,22.31-83.92,47.36-140,52-2.1-12.32-10.31-21.17-15-31-15.44-32.37-32.46-61.51-50-91-45.08-75.8-93.37-154.76-127-240-36.93-93.61-48.9-203.5-74-307-12.29-50.7-30.77-103.73-43-153-15.89-63.99-25.23-124.05-40-188q-7.5-78.99-15-158c-5.38-30.86-2.44-65.83-8-101-4.26-26.92-7.4-64.75-3-94l3-87c11.13-63.61,27.59-126.41,42-185Q2465.5,4089.505,2475,4038Zm799,1452c7.04,0.07,8.96,1.5,13,4,1.16,4.48,1.73,6.34,1,11q-3.495,3-7,6h-8l-6-6c0.33-2.67.67-5.33,1-8Q3271,5493.505,3274,5490Zm-214,145c7.99-.03,8.35,1.25,12,5-0.33,1.67-.67,3.33-1,5-1,1.67-2,3.33-3,5h-7C3054.19,5645.56,3055.9,5640.58,3060,5635Zm-26,11c1.67,0.33,3.33.67,5,1,2,1.33,4,2.67,6,4,0.33,1.67.67,3.33,1,5-2.41,5.83-4.06,8.5-12,9q-3.495-3-7-6C3027.05,5650.09,3029.02,5649.59,3034,5646Zm-43,16c3.67,0.33,7.33.67,11,1q3.495,4.005,7,8c2.37,7.77-.67,12.39-4,17l-14,3q-4.995-4.005-10-8C2980.79,5670.74,2984.9,5667.56,2991,5662Z"/>
  <path id="borders_area04" class="border_default" d="M3709,3768q86.985,1.005,174,2c43.62,6.85,110.06,6.57,153,4l159,6h208c56.54,5.67,134.08-4.62,206,7q28.995,1.005,58,2,143.985,22.995,288,46a593.141,593.141,0,0,0,8,101v72c1.32,59.44-2.43,121.37,7,180q4.5,98.985,9,198,4.995,154.98,10,310v114c0,48.85,5.27,104.57-2,150q-0.495,27.99-1,56c-11.84,74.43-3.19,158.87-16,230-8.09,44.91-17.91,91.95-18,143q-48-22.005-96-44-70.5-27.99-141-56-32.49-16.5-65-33-28.5-12.495-57-25-13.995-4.5-28-9c-3.31-3.34-3.87-8.39-4-15,2.13-5.46,3.76-8.61,9-11,15.93-8.14,75.8,22.39,90,29q42.99,21,86,42c59.74,25.12,119.83,44.89,176,73,0.67-.33,1.33-0.67,2-1q10.5-85.485,21-171,3-57.99,6-116c10.29-66.45,6-139.83,6-211,0-55.67,6.24-118.78-2-171v-50q-3-73.995-6-148-5.505-127.98-11-256-3.495-96.99-7-194-0.495-39.495-1-79c-2.4-15.12-2.73-75.35-10-81-12.42-5.31-27.77-3.26-43-6-36.23-6.53-72.02-9.18-111-17q-46.995-8.505-94-17-62.49-4.005-125-8-87.495-1.005-175-2H4209q-56.49-1.005-113-2-136.485-4.005-273-8H3723c-4.91,37.65-18.07,75.99-25,116q-10.995,102.495-22,205-1.005,22.995-2,46-7.005,70.5-14,141v41c-17.59,112.04-6.11,273.9,12,374,10.51,58.12,11.78,117.02,23,171,17.08,82.19,29.31,163.9,57,234,8.03,20.34,10.58,52.44,25,67l63-21c77.85-23.89,163.1-34.22,254-48,26.46-4.01,115.66-6.66,132,4q1.5,6.495,3,13c-2.98,4.88-3.57,8.41-9,11-9.15,4.73-25.73.1-38,2l-100,3c-86.44,13.63-172.51,24.24-246,50-10.8,3.78-72.92,25.15-76,23-16.48-22.34-24.65-51.7-34-81q-11.505-32.49-23-65c-8.82-30.65-12.92-60.4-21-93-12.89-51.98-20.59-109.07-31-165q-6.495-58.5-13-117c-10.94-62.45-15.99-128.76-16-201q0.495-33.99,1-68,2.505-48.99,5-98v-41q7.005-70.5,14-141,1.005-23.505,2-47C3661.5,4011.44,3657.18,3835.97,3709,3768Zm569,1362c3.33,0.67,6.67,1.33,10,2,3.37,4.55,5.55,5.96,6,14-0.67,2-1.33,4-2,6-4.64,3.22-6.57,4.91-15,5q-4.005-2.505-8-5-1.005-5.505-2-11C4270.03,5134.93,4272.58,5133.58,4278,5130Zm49,8c7.08,0.24,9.19,2.06,14,4q1.995,6.495,4,13c-2.73,4.47-3.05,7.56-8,10-3.66,2.21-8.29,2.05-13,1q-3.495-4.005-7-8c-0.33-3-.67-6-1-9C4319.03,5142.93,4321.58,5141.58,4327,5138Zm159,43c3,0.33,6,.67,9,1,4.98,2.28,6.47,5.3,7,12-1.33,2.33-2.67,4.67-4,7-3.76,1.19-7.71,2.86-12,1-3.65-1.65-4.31-2.39-6-6v-9Zm33,10c2,0.67,4,1.33,6,2,1.38,7.34.73,8.12-5,11C4513.71,5199.67,4512.65,5195.87,4519,5191Z"/>
  <path id="borders_area05" class="border_default" d="M4956,3869q3.495,33.495,7,67v78q4.5,122.49,9,245,4.5,102.99,9,206,2.505,71.49,5,143,0.495,27.99,1,56c4.01,71.9,2,156.9,2,235q-3,79.995-6,160-2.505,48.99-5,98-4.005,42.495-8,85c1.02,26.77-22.31,92.42-14,114,43.26,12.09,83.28,41.2,121,61,65.85,34.55,134.31,64.87,205,93q47.49,15,95,30c12.94,3.93,26.63,1.38,32,13,0.67,3,1.33,6,2,9-3.77,6.24-6.28,12.94-15,14-21.01,2.56-98.79-25.2-118-33-72.68-29.49-143.08-59.61-211-95-47.79-24.9-95.7-53.41-148-74q13.005-102.99,26-206,6-119.985,12-240V4804q-2.505-144.99-5-290-4.005-89.985-8-180-4.5-83.985-9-168-1.995-100.995-4-202c0-43.8-16.9-92.15-4-134h1q126.99,25.5,254,51l100,15q126.99,22.995,254,46c46.25,8.98,95.19,8.02,144,16h62c65.97,0,123.69-1.46,182-12q29.49-7.005,59-14,33.495,55.5,67,111c23.22,39.91,33.09,88.81,50,135,4.19,11.44,33.64,78.14,31,82q-10.995,7.5-22,15c-1-.67-2-1.33-3-2-28.9-77.56-54.85-174.36-97-240l-36-63-82,12c-50.95,8.81-101.06,8.99-157,9q-36.495-1.005-73-2l-90-9q-152.49-27-305-54-39-5.505-78-11Q5072.005,3892.005,4956,3869ZM6258,5617c-0.3-66.19-17.94-137.88-7-209v-36c14.41-94.56,13.37-189.99,14-297,0.24-40.18,10.53-88.2,3-131q-10.5-70.995-21-142-3.495-48.99-7-98c-7.97-46.83-16.12-95.92-32-136,9.5-8.82,9.63-27.03,19-36v2c30.28,53.16,35.05,144.81,47,217q1.5,28.995,3,58,10.5,72.99,21,146c7.19,44.59-2.18,97.33-4,136-2.92,61.84.99,145.66-9,206l-6,111v51c0,50.02-1.48,97.93,7,144q4.005,19.005,8,38h-2c-18.36,10.92-43.25,8.54-68,13-19.36,3.48-43.14.27-66,4-43.94,7.18-99.98,8.07-143,1-31-5.09-65.66-1.52-87-16-1.32-4.08-3.38-8.02-2-12,0.77-5.78,2.55-7.25,5-11,19-5.57,43.84,2.55,64,6q35.49,2.505,71,5c20.53,3.22,44.46-.25,62-3l76-3Q6231,5621,6258,5617Zm-797-68c16.62,1.56,23.96,12.14,19,29-11.19,9.3-29.18,13.39-35-5-2.24-5.01-.25-11.67,1-16C5450.8,5553.62,5455.01,5552.02,5461,5549Zm66,19c27.77-1.55,31.1,33.5,9,39C5507.85,5614.01,5507.38,5578.94,5527,5568Zm49,15c5.73,1.89,8.56,2.76,11,8,2.94,9.68-2.83,15.92-13,16q-4.5-3.495-9-7,1.005-6.495,2-13Q5571.5,5585.005,5576,5583Zm307,36c3,0.33,6,.67,9,1,3.65,1.65,4.31,2.39,6,6,0.33,2,.67,4,1,6-1.96,4.07-2.85,6-7,8-6,1.78-10.45.7-13-4-3.48-4.12-2.46-7.45-1-13C5879.67,5621.67,5881.33,5620.33,5883,5619Z"/>
  <path id="borders_area06" class="border_default" d="M7147,3308c64.16-1.42,103.57,12.7,151,27,41.99,12.66,82.94,21.87,118,40,233.53,120.74,376.34,329.5,509,551,42.32,70.67,82.17,140.74,116,221q17.505,42,35,84c-40.3,49.02-79.09,103-130,141-121.76,90.89-258.85,158.59-393,238-45.11,26.7-92.39,52.83-140,77-16.05,8.15-41.11,22.99-56,8,0.6-29.78,28.39-29.95,48-40q73.5-39.99,147-80l185-103q43.995-30,88-60c81.34-51.29,160.31-105.5,214-184l-21-51c-21.23-53.06-42.1-103.92-70-151q-36.99-60.99-74-122c-37.99-69.54-82.9-130.89-129-192-112.92-149.67-234.79-280.46-438-341-67.26-20.04-133.1-39.57-221-25-39.35,6.53-77.72,3.41-112,11-58.74,13.01-123.24,20.79-174,43-82.05,35.91-146.83,97.62-213,150-93.47,73.99-180.37,154.84-281,222-31.17,20.81-62.38,42.68-94,64-22.49,15.16-46.79,41.44-79,45,14.25,27.75,32.33,48.87,48,74l31,62c38.23,62.87,87.31,143.28,105,223-9.3,6.08-16.34,14.45-25,20-0.28-12.43-6.34-22.2-10-32-13.57-36.39-27.29-66.01-42-98-43.92-95.53-100.51-181.78-149-273,17.92-8.73,37.73-5.14,54-14q49.995-33.99,100-68c82.09-55.36,156.95-115.05,234-175,56.21-43.74,108.48-94.84,164-140,36.26-29.49,80.53-53.56,121-78,61.36-37.06,169.52-50.8,252-65ZM6354,4451c11.67,2.38,24.06,5.68,33,11q19.005,63,38,126,17.505,84.99,35,170,8.505,68.49,17,137,60.495-.495,121-1,57.495-10.005,115-20c21.66-4.84,58.24-14.4,74-4,12.41,35.92-43.49,29.94-70,36-64.17,14.66-132.27,20.72-201,20-16.96-.18-47.21,3.9-67-2-2.31-81.64-15.45-161.71-32-232q-9.495-46.5-19-93C6384.36,4550.96,6362.44,4502.11,6354,4451Zm955,241c33.38-1.86,40.98,38.64,15,48C7292.89,4751.21,7277.67,4709.76,7309,4692Zm-52,37c11.24-.55,16.74,1.67,20,9,5.42,8.5-.22,19.16-7,22-5.06,3.05-11.6,1.56-17,0C7243.2,4747.83,7245.54,4737.84,7257,4729Zm-80,49c3.28,1.92,4.05,2.75,6,6-1.92,3.28-2.75,4.05-6,6-2-1.67-4-3.33-6-5v-1A30.186,30.186,0,0,1,7177,4778Zm-238,41c29.42-1.79,35.49,33.83,13,42C6922.87,4871.57,6914.39,4832.91,6939,4819Zm-104,12c33.8-1.78,49.39,39.44,21,52C6815.75,4900.81,6802.73,4849.65,6835,4831Zm54,0c3,0.33,6,.67,9,1,3.65,1.65,4.31,2.39,6,6v9c-2,1.67-4,3.33-6,5-6,1.78-10.45.7-13-4C6879.08,4841.66,6884.27,4835.12,6889,4831Z"/>
  <path id="borders_area07" class="border_default" d="M7900,1579h6q10.995,10.005,22,20c-8.7,16.6-29.36,27.74-32,49,1,0.67,2,1.33,3,2,20.97,7.52,37.05-23.76,51-28,11.8-3.59,58.22,34.66,56,46-2.48,12.67-20.27,19.34-23,35l6,6c17.76-2.57,24.46-13.51,37-19,22.65-9.91,40.76,30.44,44,49,10.36,3.94,27.96,1.21,34,5,4.6,9.18,14.55,6.75,23,8,4.42,25.5,22.02,45.4,34,64,29.06,45.09,60.51,83.51,93,124,36.71,45.75,75.4,89.58,112,135q13.995,13.005,28,26c47.62,59.05,109.72,101.66,139,180,15.78,42.23,16.8,91.55,25,141q0.495,24.99,1,50c4.86,35.42-3.59,79.72-14,115-12.41,42.05-19.19,80.98-35,119l-43,86c-8.77,19.55-17.43,62.15-43,64-6.85-4.22-12.56-6.39-14-16q20.505-44.49,41-89c58.2-114.1,99.05-261.03,60-427-14.03-59.64-46.38-98.36-79-139q-25.995-24.99-52-50-22.995-23.505-46-47c-31.34-38.97-63.93-76.42-95-116q-19.5-21.495-39-43c-26.06-37.16-53.65-72.16-78-111-5.07-8.08-16.43-39.39-21-44-5.98-6.03-35.99,2.67-48-15-14.73-21.67.32-31.09-26-50-14,10.21-51.4,23.86-59-3-6.85-24.18,12.59-34.31,16-49-9.97-5.74-15.48-14.94-30-16-21.7,14.73-42.87,38.27-72,11-2.95-26.98,13.23-38.03,25-53-0.33-.67-0.67-1.33-1-2-14.69-3.01-35.2,16.3-52,21-8.28,2.31-24.41-.14-29,6-8.34,15.91-9.54,83.81-19,90-10.44,7.21-28.13,5.04-43,8-24.47,4.87-90.14,29.09-107,18l-12-30-9,3q-3.495,17.505-7,35c-6.1,9.33-88.51,44.67-104,46-22.6-15.97-17.34-44.28-34-62-90.3,38.67-126.46,136.24-147,244q-5.505,66.495-11,133-2.505,73.995-5,148-2.505,118.485-5,237-1.995,74.985-4,150c-10.8,93.09-4.25,209.28,10,292,12.01,69.74,8.33,138.57,22,204,16.96,81.19,42.23,156.98,63,233,25.49,8.79,47.38,24.76,69,38,115.74,70.86,209.7,174.56,290,281q45,63.495,90,127c11.05-31.14,43.15-50.83,62-75,28.24-36.22,57.19-70.73,86-106q64.5-63.495,129-127c19.44-19.86,72.96-88.55,95-94,20.67,8.98,7.57,25.5-1,37-22.15,29.69-49.55,53.59-73,82q-45,42.99-90,86-28.995,30.99-58,62-31.5,39.99-63,80c-30,37.85-68,68.57-85,120-0.33-.67-0.67-1.33-1-2l-30-48q-37.5-53.49-75-107c-34.29-48.04-75.1-89.15-113-133-71.23-82.41-151.58-145.91-256-196q-13.995-40.995-28-82-21.495-85.485-43-171c-13.74-62.46-10.05-126.92-21-194-9.23-56.55-22.9-136.95-14-197q1.005-40.995,2-82,1.995-76.995,4-154,4.005-169.485,8-339,5.505-91.485,11-183c21.81-127.73,62.97-274.93,189-296,12.38,21.51,20.96,48.31,30,73,13.75-1.66,78.1-23.02,86-31-0.17-16.01,3.52-28.2,6-41l31-9c8,11.88,16.31,23.8,21,39,28.46-15.61,90.66-27.59,125-36,3.92-32.53,10.35-59.19,16-89C7846.7,1606.84,7877.6,1592.96,7900,1579Zm491,1303c8.38-.19,12.55,1.21,18,3,4.5,10.16,7.25,26.13-5,32-11.13,6.64-21.46-3.55-27-9C8376.49,2891.26,8382,2888.72,8391,2882Zm-7,53c7.04,0.07,8.96,1.5,13,4,0.33,0.67.67,1.33,1,2-0.33,3-.67,6-1,9-1.67,2-3.33,4-5,6h-5c-5.13-3.34-7.25-4.11-10-10q2.505-4.995,5-10C8382.67,2935.67,8383.33,2935.33,8384,2935Zm-91,244c11.64-.21,18,4.4,18,16-2.56,5.18-5.06,7.41-9,11-10.19.24-12.39-2.11-17-7q0.495-7.005,1-14Q8289.495,3182,8293,3179Zm-5,44c5.43,0.54,6.88,1.2,9,5a8.039,8.039,0,0,1,1,9c-0.67,1.33-1.33,2.67-2,4-3,.33-6,0.67-9,1C8278.28,3236.17,8280.41,3228.13,8288,3223Zm-13,102c14.12,0.82,9.51,19.97-2,14-1-.67-2-1.33-3-2-0.01-6.33.86-7.58,3-11C8273.67,3325.67,8274.33,3325.33,8275,3325Zm-18,33c7.99,0.81,13.07,2.63,18,6,2.68,8.69,2.44,14.23,0,23-7.14,5.23-12.53,7.62-23,5-4.25-3.25-5.8-6.6-8-12l3-15Q8251.995,3361.505,8257,3358Z"/>
  <path id="borders_area08" class="border_default" d="M5374,807c6.08-128.8,90.4-267.046,169-323,35.95-25.594,82.09-38.763,119-63,58.25-38.251,115.32-72.845,184-103,23.93-10.5,46.58-22.859,76-30,55.46-13.459,126.18-.522,182-12l37-14c25.89-10.107,52.96-15.888,83-21,32.38-5.51,93.33,12.252,120,19l190,31,98,3,77,1h152c42.46-.008,81.72-2.385,116,7,62.94,17.23,113.51,44.914,168,69,36.28,16.037,73.79,30.291,107,50,36.55,21.692,71.05,48.055,105,72,118.33,83.46,233.42,163.407,334,264,20.79,20.795,45.94,38.605,72,54,25.79,15.237,63.43,22.823,81,46v1l-37,25c-68.37,45.651-129.33,104.023-170,177-20.73,2.73-136.26,24.37-145,33,3.53,9.06,4.17,25.57,0,34l-47,6q-1.995,41.49-4,83-3.495,12-7,24c2.89,13.05,15.87,20.07,18,35h-2c-3.8,1.82-11.99,2.12-15,5q-9.495,69-19,138-1.005,24-2,48-6.495,5.505-13,11c-26.42,25.86-55.37,45.98-85,69-99.24,77.08-199.44,151.57-343,185q-16.5.495-33,1c-48.7,9.14-89.33,8-143,8q-91.995.495-184,1c-20.73,3.55-63.43,16.08-82,3-19.44-13.69-35.89-114.95-44-148-34.16-139.16-28.26-331.05-81-452-26-59.63-63.63-117.66-116-151-73.07-46.513-168.69-56.893-269-79-76.91-16.95-163.97-34.166-243-50l-80-8-36-13-60-9-98-23C5461.03,803.312,5417.92,807.077,5374,807Zm852-537q-27.99,6.5-56,13c-28.71,9.02-53.54,19.938-88,26l-62,1c-36.78,6.038-78.03,1.965-110,11-23.28,6.58-41.45,18.959-62,28-65.3,28.733-118.46,62.7-174,99-36.14,23.619-80.97,36-116,61-74.03,52.836-127.82,156.191-149,264,74.16-.544,134.74,13.444,194,28l56,8,45,15c27.72,6.2,54.98,2.254,81,8,79.88,17.638,168.58,33.836,247,51q74.985,14.5,150,29c110.31,31.36,196.86,91.28,240,189,52.23,118.29,57.52,271,85,415,12.65,66.3,17.46,149.06,45,200,21.14,0.14,39.02-3.85,57-7q39-.495,78-1c115.26,0,232.34,7.35,324-19,26.42-7.6,52.51-22.96,76-34q37.5-17.505,75-35c45.09-28.61,89.66-64.06,131-97,25.33-20.19,50.9-40.51,76-60,7.29-5.66,18.35-9.85,23-18,10.97-42.34,7.09-87.36,15-133q7.005-34.5,14-69c4.92-32.83-9.5-103.58,3-125q23.505-2.505,47-5c1.59-15.53-1.18-30.51,6-41,19.74-.85,37.93-9.78,55-14,26.35-6.52,70.16-6.25,92-18,18.08-56.089,123.34-151.753,175-178-0.33-.667-0.67-1.333-1-2-90.1-28.933-136.74-103.552-203-156-113.18-89.586-230.42-181.092-356-257-31.8-19.219-68.05-32.594-103-48-61.44-27.083-121.19-67.02-200-75l-27,1-201-1-77-1-89-2-193-30C6310.38,282.091,6271.98,270.111,6226,270Z"/>
  <path id="borders_area09" class="border_default" d="M5234,1880c-0.65-35.64-13.61-72.24-21-104-9.02-38.74-9.49-81.13-21-116,5.36-9.54,18.03-18.01,26-22q7.005,31.995,14,64c14.77,72.88,23.93,139.92,40,208-165.33,4.7-276.32-46.32-395-93-97.43-38.32-198.14-67.23-301-98l-109-24c-67.49-17.82-139.14-29.79-213-42l-104-3c-47.85-5.69-108.09-3.81-153,1q-121.995,1.995-244,4c6.75-49.81,28.09-94.77,39-140q13.5-75.495,27-151,24-93.99,48-188,8.505-57.99,17-116c25.4-117.686,38.37-244.011,4-368-11.38-41.072-38.29-70.433-57-105,30.76-2.821,59.88-19.391,84-30,39.91-17.556,66.55-41.845,99-65l67-43c14.59-11.515,24.92-28.718,40-40,9.36-7,20.71-9.5,31-16,16.43-10.381,31.46-24.823,50-33,60.82-26.821,147.77-20.908,221-34l138-21,146-1c46.64-7.368,97.4-7.992,149-8h47q33.99,10.5,68,21l42,3,57,14c85.16,25.789,245.19,28.169,280,100,14.45,29.815-.5,63.6-8,87-19.59,61.106-54.95,110.522-72,173-10.18,37.293-13.38,75.932-20,117-6.46,40.075,4.9,71.983-3,110q-26.49,155.49-53,311-1.005,37.995-2,76c-6.88,43.93.01,99.47,1,142q-13.995,5.505-28,11c-1.76-45.79-9.67-105.81-2-154q1.5-43.995,3-88c16.84-101.07,33.42-204.75,53-307,6.72-35.113-3.98-65.277,2-102,6.02-36.956,8.57-72.392,17-106,16.6-66.177,46.94-118.028,71-177,7.03-17.227,26.95-50.176,16-75-21.17-48.008-97.31-52.753-157-65l-151-37-41-3c-28.57-4.914-51.13-16.24-77-22h-45c-50.37,0-100.15.678-146,8l-143,1-139,21c-54.28,9.781-108.02,10.016-160,20l-42,7c-33.21,13.666-63.07,37.56-93,57q-16.5,17-33,34-36.99,24-74,48c-40.02,30.247-86.08,71.331-144,82,5.06,21.88,27.51,44.921,36,69,14.51,41.151,16.08,92.615,24,139q0.495,30,1,60c0.01,85.364-13.5,143.47-28,213q-6.495,46.5-13,93c-15.59,66.62-33.58,132.4-50,197q-13.5,75.99-27,152c-8.76,30.35-20.19,60.88-28,94h2q86.985-1.005,174-2,35.49-.495,71-1,28.995-.495,58-1,35.49,1.005,71,2,37.5,1.005,75,2c32.97,5.28,63.15,5.53,97,13q106.485,23.505,213,47c113.06,33.63,220.76,66.11,328,105C4990.53,1823.64,5091.71,1879.59,5234,1880Z"/>
  <path id="borders_area10" class="border_default" d="M3854,580c19.66,8.437,28.9,31.686,40,49,40.28,62.828,64.07,250.536,40,353-10.54,44.87-17.81,96.08-28,143q-3,25.995-6,52c-15.58,66.62-33.63,132.39-50,197q-13.5,75.99-27,152-17.505,56.49-35,113c-13.67,53.99-14.66,107.18-26,166q-10.5,49.995-21,100l-6,63c-18.98,99.19-18.28,206.45-32,311-230.64,52.72-574.2,52.84-782-21-97.54-34.66-172.84-106.48-247-166-41.17-33.05-81.55-65.2-113-108l-13-16q0.495-22.005,1-44c-3.17-34.66,7.57-70.96,13-102q1.995-33,4-66c8.85-54.89,8.38-106.69,22-155,17.78-63.06,49.68-122.08,69-183,25.52-80.45,44.88-160.64,84-227,21.14-35.86,50.37-65.73,75-98,77.12-101.036,172.65-197.942,290-258,58.56-29.972,127.14-44.3,190-69,48.8-19.178,102.2-37.785,151-59,39.24-17.057,77.7-37.5,119-54,35.62-14.229,72.82-17.283,116-28q33.99-9.5,68-19C3780.34,599.259,3832.25,595.315,3854,580Zm-11,34-51,13c-36.02,9.131-72.13,19.619-107,27-27.19,5.755-52.7,5.508-77,14-66.47,23.231-125.08,56.617-189,82l-224,84c-29.38,11.136-56.47,15.168-81,30-111.1,67.187-203.43,149.56-279,252-33.5,45.41-72.62,86.72-96,143q-22.995,65.49-46,131l-9,39c-24.14,64.19-54.69,127.24-72,197-12.01,48.41-9.41,97.58-18,152-7.2,45.61-8.09,82.44-15,126q-1.005,25.5-2,51,13.995,15,28,30c30.85,38.44,72.12,65.64,108,99,21.45,19.94,45.87,34.33,70,52,44.61,32.66,89.63,67.75,145,90,77.71,31.23,178.17,38.82,270,54,63.88,10.56,109.87-5.94,180,3,28.54,3.64,68.22,1.22,103-5,39.61-7.09,77.51-7.88,114-14,28.69-4.81,56.38,1.52,78-9-0.57-50.24,7.02-109.22,15-155q4.005-48.99,8-98c5.37-30.77,5.56-63.7,12-97l21-99c9.36-44.62,7.46-87.34,18-129q13.995-55.995,28-112,8.505-24.99,17-50,13.5-75.495,27-151,24-93.99,48-188c6.37-25.08,7.28-54.47,12-78,23.06-114.871,42.42-220.517,20-341-10.02-53.86-19.52-114.4-53-143h-3Z"/>
  <path id="borders_area11" class="border_default" d="M4493,3373c-154.7,2.85-261.89-39.42-368-86-190.21-83.49-336.08-226.86-405-431-19.5-57.76-26.13-125.62-37-191l-3-81c-16.81-105.14-10.87-193.76-11-294q-10.5,2.505-21,5-27.495,1.005-55,2c-46.19,8.28-98.86,11.01-147,19q-73.995-.495-148-1c-85.86-.85-156.69-8.54-226-23-64.73-13.5-120.62-20.06-173-43-97.11-42.52-174.61-115.46-253-178-14.41-11.49-35.17-26.83-47-41-6.93-8.3-13.23-20.81-23-26v186q3.495,49.995,7,100,5.505,49.5,11,99h-29q-5.505-48-11-96-3.495-51-7-102,1.005-130.98,2-262c28.84,21.64,47.78,52.77,73,78,48.37,48.39,105.11,88.09,161,129,41.24,30.18,82.99,63.35,133,85,52.25,22.62,110.03,27.29,174,41,34.34,7.36,70.91,11.96,108,18q48,1.005,96,2,40.995,0.495,82,1c60.05,4.22,145.22-5.51,211-18q24.99-1.005,50-2,33.99-7.005,68-14c-0.82,112.77-8.47,237.16,8,338l3,81c10,59.28,17.36,121.54,34,175,82.27,264.37,350.37,454.92,656,497,42.96,5.92,90.1-2.8,128-4-6.52,47.21-21.59,89.16-34,130-39.93,131.43-81.78,243.88-148,346-71.55.25-119.94,8.2-185-2-41.04-6.44-78.68,2.84-116-3-56.62-8.87-122.13,3.29-175-5h-63c-58.79,0-128.77,3.81-183-5-57.81-9.39-126.43-4.89-187-15-73.08-12.2-147.03-20.87-222-34l-106-9q-91.995.495-184,1c-96.4-.01-191.41-3.12-273,12-27.42,5.08-52.36,4.22-77,12q-26.49,13.005-53,26c2.89-21.37,11.19-43.55,17-62q11.505-49.5,23-99c15.21-46.63,39.17-88.29,57-132,12.55-30.75,16.75-64.65,27-99q14.505-45,29-90c29.55-121.55,3.94-256.98-17-368q-3.495-40.995-7-82-18.495-100.485-37-201-10.005-48.99-20-98a65.657,65.657,0,0,1,32,7q11.505,55.995,23,112,14.505,82.485,29,165,7.005,64.5,14,129c6.15,28.19,8.44,59.71,15,90,8.43,38.92,18.36,95.77,10,144q-6.495,52.5-13,105c-7.08,32.38-19.81,61.12-29,91q-9,37.995-18,76c-17.26,49.55-42.76,94.68-62,142q-14.505,56.49-29,113c44.98-6.97,99.07-16.27,147-24q125.985-1.005,252-2c61.33,0,131.25-7.46,189,2q69.99,7.995,140,16c60.76,11,123.6,18.65,188,29q28.5,0.495,57,1l125,12,73,3h140c42.66,6.66,93.23-.32,141,4,94.56,8.55,200.9,5.99,311,6,18.68-38.61,43.73-74.93,62-115,29.53-64.77,48.75-131.74,71-205C4476.38,3432.41,4489.97,3404.14,4493,3373Z"/>
  <path id="borders_area12" class="border_default" d="M5212,2264c76.76-1.4,128.79,11.72,175,40,4.44,32.64,23.37,58.43,37,83,13.87,25,22.44,51.29,37,75l75,111c59.02,93.65,96.26,218.75,109,357q-13.995,6.495-28,13c-0.34-79.26-26.63-166.61-49-228-10.81-29.68-17.05-60.44-32-86q-51.495-78.495-103-157-18.495-37.5-37-75-11.505-20.505-23-41-6.495-16.995-13-34c-42.91-9.26-80.15-30.69-134-25q-54,2.505-108,5c-47.81,8.24-92.72,18.97-133,33q-20.505,4.995-41,10c-89.66,43.31-169.45,110.86-217,197-14.26,25.83-18.7,54.51-28,85-12.16,39.89-22.72,80.16-34,125q-28.995,118.485-58,237c-17.44,74.43-16.71,149.28-38,219-31.57,103.38-50.46,224.82-87,326-17.75,49.16-34.27,102.21-57,148l-52,98c277.03-2.67,559.21,43.37,809,101q38.49,5.505,77,11,101.49,18,203,36c87.52,18.08,176.56,29.99,283,30,37.04,0,73.23.5,105-5,31.73-5.49,75.7.28,102-13l-3-3-48-75c-20-34.17-32.42-70.88-49-109q-19.995-42.495-40-85c-24.32-57.41-41.39-122-58-187q-10.5-45.99-21-92c-18.22-56.27-35.58-115.59-54-176q-10.5-36.495-21-73c5.17-8.11,13.61-17.16,22-22h1q11.505,37.995,23,76,12.495,46.995,25,94l27,75q24.495,100.485,49,201c25.05,80.54,60.01,152.54,93,228q26.49,48.495,53,97l48,69-27,12c-41.32,14.18-92.1,9.52-139,17-48.69,7.76-123.06,9.23-172,1q-45-4.005-90-8c-74.36-14.28-149.01-25.55-221-40q-80.985-12.495-162-25c-166.66-36.8-340.83-62.54-516-93q-28.995-1.005-58-2l-67-6q-116.985-1.005-234-2l5-5q20.505-33.495,41-67,27.495-57,55-114c23.6-55.67,37.25-111.79,56-173q11.505-37.5,23-75,10.995-54.495,22-109,14.505-49.5,29-99c13.92-59.18,16.43-119.21,30-181q23.505-93.99,47-188,9.495-46.995,19-94c26.29-95.46,53.71-186.34,107-254,19.22-24.4,45.12-43.17,70-62,35.37-26.78,73.69-58.95,117-77q63.99-18,128-36c34.73-7.51,71.49-4.73,110-11Z"/>
  <path id="borders_area13" class="border_default" d="M7414,1429l1,85c-0.67,1.33-1.33,2.67-2,4q-9,2.505-18,5-4.995,65.49-10,131,17.505,36.495,35,73c7.17,11.15,21.59,16.08,26,31-58.45,44.9-86.52,131.89-103,218q-5.505,66.495-11,133-2.505,73.995-5,148-3,135.48-6,271-2.505,99.99-5,200c-7.25,72.34,2.35,153.98,13,218,11.11,66.82,7.92,131.53,21,194,15.29,73.03,33.87,156.18,59,223q12,27.99,24,56c-51-29.68-114.61-44.35-177-63-80.81-24.16-206.35-14.84-292,4-56.99,12.54-115.56,18.79-164,40-67.99,29.76-123.06,80.02-179,122-78.06,58.58-148.54,124.76-227,184-56.15,42.4-113.28,83.82-173,124-35.39,23.81-56.49,51.27-117,51q-30.495-58.5-61-117l-85-261c-51.17-130.75-102.01-265.08-130-421,12.86,6.12,30.03,18.25,37,30q6,31.995,12,64c8.48,36.39,17.95,71.42,30,105q22.005,65.49,44,131,19.995,48.99,40,98,36,111.99,72,224c16.09,41.43,42.12,73.81,55,116,5.75-2.35,13.06-.82,19-3,22.11-8.12,41.35-27.4,60-40,27.36-18.48,54.62-36.28,81-55,100.13-71.04,190.1-148.92,285-224,72.78-57.58,142.73-123,234-162,29.07-12.42,62.07-14.27,95-24,61.86-18.27,133.05-23.51,204-29,29.35-2.27,65.21-10.61,99-5,62.85,10.43,119.89,37.51,179,49v-1c-21.94-67.49-40.01-138.34-56-211-14.39-65.41-10-134.03-22-204-9.5-55.43-21.83-127.45-13-187q1.005-40.995,2-82,1.995-74.985,4-150,1.995-84.99,4-170c7.73-99.6-3.31-199.13,11-289q4.005-49.5,8-99c15.89-71.58,36.58-140.04,73-192q13.995-14.505,28-29c-15.35-28.13-42.9-52.85-50-88q4.005-41.49,8-83c7.03-43.34-10.05-49.72,23-72q0.495-7.005,1-14h-1c-11.85,6.71-19.75,17.89-30,26-25.22,19.95-50.62,41.43-76,60-79.19,57.93-163.93,110.07-264,147q-29.49,6.495-59,13h-25c-62.75,11.83-120.07,8-196,8H6627l-72,9q-19.005,53.49-38,107c-39.57,158.05-63.96,324.51-137,450-33.72,57.94-72.15,112.35-113,163-33.67,41.75-83.94,75.62-128,107-103.44,73.67-213.53,148.88-338,201,6.68,45.38,22.55,89.53,28,137h-1c-7.07-2.54-25.82-5.07-30-11q-15.495-70.995-31-142c23.78-9.27,48.58-28.83,72-41,42.79-22.24,86.77-39.44,127-64q24.99-17.505,50-35c58.18-38.1,111.36-77.81,165-119,22.28-17.1,46.52-35.23,64-57a1027.809,1027.809,0,0,0,71-100c20.25-32.33,43.05-65.03,59-102,44.67-103.56,73.2-225.44,101-344,10.67-45.52,20.36-83.28,34-122,3.06-8.69,10.66-40.63,16-45,30.83-25.25,93.83-24.01,149-24,87.05,0.01,185.94,7.74,259-8q16.5-.495,33-1c139.82-29.14,235.19-108.78,332-181,25.86-19.29,49.68-40.37,75-59Q7394,1444,7414,1429Z"/>
  <path id="borders_area14" class="border_default" d="M5378,773c87.56-1.348,157.21,11.267,225,28l56,8,45,15c27.71,6.221,54.98,2.232,81,8,79.87,17.707,168.59,33.737,247,51q74.985,14.5,150,29c64.88,18.473,115.29,45.347,161,82,81.17,65.1,107,176.52,133,298q9.495,81.495,19,163c12.1,66.78,20.06,140.05,38,203,5.46,19.17,26.62,69.32,22,93q-4.995,10.5-10,21-13.995,42-28,84c-40,158-63.76,324.48-137,450-31.25,53.56-66.27,105.7-104,153-21.6,27.08-50.39,49.8-78,71-69.88,53.64-141.57,109.93-219,156-65.09,38.73-140.41,65.66-204,106-45.98-202.23-192.28-328.64-267-511-20.85-50.88-27.34-108.76-46-164-20.84-61.7-46.05-119.76-62-189-9.26-40.2-5-80.54-12-124s-12.82-86.12-21-125c-4.97-23.66-4.96-47.56-12-68l1-1c40.79,20.51,31.46,38.4,44,85,22.12,82.22,14.77,192.53,39,273,14.26,47.36,35.7,92.26,50,138q9.495,39.99,19,80a1134.813,1134.813,0,0,0,50,136c44.89,101.2,118.31,182.55,170,278q19.995,36.495,40,73,12.495,35.49,25,71c99.11-45.67,191.44-98.36,276-158,122.97-86.73,212.78-161.71,285-300,45.98-88.05,69.06-188.24,98-295,15.59-57.5,24.49-127.66,46-183,5.09-13.09,28.35-61.66,25-76q-13.995-45.495-28-91-15.495-86.49-31-173-10.005-84.99-20-170c-22.04-108.76-42.43-183.44-99-256-68.75-88.172-194.08-99.255-324-128-74.86-16.562-160.71-31.187-237-49l-86-9-36-13-60-9-98-23-100-6v2c-7.32,17.071-5.23,38.7-9,59-7.3,39.306-10.07,78.44-18,120q-13.005,100.995-26,202-1.5,26.49-3,53c-5.2,32.78-12.93,75.67-7,113l12,87-31-9c-2.09-36.93-16.86-75.44-10-120q7.005-81.99,14-164,10.005-78.99,20-158Q5362.005,881.511,5378,773Z"/>
  <path id="borders_area15" class="border_default" d="M4076,1615c79.52,5.04,185.07-.24,267,18,116.95,26.03,240.34,48.39,348,86q97.995,33.495,196,67c59.27,23.37,120.28,48.65,183,68,40.32,12.44,86.26,17.25,132,25,24.74,4.19,43.47-.43,64,6,6.39,40.92,23.53,79.34,36,115,15,42.89,25.05,87.32,38,129,19.77,63.62,29.41,137.25,54,198q-24.495-4.005-49-8c-23.2-7.07-48.65-18-75-23-28.36-5.39-61.04-.05-86,4q-27.99.495-56,1c-33.97,3-68.97,11.35-98,20q-42.99,12-86,24c-62.07,30.01-145.24,88.65-183,143-43.12,62.06-67.83,145.89-90,229q-9.495,46.995-19,94-22.5,88.995-45,178-4.5,35.49-9,71Q4583.5,3134,4569,3208c-15.45,50.73-35.59,106.58-42,166h-9q-46.995-.495-94-1c-48.93-5.97-98.37-12.11-144-26-277.72-84.56-489.43-243.76-570-525-15.66-54.67-18.59-111.59-28-171-6.13-38.68-1.17-80.45-7-116q-1.995-39.99-4-80c-4.93-31.6-1.62-56.99-2-84-0.65-46.51.97-114.03,9-163q0.495-22.005,1-44c6.87-43.43,6.27-87.49,14-134,6.88-41.37,6.75-82.02,15-125q11.505-57,23-114c7.94-45.03,10.46-86.22,20-126q4.5-20.505,9-41c10.16-8.05,65.81-4,87-4Q3961.5,1617.5,4076,1615Zm-20,33q-94.485,2.505-189,5c-17.84,2.2-71.67-5.43-81,3-19.24,42.56-14.2,98.44-24,149q-11.505,57-23,114c-9.75,53.36-6.93,101.19-16,156-24.16,145.99-34.35,362.93-10,512l3,81c10.21,60.51,15.62,128.14,36,181,51.41,133.31,124.39,235.23,229,315,103.04,78.57,221.46,128.97,369,165,35.12,8.58,64.98,10.99,109,11,13.06,0,36.73,3.16,41-2q8.505-38.49,17-77c13.16-45.66,26.68-95.09,38-146,9.36-42.09,9.55-83.07,19-126q23.505-93.99,47-188c17.07-61.54,25.99-121.46,45-177,12.58-36.74,16.95-73.9,36-104,50.31-79.46,102.12-126.33,182-176q24.99-15,50-30,41.49-11.505,83-23c89.93-26.38,244.93-41.69,333-5-4.59-40.83-19.67-83.47-31-120-26.68-86.03-48.8-169.33-76-254-114.73,2.56-205.58-31.49-287-65q-69.495-25.5-139-51c-171.2-66.87-360.3-108.57-563-143q-35.49-1.005-71-2C4144.84,1644.83,4100.03,1647.99,4056,1648Z"/>
</svg>
