<svg xmlns="http://www.w3.org/2000/svg" width="9070px" height="6200px" viewBox="0 0 9070 6200">
  <defs>
    <style>
      .cls-1 {
        fill: #fff;
        fill-rule: evenodd;
      }
    </style>
  </defs>
  <path id="Фігура_1" class="cls-1" d="M4670,424c5.3-.084,8.02.525,11,2v3c-0.33.333-.67,0.667-1,1l-18,1q0.495,15,1,30c11.09-.33,16.66,2.042,23,6,2.19,6.384,6.95,18.81,3,28l-6,8h-23q-1.995-38.5-4-77Zm-117,1,13,4c4.85,8.073,9.78,14.41,7,28a33.273,33.273,0,0,1-15,12q-0.495,17.5-1,35h-3c-0.33-.333-0.67-0.667-1-1V425Zm53,74c9.84-.212,16.49-1.213,24,1v3l-4,1-26-1q-1.005-39-2-78l34,2v1c-0.67,1.333-1.33,2.667-2,4h-1c-6.31-1.581-16.71-3.094-24-1v18l19,2c-0.33,1.666-.67,3.334-1,5l-19-2Q4605.005,476.5,4606,499Zm108-74,13,4c4.85,8.073,9.78,14.41,7,28a33.273,33.273,0,0,1-15,12q-0.495,17.5-1,35h-3c-0.33-.333-0.67-0.667-1-1V425Zm84,0c65.85-2.4,51.72,93.66-15,79-27.6-6.064-40.19-41.667-18-64C4773.99,430.948,4784.79,430.515,4798,425Zm3,4c-24.36,13-59.05,21.907-34,62,22.73,8.266,53.85,10.748,67-11C4849.89,453.727,4822.49,430.074,4801,429Zm-243,3q-0.495,16-1,32c8.46-1.731,13.06-7.614,13-18C4567.69,438.994,4565.24,434.077,4558,432Zm161,0q-0.495,16-1,32c8.46-1.731,13.06-7.614,13-18C4728.69,438.994,4726.24,434.077,4719,432Zm2422,20,6,1c-1.08,9.853-6.31,13.931-11,20-0.67-.667-1.33-1.333-2-2Q7137.5,461.5,7141,452Zm-86,36c35.21-1.372,37.27,50.412-5,48v-2c-3.19-7.809-2.34-76.077-1-79h3C7055.14,462.055,7054.98,477.333,7055,488Zm-354-32,5,1v26l3-2c2.96-6.867,11.39-20.634,19-23,0.33,0.667.67,1.333,1,2l-24,32q12,20,24,40c-0.67,1.333-1.33,2.667-2,4l-3-1q-10.005-17.5-20-35-0.495,19-1,38h-1c-1.33-.667-2.67-1.333-4-2q1.005-17,2-34c-0.67.333-1.33,0.667-2,1l-18,33h-4c-0.33-.333-0.67-0.667-1-1v-1q12.495-21,25-42c-4.34-12.589-18.55-19.671-22-34h4l18,26Q6700.5,470,6701,456Zm421,0c1.67,0.667,3.33,1.333,5,2q0.495,26.5,1,53v-2q13.005-26,26-52c3.02,1.259,1.2-.018,3,2v77c-10.49-4.4-1-50.044-6-63v2c-12.39,16.772-21.18,39.5-25,61C7121.62,534.265,7119.02,462.453,7122,456Zm-604,1c1.33,0.667,2.67,1.333,4,2v30q14.505-15,29-30c1.33,0.667,2.67,1.333,4,2-8.13,10.54-25.34,19.07-29,33,12.97,10.176,24.18,25.846,32,41-0.33.667-.67,1.333-1,2-10.2-3.551-23.8-32.473-35-41,0.49,10.9,2.5,36.738-5,40v-2Q6517.5,495.5,6518,457Zm97,0c70.49-2.567,49.41,97.985-19,78-24.96-7.292-34.2-42.666-14-63C6590.99,462.948,6601.79,462.515,6615,457Zm142,74c9.84-.212,16.49-1.213,24,1v3c-0.33.333-.67,0.667-1,1l-29-1q-1.005-39-2-78l34,2v1l-3,4c-5.73-2.064-17.13-3.017-24-1v18l19,2c-0.33,1.666-.67,3.334-1,5l-19-2Q6756.005,508.5,6757,531Zm49-74,11,2c14,10.144,10.9,24.624,4,38,7.94,2.222,17.29,12.653,12,24-3.32,9.285-12.84,17.919-26,14Q6806.505,496,6806,457Zm60,74c9.84-.212,16.49-1.213,24,1v3c-0.33.333-.67,0.667-1,1l-29-1q-1.005-39-2-78l34,2v1l-3,4c-5.73-2.064-17.13-3.017-24-1v18l19,2c-0.33,1.666-.67,3.334-1,5l-19-2Q6865.005,508.5,6866,531Zm50-74,5,1c0.24,7.888-1.03,18.611,2,25l25,5c-2.41-8.4-2.78-22.123-1-31h4c0.67,0.667,1.33,1.333,2,2-0.2,21.178,3.1,58.929,0,77l-4-1q-0.495-20-1-40c-7.33-3.492-14.61-6.3-25-7-0.33.333-.67,0.667-1,1q1.5,24,3,48c-1.67-.333-3.33-0.667-5-1C6919.98,510.826,6911.77,474.838,6916,457Zm66,0,5,1c0.48,7.9-.97,18.674,2,25l24,5V457h4c0.67,0.667,1.33,1.333,2,2-0.27,24.28,2.6,54.116,0,77l-4-1q-0.495-20-1-40a70.533,70.533,0,0,0-25-7c-0.33.333-.67,0.667-1,1q1.5,24,3,48c-1.67-.333-3.33-0.667-5-1C6985.98,510.826,6977.77,474.838,6982,457Zm104,1c4.46,3.4,7.71,68.294,6,77-1.67-.333-3.33-0.667-5-1-0.33-1-.67-2-1-3C7091.96,507.779,7078.99,476.742,7086,458Zm-468,3c-24.04,12.832-59.66,20.923-34,62,22.73,8.265,53.85,10.749,67-11C6666.93,485.658,6639.48,462.075,6618,461Zm194,2q-0.495,16.5-1,33c6.22-1.321,9.72-4.845,12-10C6826.53,474.555,6819.9,466.418,6812,463Zm-2147,3c-3.21,5.521-2.33,25.178,0,33,21.54,0.652,24.75-14.6,14-30Zm2390,65,13-2c4.51-5.739,7.85-7.241,8-18-3.76-11.913-6.49-14.61-19-18-0.67.667-1.33,1.333-2,2v36Zm-240-31-3,1v30q7.995-4,16-8C6831.47,510.235,6827.07,502.8,6815,500Zm-784,39c40.41-1.373,68.24,14.318,61,56-2.79,16.09-4.4,25.284-15,33l3,4c45.29,20.615,22.28,94.881-21,103-73.14,13.721-84.56-68.44-49-106C5983.36,595.394,6000.32,554.512,6031,539Zm5,17c-29.89,17.895-28.22,80.664,20,63C6089.63,606.68,6082.01,553.962,6036,556Zm-6,80c-9.66,7.91-18.86,14.577-23,28-9.64,31.26,19.26,65.937,52,53C6108.34,697.5,6088.57,634.027,6030,636ZM3613,760l9,1c1.33,0.667,2.67,1.333,4,2,0.6,44.92-4.99,89.66-12,132-3.37,20.32,1.44,47.016-7,61h-1l-12-1c-0.33-1-.67-2-1-3-4.46-11.164,1.1-35.14,3-47q5.505-56.495,11-113-19.005,19-38,38l-10-1c-0.33-1-.67-2-1-3-0.33-2.333-.67-4.667-1-7C3567.8,797.926,3594.63,774.214,3613,760Zm119,0c57.51-1.315,66.01,42.248,57,95-7.6,44.466.37,93.222-41,102-29.03,6.16-41.96-21.732-49-39-14.56-35.7-15.74-116.039,6-145C3711.31,764.6,3721.41,764.463,3732,760Zm1,15c-43.29,26.946-36.39,148.015,12,163C3778.85,924.222,3795.84,775.047,3733,775Zm-469,307c-1,2.67-2,5.33-3,8-31.09,13.28-54.8-.53-60-31-4.87-28.54,31.05-51.91,55-37v3l-2,2c-51.59-7.43-62.4,44.97-31,59C3238.52,1093.3,3251.3,1084.07,3264,1082Zm31-41q9.495,1.005,19,2c-0.33,1.67-.67,3.33-1,5q-9.495-1.005-19-2,1.005,22.5,2,45c9.84-.21,16.49-1.21,24,1v3c-0.67.33-1.33,0.67-2,1q-13.995-.495-28-1-1.005-39-2-78,16.995,1,34,2v1c-0.67,1.33-1.33,2.67-2,4h-1c-6.31-1.58-16.71-3.09-24-1v18Zm72-24c4.53,0.86,2.98-.12,5,3,11.84,20.44,22.78,51.03,27,76-7.74,3.63-51.16,1.13-62-1C3340.12,1066.41,3358.36,1042.6,3367,1017Zm64,0h3c8.55,9.26,23.11,63.93,26,79l-1,1c-1.67-.33-3.33-0.67-5-1q-10.005-34.5-20-69c-0.67.33-1.33,0.67-2,1-2.32,10.57-16.65,65.6-23,68v-6Q3420,1053.505,3431,1017Zm87,0c65.8-2.4,51.81,93.68-15,79-28.93-6.35-40.31-45.42-17-65C3495.42,1023.09,3505.13,1022.37,3518,1017Zm3,4c-24.14,12.89-59.47,20.92-34,62,22.78,8.28,53.88,10.69,67-11C3569.89,1045.72,3542.47,1022.06,3521,1021Zm2215,3h3q10.5,13.995,21,28c0.67-.33,1.33-0.67,2-1q6.495-13.5,13-27h1l3,3c-1.21,10.15-30.37,71.25-37,77-0.67-.33-1.33-0.67-2-1-0.33-1-.67-2-1-3,4.54-10.62,19.51-30.58,17-42-4.81-12-14.83-18.43-21-29C5735.33,1027.33,5735.67,1025.67,5736,1024Zm77,0c5.3-.08,8.02.53,11,2v3l-1,1q-9,.495-18,1,0.495,15,1,30c9.98-.35,15.93,1.44,23,6,3.91,11.58,5.47,21.39,1,33-6.81,3.4-17,5.08-27,3q-1.995-38.49-4-77Q5806.005,1024.995,5813,1024Zm45,0c1.67,0.67,3.33,1.33,5,2q0.495,26.49,1,53v-2q13.005-25.995,26-52c3.02,1.26,1.2-.02,3,2v77c-10.49-4.4-1-50.04-6-63v2c-12.45,16.43-21.23,39.74-25,61C5857.61,1102.27,5855,1030.42,5858,1024Zm209,74c-0.27-14.74-5.31-68.38,0-74,1.33,0.33,2.67.67,4,1q1.005,36.495,2,73h21q0.495-36.495,1-73c1.67,0.33,3.33.67,5,1v72c3,0.67,6,1.33,9,2-0.22,8.23-2.83,12.85-6,18h-3l-1-1,3-12c-10.42-.06-52.64-0.59-56-4v-77h3c0.33,0.67.67,1.33,1,2q1.005,36.495,2,73Q6059.5,1098.505,6067,1098Zm65-74c3.83,1.32,2.08,0,4,3q1.005,25.995,2,52v-2q13.005-25.995,26-52c3.02,1.26,1.2-.02,3,2v77c-10.49-4.4-1-50.04-6-63v2c-12.37,16.44-21.37,39.76-25,61C6131.59,1102.25,6129.07,1030.42,6132,1024Zm125,0c1.67,0.67,3.33,1.33,5,2q0.495,26.49,1,53v-2q13.005-25.995,26-52c3.02,1.26,1.2-.02,3,2v77c-10.49-4.4-1-50.04-6-63v2c-12.37,16.75-21.19,39.56-25,61C6256.64,1102.27,6254,1030.43,6257,1024Zm-565,1c4.53,0.86,2.98-.12,5,3,11.83,20.43,22.78,51.03,27,76-7.74,3.63-51.16,1.13-62-1C5664.84,1076.46,5681.24,1047.67,5692,1025Zm244,0c4.53,0.86,2.98-.12,5,3q12,37.995,24,76l-2,2h-1c-12.18-14.65-17.6-51.88-23-71-0.67.33-1.33,0.67-2,1-2.31,10.52-16.73,65.63-23,68v-6Q5925,1061.505,5936,1025Zm58,32c23.7-1.38,39.82,28.88,20,41-3.62,3.54-17.28,10.24-22,3-3.52-8.68-7.42-72.79-6-76h1c3.02,1.26,1.2-.02,3,2Q5992,1042,5994,1057Zm203-32c1.33,0.67,2.67,1.33,4,2v30q14.505-15,29-30c1.33,0.67,2.67,1.33,4,2-8.13,10.54-25.34,19.07-29,33,13.03,10.73,22.73,25.55,32,40-0.33,1-.67,2-1,3-10.07-3.43-23.87-32.52-35-41,0.55,11.7,2.68,36.66-5,40v-2Q6196.5,1063.51,6197,1025Zm-2828,3c-6.57,21.15-19.53,38.79-26,62q24.99,1.995,50,4C3390.24,1073.49,3381.11,1041.07,3369,1028Zm2325,8c-6.6,21.18-20.74,38.36-26,62q24.99,1.995,50,4C5715.24,1081.45,5706.12,1049.09,5694,1036Zm302,63c11.17,0.09,16.94-4.05,20-12a19.007,19.007,0,0,0-12-24h-10Q5995.005,1081,5996,1099Zm-186-33c-1.33.33-2.67,0.67-4,1v9q1.005,11.505,2,23c21.54,0.65,24.75-14.6,14-30ZM4021,1275c110.35-3.12,64.23,79.39,42,130-10.99,25.03-19.69,48.98-35,69q-6-1.005-12-2c-0.33-1-.67-2-1-3-5.26-13.48,39.28-76.83,45-96h-1c-46.19,18.23-86.51-20.89-70-68C3994.67,1288.83,4007,1283.01,4021,1275Zm8,18c-54.98,26.31-13.11,87.19,32,61C4093.62,1335.06,4076.38,1291.15,4029,1293Zm2635,493c3.33,0.33,6.67.67,10,1,1.33,0.67,2.67,1.33,4,2,0.6,45.17-4.99,89.49-12,132-3.37,20.46,1.01,46.61-7,61q-6.495-.495-13-1c-0.33-1-.67-2-1-3-4.47-11.17,1.09-35.05,3-47q5.505-56.49,11-113l-38,38c-3.33-.33-6.67-0.67-10-1-0.33-1-.67-2-1-3-0.33-2.33-.67-4.67-1-7C6620.52,1822.59,6646.42,1803.33,6664,1786Zm104,0c34.24-1.14,70.89,23.31,51,61q-7.005,7.5-14,15c37.12,13.34,33.76,76.38,12,103-7.1,8.69-18.29,11.61-31,15-8.03,2.14-17.55,4.46-25,0v-1c-0.01-6.33.86-7.58,3-11,13.33-2.94,27.73-4.94,37-12,16.13-12.28,23.14-54.8,6-72-8.8-8.83-29.02-5.08-34-11-0.33-3.33-.67-6.67-1-10,19.66-9.78,53.97-37.51,19-58-13.27-7.77-29.87,5.36-43,0-0.21-8.08,1.06-9.83,4-14Q6760,1788.5,6768,1786Zm-2796,21c10.52,3.69,15.45,23.72,22,32,0.33-.67.67-1.33,1-2,7.64-7.71,10.3-24.78,22-28v4q-10.005,15.495-20,31c2.99,11.58,26.57,33.48,20,44q-11.505-19.005-23-38c-1.33,1-2.67,2-4,3q-9.495,17.505-19,35c-2.78-2.26-2.41-1.11-3-6q11.505-19.005,23-38C3985.9,1833.69,3970.95,1817.46,3972,1807Zm253,10c0.22,15.35-.29,60.06-6,71-4.53-.86-2.98.12-5-3-5.29-16.16,5.4-48.55,3-69q-12-1.005-24-2c-0.33-1-.67-2-1-3,1.6-2.7.34-1.38,3-3q30,1.995,60,4v4c-0.33.67-.67,1.33-1,2Q4239.5,1817.505,4225,1817Zm-69-9c5.3-.08,8.02.53,11,2v3l-1,1q-9,.495-18,1,0.495,15,1,30c11.09-.33,16.66,2.04,23,6,3.54,9.83,9.18,27.85-2,34-4.64,3.97-16.8,3.63-24,2q-1.995-38.49-4-77Q4149.005,1809,4156,1808Zm227,0c22.88,7.19,22.84,22.06,13,41,9.92,2.33,13.62,10.01,13,23-5.27,10.78-10.47,13.25-23,17-1-.33-2-0.67-3-1C4380.04,1877.33,4379.51,1814.31,4383,1808Zm-344,1c15.55,1.28,24.06,14.44,20,32a34.861,34.861,0,0,1-15,12q-0.495,17.505-1,35h-3l-1-1v-78Zm53,74c9.84-.21,16.49-1.21,24,1v3c-0.67.33-1.33,0.67-2,1q-13.995-.495-28-1-1.005-39-2-78,16.995,1.005,34,2v1c-1,1.33-2,2.67-3,4-5.73-2.06-17.13-3.02-24-1v18q9.495,1.005,19,2c-0.33,1.67-.67,3.33-1,5q-9.495-1.005-19-2Q4091.005,1860.5,4092,1883Zm221-74c70.48-2.57,49.49,97.98-19,78-24.95-7.28-34.88-45.62-13-64C4290.42,1815.09,4300.13,1814.37,4313,1809Zm120,0c1.67,0.33,3.33.67,5,1v31q14.505-15,29-30c1.33,0.33,2.67.67,4,1v3c-9.14,5.17-26.23,20-29,31,12.97,10.18,24.18,25.85,32,41-0.33.67-.67,1.33-1,2-10.36-3.61-23.76-32.44-35-41,0.49,11,2.58,36.71-5,40v-79Zm78,39q-8.505.495-17,1-2.505,19.5-5,39h-1c-3.83-1.32-2.08,0-4-3-4.09-12.5,13.39-66.01,19-76,2,0.67,4,1.33,6,2,2.77,11.54,15.38,70.07,7,79-1-.33-2-0.67-3-1Q4512,1868.5,4511,1848Zm-195-35c-24.14,12.89-59.47,20.92-34,62,22.69,8.25,53.84,10.78,67-11C4364.88,1837.7,4337.48,1814.07,4316,1813Zm-272,3q-0.495,16.005-1,32c6.22-1.32,9.72-4.85,12-10,1.55-5.29.3-10.32-1-15C4050.29,1820.05,4049.42,1817.59,4044,1816Zm343,0q-0.495,16.005-1,32c8.78-1.76,13.3-8,13-19-2.22-5.57-4.65-9.63-9-13h-3Zm117,3q-4.005,12-8,24h14v-1Q4507,1830.5,4504,1819Zm-354,31q0.495,16.5,1,33h1c22.22-.44,22.75-16.08,13-30Zm241,2c-1.33.33-2.67,0.67-4,1v29h3q6.495-3.495,13-7c1.5-6.27,1.49-9.51,0-16Q4397,1855.505,4391,1852Zm595,132c3.33,0.33,6.67.67,10,1,1.33,0.67,2.67,1.33,4,2,0.61,45.36-4.88,90.21-12,133-3.31,19.91,1.29,46.27-7,60h-1q-6-.495-12-1c-0.33-1-.67-2-1-3-4.46-11.16,1.1-35.14,3-47q5.505-56.49,11-113l-38,38c-3.33-.33-6.67-0.67-10-1-0.33-1-.67-2-1-3-0.33-2.33-.67-4.67-1-7C4942.46,2020.69,4968.38,2001.13,4986,1984Zm104,16v55c119.42-2.88,78.82,142.71-10,125l-5-5c0.67-3.33,1.33-6.67,2-10q19.005-2.505,38-5c25.25-10.51,45.2-56.31,17-79-15.9-12.8-35.83-3.9-57-7-0.33-1-.67-2-1-3q0.495-42.99,1-86c13.88-3.85,71.35-2.93,82,2,1.08,5,.9,9.17-1,13C5137.24,2004.6,5112.74,2000.18,5090,2000Zm1530,96c1.67,0.33,3.33.67,5,1v26c0.67-.33,1.33-0.67,2-1,3.01-6.85,12.39-21.62,20-24,0.33,0.67.67,1.33,1,2l-24,33,24,39c-0.67,1.33-1.33,2.67-2,4-1-.33-2-0.67-3-1q-10.005-17.505-20-35-0.495,19.005-1,38h-1c-1.33-.67-2.67-1.33-4-2q0.495-16.5,1-33h-1l-18,33h-4l-1-1v-1q12.495-21,25-42c-4.34-12.59-18.55-19.67-22-34h4q9,13.005,18,26Q6619.5,2110.005,6620,2096Zm49,0c1.67,0.67,3.33,1.33,5,2q0.495,26.49,1,53v-2q13.005-25.995,26-52c3.02,1.26,1.2-.02,3,2,1.98,4.81.73,73.28-2,77l-3-3c2.73-10.29,4.31-48.35-1-60v2c-12.37,16.44-21.37,39.74-25,61C6668.64,2174.27,6666,2102.43,6669,2096Zm254,0c1.67,0.67,3.33,1.33,5,2q0.495,26.49,1,53v-2q13.005-25.995,26-52c3.02,1.26,1.2-.02,3,2,1.98,4.81.73,73.28-2,77l-3-3c2.79-10.61,4.22-48.01-1-60v2c-12.31,16.66-21.34,39.61-25,61C6922.64,2174.27,6920,2102.43,6923,2096Zm126,0c1.67,0.67,3.33,1.33,5,2q0.495,26.49,1,53v-2c11.36-14.58,15.25-35.64,25-52,1.67,0.33,3.33.67,5,1q-0.495,39-1,78c-10.52-4.38-1.1-50.01-6-63v2c-12.37,16.75-21.19,39.57-25,61C7048.64,2174.27,7046,2102.43,7049,2096Zm-302,1c4.53,0.86,2.98-.12,5,3l24,75c-0.33.67-.67,1.33-1,2-1.67-.33-3.33-0.67-5-1q-10.005-34.5-20-69c-0.67.33-1.33,0.67-2,1-2.36,10.48-16.72,65.62-23,68v-6Q6736,2133.505,6747,2097Zm58,32c37.06-1.89,35.89,48.17,0,47-0.67-1-1.33-2-2-3-3.53-8.75-7.49-72.63-6-76h1c3.02,1.26,1.2-.02,3,2Q6803,2114,6805,2129Zm52-32c1.67,0.33,3.33.67,5,1,0.48,7.9-.97,18.67,2,25q12,2.505,24,5v-31h4l2,2c-0.21,22.38,3.34,57.01,0,77-1.33-.33-2.67-0.67-4-1q-0.495-19.995-1-40c-7.58-3.64-14.91-6.51-26-7v1l3,48c-1.67-.33-3.33-0.67-5-1C6860.98,2150.83,6852.77,2114.84,6857,2097Zm132,0c1.33,0.67,2.67,1.33,4,2v30q14.505-15,29-30c1.33,0.67,2.67,1.33,4,2-8.13,10.54-25.34,19.07-29,33,12.97,10.18,24.18,25.85,32,41-0.33.67-.67,1.33-1,2-10.07-3.43-23.87-32.52-35-41,0.49,10.9,2.5,36.74-5,40v-2Q6988.5,2135.51,6989,2097Zm1193,27c2,0.33,4,.67,6,1v1c-1.21,9.11-6.54,13.22-11,19l-2-2Q8178.5,2133.505,8182,2124Zm-712,36c35.43-1.36,37.2,50.41-5,48v-2c-3.25-7.94-2.43-75.89-1-79h3C7470.14,2134.05,7469.98,2149.33,7470,2160Zm119,0c35.43-1.36,37.2,50.41-5,48v-3q-1.005-38.49-2-77c0.67-.33,1.33-0.67,2-1,1.33,0.67,2.67,1.33,4,2Q7588.5,2144.5,7589,2160Zm371-23c0.21,15.24-.32,60.11-6,71-4.53-.86-2.98.12-5-3-4.58-14.37,5.54-48.21,3-69q-12-1.005-24-2c-0.33-1-.67-2-1-3,1.6-2.7.34-1.38,3-3q30,1.995,60,4v4c-0.33.67-.67,1.33-1,2Q7974.5,2137.505,7960,2137Zm203-9c1.67,0.67,3.33,1.33,5,2q0.495,26.49,1,53v-2c11.73-14.18,15.43-35.62,25-52,6.84,2.75,4.43,63.38,4,79-10.49-4.4-1-50.04-6-63v2c-12.37,16.75-21.19,39.56-25,61C8162.64,2206.27,8160,2134.43,8163,2128Zm126,0c3.83,1.32,2.08,0,4,3q1.005,25.995,2,52v-2q13.005-25.995,26-52c3.02,1.26,1.2-.02,3,2,1.98,4.81.73,73.28-2,77l-3-3c2.75-10.39,4.26-48.2-1-60v2c-12.4,16.35-21.38,39.8-25,61C8288.59,2206.25,8286.07,2134.42,8289,2128Zm-850,66c-1,2.67-2,5.33-3,8-30.71,13.12-54.35-.31-60-30-5.58-29.37,30.89-53.01,55-38v3l-2,2c-51.55-7.43-62.37,44.98-31,59C7414.87,2203.52,7425.15,2196.19,7439,2194Zm98-65q6.495,1.995,13,4c4.85,8.07,9.78,14.41,7,28a33.267,33.267,0,0,1-15,12q-0.495,17.505-1,35h-3l-1-1v-78Zm125,24q9.495,1.005,19,2c-0.33,1.67-.67,3.33-1,5q-9.495-1.005-19-2,1.005,22.5,2,45c9.84-.21,16.49-1.21,24,1v3c-0.67.33-1.33,0.67-2,1q-13.995-.495-28-1-1.005-39-2-78,16.995,1.005,34,2v1c-0.67,1.33-1.33,2.67-2,4h-1c-6.31-1.58-16.71-3.09-24-1v18Zm166,56q-1.005-20.505-2-41h-15c-0.67.33-1.33,0.67-2,1q-2.505,19.5-5,39h-1c-3.83-1.32-2.08,0-4-3-4.05-12.37,13.41-66.05,19-76,2,0.67,4,1.33,6,2,4.63,20.17,14.77,54.94,9,78h-5Zm53-80c11.09-.41,16.84,1.18,23,5v3l-2,2c-51.57-7.71-62.43,44.8-31,59,15.57,7.42,30.4-4.42,41-3v1l-3,6C7848.2,2227.39,7828.72,2153.55,7881,2129Zm129,0q6.495,1.995,13,4c4.85,8.07,9.78,14.41,7,28a33.267,33.267,0,0,1-15,12q-0.495,17.505-1,35h-3l-1-1v-78Zm84,0c65.81-2.4,51.71,93.66-15,79-27.55-6.05-40.18-41.67-18-64C8069.99,2134.95,8080.79,2134.52,8094,2129Zm134,0c1.67,0.33,3.33.67,5,1v31q14.505-15,29-30c1.33,0.67,2.67,1.33,4,2-8.13,10.54-25.34,19.07-29,33,12.87,10.57,24.07,25.65,32,41-0.33.67-.67,1.33-1,2-10.07-3.43-23.87-32.52-35-41,0.49,10.9,2.5,36.74-5,40v-79Zm-727,1c4.66,3.59,7.74,67.84,6,77-4.53-.86-2.98.12-5-3C7499.67,2195.94,7498.76,2135.02,7501,2130Zm119,0c4.62,3.56,7.73,67.93,6,77-4.53-.86-2.98.12-5-3C7618.07,2193.95,7618.19,2134.74,7620,2130Zm136,0c3.33,0.33,6.67.67,10,1q5.505,4.995,11,10c0.5,13.32-1.89,17.21-7,24,33.71,31.55-10.85,52.32-20,43,0.33-1,.67-2,1-3,12.11-.78,22.62-6.41,26-16v-9c-3.02-6.74-7.63-8.53-15-11v-5c17.94-7.1,10.74-25.26-7-28C7755.33,2134,7755.67,2132,7756,2130Zm341,3c-24.03,12.83-59.59,21.03-34,62,22.73,8.27,53.85,10.75,67-11C8145.87,2157.76,8118.54,2134.04,8097,2133Zm-1290,38c10.03,0.12,15.96-3.16,19-10,6.7-10.72-2.69-23.34-11-26h-10Q6806.005,2153,6807,2171Zm735-35q-0.495,16.005-1,32c8.78-1.76,13.3-8,13-19-0.67-2-1.33-4-2-6C7548.29,2140.05,7547.42,2137.59,7542,2136Zm473,0q-0.495,16.005-1,32c8.46-1.73,13.06-7.61,13-18C8024.69,2142.99,8022.24,2138.08,8015,2136Zm-196,3q-4.005,12.495-8,25h5c3-.33,6-0.67,9-1C7824.23,2155.79,7822.92,2143.65,7819,2139Zm-349,64q6.495-1.005,13-2c8.01-9.62,11.98-27.44-3-34-2.67-.67-5.33-1.33-8-2C7466.09,2172.22,7469.34,2192.33,7470,2203Zm119,0q6.495-1.005,13-2c8.01-9.62,11.98-27.44-3-34-2.67-.67-5.33-1.33-8-2C7585.09,2172.22,7588.34,2192.33,7589,2203ZM6004,2376c0.17-18.56.69-79.62,8-93q6,0.495,12,1c0.33,1,.67,2,1,3q-0.495,24.495-1,49c-0.26,35.05,1,120.73-13,143h-1q-6-.495-12-1c-6.46-18.08,5.63-59.23,6-85-19.01-.51-50.74-0.27-64-8-3.86-19.28,7.82-89.5,16-103q6,0.495,12,1c0.33,1,.67,2,1,3,7.47,18.94-15.91,60.74-11,86Q5981,2374,6004,2376Zm-136-93c6.52-.08,9.25.92,13,3,0.6,45.01-4.98,89.6-12,132-3.38,20.42,1.47,46.97-7,61h-1q-6-.495-12-1c-0.33-1-.67-2-1-3-4.46-11.16,1.1-35.14,3-47q5.505-56.49,11-113-19.5,19.005-39,38c-3-.33-6-0.67-9-1-0.33-1-.67-2-1-3-0.33-2.33-.67-4.67-1-7C5822.87,2320.93,5849.6,2297.24,5868,2283Zm2389,102c35.67-.25,72.66-3.25,100,3,1.33,1.67,2.67,3.33,4,5,0.36,21.65-9.72,35.31-15,52-13.51,42.72-28.12,102.91-52,136-2.67-.33-5.33-0.67-8-1-12.17-6.75,2.39-32.24,6-41q14.505-34.995,29-70,10.005-32.49,20-65-42-1.005-84-2c-1.33-1.67-2.67-3.33-4-5-1.64-5.01-.09-7.46,2-11C8255.67,2385.67,8256.33,2385.33,8257,2385Zm-5022,38c1.67,0.33,3.33.67,5,1,0.91,7.74-2.68,22.57,4,27,2.74,2.35,6.9,2.8,11,4,9.14-5.65,6.76-17.57,10-29,1.67,0.33,3.33.67,5,1,0.31,12.7-1.14,71.05-6,76-1,.33-2,0.67-3,1l-1-1q1.005-22.995,2-46c-6.11,3.82-16.87,4.25-22-1C3232.46,2451.21,3230.98,2432.96,3235,2423Zm131,1c1.67,0.67,3.33,1.33,5,2q0.495,26.49,1,53v-2q13.005-25.995,26-52c3.02,1.26,1.2-.02,3,2,1.96,4.79.73,73.27-2,77-1-.67-2-1.33-3-2,2.18-15.22,4.73-47.8-1-61v2c-12.37,16.44-21.37,39.76-25,61C3365.64,2502.27,3362.96,2430.51,3366,2424Zm-385,66c-1,2.67-2,5.33-3,8-31.09,13.28-54.8-.53-60-31-4.86-28.46,31.15-51.84,55-37v3l-2,2c-51.61-7.45-62.53,44.92-31,59C2955.57,2501.29,2968.3,2492.06,2981,2490Zm31-41q9.495,1.005,19,2c-0.64,3.63-.4,3.03-2,5q-9-1.005-18-2,1.005,22.5,2,45c9.84-.21,16.49-1.21,24,1v3c-0.67.33-1.33,0.67-2,1q-13.995-.495-28-1-1.005-39-2-78,16.995,1.005,34,2v1c-0.67,1.33-1.33,2.67-2,4h-1c-6.31-1.58-16.71-3.09-24-1v18Zm51-24q6.495,1.995,13,4c4.85,8.07,9.78,14.41,7,28q-7.5,6.495-15,13-0.495,16.995-1,34h-3l-1-1v-78Zm66,0c4.53,0.86,2.98-.12,5,3,11.87,20.51,22.58,51.1,27,76-8.01,3.76-50.96,1.18-62-1C3101.92,2475.91,3118.77,2448.63,3129,2425Zm60,74c9.84-.21,16.49-1.21,24,1v3l-1,1q-14.505-.495-29-1-1.005-39-2-78,16.995,1.005,34,2v1c-0.67,1.33-1.33,2.67-2,4h-1c-6.31-1.58-16.71-3.09-24-1v18q9.495,1.005,19,2c-0.33,1.67-.67,3.33-1,5q-9.495-1.005-19-2Q3188.005,2476.5,3189,2499Zm110-74c1.67,0.33,3.33.67,5,1,0.48,7.9-.97,18.67,2,25q12,2.505,24,5v-31h4l2,2c-0.2,21.14,3.14,58.98,0,77-1.33-.33-2.67-0.67-4-1q-0.495-19.995-1-40a70.512,70.512,0,0,0-25-7l-1,1,3,48c-1.67-.33-3.33-0.67-5-1C3302.97,2478.78,3294.61,2443.02,3299,2425Zm133,0c1.33,0.67,2.67,1.33,4,2v30q14.505-15,29-30c1.33,0.67,2.67,1.33,4,2-8.13,10.54-25.34,19.07-29,33,12.83,10.53,24.1,25.7,32,41-0.33.67-.67,1.33-1,2-10.07-3.43-23.87-32.52-35-41,0.49,10.9,2.5,36.74-5,40v-2Q3431.5,2463.51,3432,2425Zm-364,7q-0.495,16.005-1,32c6.22-1.32,9.72-4.85,12-10,1.55-5.29.3-10.32-1-15C3074.34,2436.17,3073.15,2433.61,3068,2432Zm63,4c-6.61,21.19-20.71,38.2-26,62q24.99,1.995,50,4C3152.3,2481.8,3143.24,2448.5,3131,2436Zm1837,133c0.21,15.24-.32,60.11-6,71-4.53-.86-2.98.12-5-3-4.82-15.9,6.79-47.17,3-69q-12-1.005-24-2c-0.33-1-.67-2-1-3,1.56-2.81,1.47-2.34,4-4,18.07,4.42,43.65-1.18,59,6-0.33,1.67-.67,3.33-1,5Q4982.5,2569.505,4968,2569Zm-87-9h3q10.5,13.995,21,28c0.67-.33,1.33-0.67,2-1q5.505-13.005,11-26h5v2c0.76,2.67-31.32,72.98-36,77-0.67-.33-1.33-0.67-2-1-0.33-1-.67-2-1-3,4.53-10.6,19.51-30.55,17-42-4.79-11.96-14.79-18.52-21-29C4880.33,2563.33,4880.67,2561.67,4881,2560Zm303,0c5.3-.08,8.02.53,11,2v3l-1,1q-9,.495-18,1,0.495,15,1,30c11.09-.33,16.66,2.04,23,6,2.64,7.9,7.02,18.8,3,28-1.67,2-3.33,4-5,6-5.12,3.63-16.49,3.66-24,2q-1.995-38.49-4-77Q5177.005,2561,5184,2560Zm-166,1c15.55,1.28,24.06,14.44,20,32-4.28,5.67-10,8.18-15,13q-0.495,16.995-1,34h-3l-1-1v-78Zm84,0c65.68-2.39,51.77,93.67-15,79-27.54-6.05-40.16-41.68-18-64C5078.01,2566.92,5089.04,2566.83,5102,2561Zm137,0c2,0.67,4,1.33,6,2,3.21,13.48,15.26,67.71,7,79h-1c-0.67-.33-1.33-0.67-2-1q-1.005-20.505-2-41-8.505.495-17,1-2.505,19.5-5,39h-1c-3.83-1.32-2.08,0-4-3C5216.2,2624.11,5233.18,2571.38,5239,2561Zm-135,4q-10.5,3.495-21,7c-17.2,10.29-24.51,34.93-12,55,22.83,8.31,53.81,10.84,67-11C5154.04,2589.43,5126.29,2565.52,5104,2565Zm-81,3q-0.495,16.005-1,32c6.22-1.32,9.72-4.85,12-10,1.55-5.29.3-10.32-1-15C5029.29,2572.05,5028.42,2569.59,5023,2568Zm217,3q-4.005,12.495-8,25h5c3-.33,6-0.67,9-1C5245.23,2587.79,5243.92,2575.65,5240,2571Zm-62,31q0.495,16.5,1,33c21.49,0.79,24.88-14.74,14-30ZM607,2775c3.333,0.33,6.667.67,10,1,1.333,0.67,2.667,1.33,4,2,0.612,45.19-5.012,89.52-12,132-3.327,20.22,1.416,47.03-7,61h-1q-6-.495-12-1c-3.73-10.33-.757-25.68,1-37l12-126c-12.393,9.85-28.1,40.31-48,37q-0.5-1.5-1-3l-1-7C563.519,2811.59,589.419,2792.33,607,2775Zm1120,266c0.21,15.24-.32,60.11-6,71-4.53-.86-2.98.12-5-3-4.82-15.9,6.79-47.17,3-69q-12-1.005-24-2c-0.33-1-.67-2-1-3,1.56-2.81,1.47-2.34,4-4q29.49,2.505,59,5v4c-0.33.67-.67,1.33-1,2Q1741.5,3041.505,1727,3041Zm52-9c22.88,7.19,22.84,22.06,13,41,9.81,2.32,13.61,10.12,13,23-4.81,10.38-12.87,17.06-26,16C1776.04,3101.33,1775.51,3038.31,1779,3032Zm263,0c1.67,0.67,3.33,1.33,5,2q0.495,26.49,1,53v-2q13.005-25.995,26-52c3.02,1.26,1.2-.02,3,2,1.98,4.81.73,73.28-2,77-1-.67-2-1.33-3-2,2.35-11.27,4.56-48.5-1-61v2c-12.39,16.77-21.18,39.5-25,61C2041.64,3110.27,2039,3038.43,2042,3032Zm-394,1c11.09-.41,16.84,1.18,23,5v3l-2,2c-51.41-7.53-62.45,44.81-31,59,15.57,7.42,30.4-4.42,41-3v1l-3,6C1615.23,3131.38,1595.68,3057.57,1648,3033Zm220,0c65.69-2.38,51.8,93.67-15,79-28.06-6.16-40.58-44.15-17-65C1845.2,3038.86,1855.46,3038.64,1868,3033Zm68,0c15.55,1.28,24.06,14.44,20,32a33.267,33.267,0,0,1-15,12q-0.495,17.505-1,35h-3l-1-1v-78Zm45,0c1.67,0.33,3.33.67,5,1v31q14.505-15,29-30c1.33,0.67,2.67,1.33,4,2-8.13,10.54-25.34,19.07-29,33,13.16,10.36,22.83,25.7,32,40-0.33,1-.67,2-1,3-10.07-3.43-23.87-32.52-35-41,0.49,10.9,2.5,36.74-5,40v-79Zm-110,4c-24.15,12.89-59.47,20.91-34,62,22.71,8.25,53.87,10.74,67-11C1919.89,3061.69,1892.56,3038.03,1871,3037Zm-88,3q-0.495,16.005-1,32c8.78-1.76,13.3-8,13-19-2.22-5.57-4.65-9.63-9-13h-3Zm158,0q-0.495,16.005-1,32c6.22-1.32,9.72-4.85,12-10,2.91-9.69-2.08-15.36-6-21C1944.33,3040.67,1942.67,3040.33,1941,3040Zm-717,17c0.22,15.46-.26,60-6,71-4.53-.86-2.98.12-5-3-5.29-16.16,5.4-48.55,3-69q-12-1.005-24-2c-0.33-1-.67-2-1-3,1.6-2.7.34-1.38,3-3q30,1.995,60,4v4c-0.33.67-.67,1.33-1,2Q1238.495,3057.505,1224,3057Zm-581,65c-0.31-20.57-7.958-58.56-1-74,1.667,0.33,3.333.67,5,1q1,36.495,2,73h21q0.5-36.495,1-73c1.667,0.33,3.333.67,5,1v72c5.661,0.21,6.714,1.08,10,3q-3.5,8.505-7,17h-3c-0.333-.33-0.667-0.67-1-1l3-12c-10.425-.06-52.638-0.59-56-4v-77h3c0.333,0.67.667,1.33,1,2q1,36.495,2,73Q635.5,3122.505,643,3122Zm340-72c0.287,16.11,3.918,71.77-2,78-6.549-8.23-2.268-54.06-2-70-7.7,5.67-16.72,15.11-20,25h-4c-4.711-8.36-8.486-18.35-16-24q-1,34.995-2,70h-1c-1.333-.67-2.667-1.33-4-2-0.143-16.98-1.5-67.04,4-79h3q9,13.995,18,28h1q10-13.005,20-26h5Zm-587-1q13.5,1.005,27,2,1,39,2,78c-1,.33-2,0.67-3,1h-1v-2q-1.5-36.495-3-73c-7.589-.27-16.282-0.27-21,2,0.387,19.15,5.064,59.68-4,71-1-.67-2-1.33-3-2C390.026,3113.19,390.141,3054.63,396,3049Zm71,0c4.526,0.86,2.975-.12,5,3q12,37.5,24,75c-0.333.67-.667,1.33-1,2-1.666-.33-3.334-0.67-5-1q-10-34.5-20-69c-0.667.33-1.333,0.67-2,1-2.364,10.5-16.7,65.62-23,68v-6Q456,3085.505,467,3049Zm86,0c65.68-2.39,51.774,93.67-15,79-27.667-6.08-40.018-41.54-18-64C528.942,3054.88,540.075,3054.81,553,3049Zm164,0c2,0.67,4,1.33,6,2,2.782,11.57,15.293,70.16,7,79-1-.33-2-0.67-3-1q-1-20.505-2-41H710c-0.667.33-1.333,0.67-2,1q-2.5,19.5-5,39h-1c-3.827-1.32-2.08,0-4-3C693.934,3112.57,711.4,3058.97,717,3049Zm56,0c4.526,0.86,2.975-.12,5,3,11.83,20.43,22.78,51.03,27,76-7.824,3.67-51.2,1.12-62-1C745.826,3100.64,762.268,3071.64,773,3049Zm61,32c25.642-1.47,38.973,30.42,20,41-3.365,3.83-17.457,10.03-22,3-3.536-8.73-7.5-72.62-6-76h1c3.023,1.26,1.2-.02,3,2Q832,3066,834,3081Zm216-32c65.81-2.4,51.77,93.67-15,79-27.69-6.08-40.19-41.66-18-64C1025.99,3054.95,1036.79,3054.52,1050,3049Zm126,65c-1,2.67-2,5.33-3,8-30.69,13.11-54.39-.29-60-30-5.52-29.22,30.87-53.02,55-38v3l-2,2c-51.55-7.43-62.37,44.98-31,59C1150.57,3125.29,1163.3,3116.06,1176,3114Zm-620-61c-24.041,12.83-59.665,20.92-34,62,22.746,8.27,53.843,10.77,67-11C604.906,3077.68,577.544,3054.04,556,3053Zm497,0c-24.14,12.89-59.47,20.92-34,62,22.76,8.27,53.87,10.72,67-11C1101.89,3077.72,1074.47,3054.06,1053,3053Zm-335,6q-4,12-8,24h14C723.241,3075.95,721.861,3063.6,718,3059Zm57,2c-9.05,19.11-21.343,37.96-26,61h2q24,1.995,48,4C796.582,3107.62,787.308,3071,775,3061Zm1012,15c-1.33.33-2.67,0.67-4,1v30q7.995-4.005,16-8c1.5-6.27,1.49-9.51,0-16Q1793,3079.505,1787,3076Zm-951,47c11.171,0.09,16.944-4.05,20-12a19.146,19.146,0,0,0-12-24H834Q835,3105,836,3123Zm3133,294c6.52-.08,9.25.92,13,3,0.61,45.11-5,89.47-12,132-3.34,20.3,1.43,47.01-7,61h-1q-6-.495-12-1c-0.33-1-.67-2-1-3-4.46-11.16,1.1-35.14,3-47q5.505-56.49,11-113-19.5,19.005-39,38c-3-.33-6-0.67-9-1-0.33-1-.67-2-1-3-0.33-2.33-.67-4.67-1-7C3923.8,3454.93,3950.63,3431.21,3969,3417Zm151,0c3.33,0.33,6.67.67,10,1,1.33,0.67,2.67,1.33,4,2,0.6,45.13-4.96,89.49-12,132-3.43,20.7,1.13,46.43-7,61q-6.495-.495-13-1c-0.33-1-.67-2-1-3-4.46-11.16,1.1-35.14,3-47q5.505-56.49,11-113l-38,38c-3.33-.33-6.67-0.67-10-1-0.33-1-.67-2-1-3-0.33-2.33-.67-4.67-1-7C4076.46,3453.69,4102.38,3434.13,4120,3417Zm3175,103c35.31-1.35,37.24,50.41-5,48v-3q-1.005-38.49-2-77c0.67-.33,1.33-0.67,2-1,1.33,0.67,2.67,1.33,4,2Q7294.5,3504.5,7295,3520Zm-236-32c22.66,7.77,23.01,21.63,13,41,9.71,2.89,13.59,9.7,13,23-5.27,10.78-10.47,13.25-23,17-1-.33-2-0.67-3-1C7056.04,3557.33,7055.51,3494.31,7059,3488Zm-37,1c2,0.67,4,1.33,6,2,2.78,11.57,15.29,70.16,7,79-1-.33-2-0.67-3-1q-1.005-20.505-2-41h-15c-0.67.33-1.33,0.67-2,1q-2.505,19.5-5,39h-1c-3.83-1.32-2.08,0-4-3C6998.98,3552.7,7016.43,3498.92,7022,3489Zm125,0c65.72-2.39,51.75,93.66-15,79-27.54-6.05-40.16-41.68-18-64C7123.01,3494.92,7134.04,3494.83,7147,3489Zm90,0c4.53,0.86,2.98-.12,5,3,11.89,20.54,22.57,51.04,27,76-7.74,3.63-51.16,1.13-62-1C7210.11,3538.53,7228.34,3514.67,7237,3489Zm-277,1c3.33,0.33,6.67.67,10,1,3.8,2.65,7.87,5.6,10,10,3.49,11.25-1.45,18.09-6,24,7.02,6.72,19.52,13.86,12,29-2.91,7.42-23.11,23.21-32,14,0.33-1,.67-2,1-3,12.11-.78,22.62-6.41,26-16v-9c-3.02-6.74-7.63-8.53-15-11v-5c17.94-7.1,10.74-25.26-7-28C6959.33,3494,6959.67,3492,6960,3490Zm366,0c4.5,3.47,7.7,68.07,6,77-1.67-.33-3.33-0.67-5-1-0.33-1-.67-2-1-3C7331.81,3540.25,7318.22,3507.96,7326,3490Zm-177,3q-10.5,3.495-21,7c-17.2,10.29-24.51,34.93-12,55,22.8,8.29,53.83,10.79,67-11C7199.05,3517.45,7171.28,3493.51,7149,3493Zm-86,3q-0.495,16.005-1,32c8.78-1.76,13.3-8,13-19-2.22-5.57-4.65-9.63-9-13h-3Zm-40,3q-4.005,12-8,24h14C7028.24,3515.95,7026.86,3503.6,7023,3499Zm216,1c-6.62,21.18-21.1,38.08-26,62q24.99,1.995,50,4C7260.23,3545.35,7251.16,3513.13,7239,3500Zm56,63q6.495-1.005,13-2c4.51-5.74,7.85-7.24,8-18-2.34-7.32-4.34-12.95-11-16-2.67-.67-5.33-1.33-8-2C7291.09,3532.22,7294.34,3552.33,7295,3563Zm-228-31c-1.33.33-2.67,0.67-4,1v29h3q6.495-3.495,13-7c1.5-6.27,1.49-9.51,0-16Q7073,3535.505,7067,3532ZM5541,3645c3.33,0.33,6.67.67,10,1,1.33,0.67,2.67,1.33,4,2,0.61,45.14-4.96,89.5-12,132-3.38,20.42,1.47,46.97-7,61h-1q-6-.495-12-1c-0.33-1-.67-2-1-3-4.46-11.16,1.1-35.14,3-47q5.505-56.49,11-113l-38,38c-3.33-.33-6.67-0.67-10-1-0.33-1-.67-2-1-3-0.33-2.67-.67-5.33-1-8C5499.89,3681.32,5522.86,3662.93,5541,3645Zm126,0c31.95-.66,55.95,24.33,47,62-8.44,35.53-65.67,82.69-63,119h1c12.03-2.46,65.62-8.28,70-2,2.27,5.06.1,8.79-2,12-21.34,3.77-88.17,13.86-103,4v-1c10.06-32.52,39.76-74.41,58-103,7.63-11.96,19.55-20.79,21-39-6.58-10.92-10.3-25.39-22-31-28.19-8.03-33.91,18.86-43,34-6.63.11-8.46-.78-12-3-0.33-.67-0.67-1.33-1-2C5617.27,3656.29,5639.86,3655.84,5667,3645Zm1886,23c6.9-.18,9.33.7,13,3v6c-11.98,23.63-31.54,42.44-44,67,107.35-24.05,87.12,135.44,2,115-35.8-8.6-41.85-45.95-33-91C7496.96,3737.69,7532.94,3686.68,7553,3668Zm-16,90c-12.13,6.72-26.6,10.92-31,25-9.26,29.66,8.32,63.85,40,57C7585.03,3831.57,7595.48,3758.7,7537,3758Zm-4551,97c1.67,0.33,3.33.67,5,1,1.24,8.05-.11,19.25,2,27q6.495,1.995,13,4c9.14-5.65,6.76-17.57,10-29,1.67,0.33,3.33.67,5,1q-2.505,38.49-5,77h-4l-1-1q0.495-22.5,1-45c-8.28,3.65-16.32.77-23-2C2985.02,3880.13,2981.6,3865.46,2986,3855Zm-161,2q13.5,1.005,27,2,1.005,39,2,78c-1,.33-2,0.67-3,1-0.67-.33-1.33-0.67-2-1,0.27-23.67,4.05-51.38-2-74q-10.5.495-21,1c0.33,16.81,2.37,64.03-4,72-1-.67-2-1.33-3-2C2819.15,3921.2,2819.08,3862.69,2825,3857Zm95,0c65.77-2.4,51.86,93.69-15,79-28.98-6.37-40.27-45.43-17-65C2897.41,3863.08,2907.13,3862.37,2920,3857Zm130,0c1.33,0.67,2.67,1.33,4,2v30q14.505-15,29-30c1.33,0.67,2.67,1.33,4,2-8.13,10.54-25.34,19.07-29,33,12.83,10.53,24.1,25.7,32,41-0.33.67-.67,1.33-1,2-10.07-3.43-23.87-32.52-35-41,0.49,10.9,2.5,36.74-5,40v-2Q3049.5,3895.51,3050,3857Zm69,0c2,0.67,4,1.33,6,2,3.2,13.43,15.3,67.66,7,79h-1c-0.67-.33-1.33-0.67-2-1q-1.005-20.505-2-41h-15c-0.67.33-1.33,0.67-2,1q-2.505,19.5-5,39h-1c-3.83-1.32-2.08,0-4-3C3096.2,3920.11,3113.18,3867.38,3119,3857Zm-196,4c-24.47,13.06-58.92,21.8-34,62,22.56,8.25,53.97,10.68,67-11C2971.85,3885.64,2944.5,3862.14,2923,3861Zm197,6q-4.005,12.495-8,25,7.005-.495,14-1C3125.24,3883.95,3123.86,3871.6,3120,3867Zm1083,21c1.67,0.33,3.33.67,5,1v26c0.67-.33,1.33-0.67,2-1,3.05-6.95,12.28-21.59,20-24,0.33,0.67.67,1.33,1,2q-12,16.005-24,32,12,19.995,24,40c-0.67,1.33-1.33,2.67-2,4-1-.33-2-0.67-3-1q-10.005-17.505-20-35-0.495,19.005-1,38h-1c-1.33-.67-2.67-1.33-4-2q1.005-16.5,2-33c-1.92,1.39-.6.1-2,2q-9,15.495-18,31c-1.67-.33-3.33-0.67-5-1v-1q12.495-21,25-42c-4.35-12.59-18.56-19.67-22-34h4q9,13.005,18,26Q4202.5,3902.005,4203,3888Zm55,25q9.495,1.005,19,2c-0.33,1.67-.67,3.33-1,5-6.5-.84-13.91-3.91-19,0q1.005,21.495,2,43c9.84-.21,16.49-1.21,24,1v3c-0.67.33-1.33,0.67-2,1q-13.995-.495-28-1-1.005-39-2-78,16.995,1.005,34,2v1c-0.67,1.33-1.33,2.67-2,4h-1c-6.31-1.58-16.71-3.09-24-1v18Zm51-24q6.495,1.995,13,4c4.85,8.07,9.78,14.41,7,28a33.267,33.267,0,0,1-15,12q-0.495,17.505-1,35h-3l-1-1v-78Zm58,0c4.53,0.86,2.98-.12,5,3q12,37.995,24,76l-1,1c-1.67-.33-3.33-0.67-5-1q-10.005-34.5-20-69c-0.67.33-1.33,0.67-2,1-2.32,10.57-16.65,65.6-23,68v-6Q4356,3925.505,4367,3889Zm87,0c65.77-2.39,51.72,93.66-15,79-27.56-6.05-40.14-41.66-18-64C4430.03,3894.89,4441,3894.85,4454,3889Zm3,4c-24.04,12.83-59.66,20.92-34,62,22.77,8.28,53.82,10.82,67-11C4505.92,3917.64,4478.49,3894.09,4457,3893Zm-143,3q-0.495,16.005-1,32c8.46-1.73,13.06-7.61,13-18C4323.69,3902.99,4321.24,3898.08,4314,3896Zm1358,240c35.31-1.35,37.24,50.41-5,48q-1.005-39.99-2-80c0.67-.33,1.33-0.67,2-1,1.33,0.67,2.67,1.33,4,2Q5671.5,4120.5,5672,4136Zm-302-31c11.09-.41,16.84,1.18,23,5v3l-2,2c-51.66-7.72-62.4,44.82-31,59,16.17,5.08,30.23-4.45,41-3v1l-3,6C5337.1,4203.43,5317.8,4129.51,5370,4105Zm56,0c1.33,0.67,2.67,1.33,4,2v30q14.505-15,29-30c1.33,0.67,2.67,1.33,4,2-8.13,10.54-25.34,19.07-29,33,12.83,10.53,24.1,25.7,32,41-0.33.67-.67,1.33-1,2-10.07-3.43-23.87-32.52-35-41,0.48,10.67,2.34,36.81-5,40v-2Q5425.5,4143.51,5426,4105Zm72,0h3c8.55,9.26,23.11,63.93,26,79l-2,2h-1c-12.2-14.68-17.58-51.82-23-71-0.67.33-1.33,0.67-2,1-2.31,10.52-16.73,65.63-23,68v-6Q5487,4141.505,5498,4105Zm50,39q-2.505,19.995-5,40h-1c-3.83-1.32-2.08,0-4-3-4.02-12.29,13.43-66.08,19-76,2,0.67,4,1.33,6,2,3.21,13.48,15.26,67.71,7,79h-1c-0.67-.33-1.33-0.67-2-1q-1.005-20.505-2-41h-17Zm65-39c4.53,0.86,2.98-.12,5,3,11.87,20.51,22.58,51.1,27,76-7.74,3.63-51.16,1.13-62-1C5586.11,4154.53,5604.34,4130.67,5613,4105Zm90,1c4.3,3.27,7.67,68.42,6,77-1.67-.33-3.33-0.67-5-1-0.33-1-.67-2-1-3C5708.95,4155.85,5696.08,4124.74,5703,4106Zm-145,9q-4.005,12.495-8,25,7.005-.495,14-1C5563.23,4131.79,5561.92,4119.65,5558,4115Zm57,1c-6.61,21.19-20.71,38.2-26,62q24.99,1.995,50,4C5636.23,4161.29,5627.18,4129.15,5615,4116Zm57,63q6.495-1.005,13-2,3.495-4.995,7-10c4.56-9.86-3.6-21.24-10-24-2.67-.67-5.33-1.33-8-2l-2,2v36ZM3816,4427c0.16-18.37.75-79.73,8-93q6,0.495,12,1c0.33,1,.67,2,1,3q-0.495,24.495-1,49c-0.47,35.13,1.08,120.59-13,143h-1q-6-.495-12-1c-6.47-18.11,5.62-59.12,6-85-18.87-.53-50.78-0.3-64-8-3.31-16.23,8.64-95.06,17-103,3.67,0.33,7.33.67,11,1,0.33,1,.67,2,1,3,7.33,18.76-15.87,60.89-11,86Q3793,4425,3816,4427Zm-1937-93c33.2-.76,58.51,26.67,48,63-11.28,38.97-53.75,76.92-69,118,17.79-1.06,88.27-16.64,76,9-11.22,3.47-92.73,13.87-99,5-5.55-14.81,11.52-31.82,17-41q15.495-27.495,31-55c8.82-14.12,23.59-27.09,27-46,4.7-26.05-22.68-42.75-44-32-15.07,7.6-14.11,18.95-22,34-6.63.11-8.46-.78-12-3-0.33-.67-0.67-1.33-1-2C1830.27,4345.78,1852.33,4344.75,1879,4334Zm4186,586v55c119.43-2.89,78.83,142.72-10,125l-5-5c0.67-3.33,1.33-6.67,2-10q19.005-2.505,38-5c25.14-10.42,44.5-54.29,18-78-15.81-14.14-36.01-4.78-58-8-0.33-1-.67-2-1-3q0.495-42.99,1-86c21.08-5.72,60.52-2.89,81,1,0.33,1,.67,2,1,3,1.8,3.99.54,8.02-1,11C6112.37,4924.57,6087.68,4920.18,6065,4920ZM3248,5132c58.94-1.97,65.43,41.35,37,76,37.24,13.31,33.73,76.35,12,103-7.22,8.86-18.21,11.35-31,15-7.81,2.23-17.56,4.46-25,0v-1c-0.01-6.33.86-7.58,3-11,13.19-2.87,27.82-5,37-12,13.84-10.55,23.19-47.64,10-67-11.91-17.49-23.68-7.41-39-15-0.18-5.76.39-9.73,2-13,22.73-6.88,46.04-39.06,17-56-13.27-7.74-29.77,5.51-43,0-0.21-8.08,1.06-9.83,4-14Q3240,5134.5,3248,5132Z"/>
</svg>
