<svg id="location_polygons" data-name="location polygons" xmlns="http://www.w3.org/2000/svg" width="4535" height="3100" viewBox="0 0 9070 6200">
  <defs>
    <style>
      .cls-1 {
        fill: #811000;
        fill-rule: evenodd;
      }
    </style>
  </defs>
  <path id="area01" class="cls-1" d="M2734,742l12,2,3,9q-3,19-6,38c-44.65,164.2-104.83,297.59-159,444-67.49,182.4-128.16,364.72-157,596-11.59,187.65-5,577-5,577s25.33,196.01,38,294q-113.985,6.495-228,13c-501.63,63.18-799.91,310.19-1117,555-120.411,92.96-261.5,183.41-356,302-271.349-202.9-119.263-70.24-413-419-179.666-246.33-184-482-184-482s364.529-207.03,764-653c331.33-290.28,915.95-930.52,776-774C1984.2,1007.16,2554.95,736.346,2734,742Z"/>
  <path id="area02" class="cls-1" d="M2553,3032c34.96,211.66-92.01,503.33-147,653-77.59,211.2-137.34,465.9-171,709,12.66,104.99,25.33,212.01,38,317-221.53,10.2-597,13.38-862-370,38.53,55.74-239.35-232.73-646-767q95.99-85.995,192-172c290.29-230.04,593.41-498.91,987-620,107.91-33.2,197.46-51.12,358-56C2477.48,2725.56,2482.65,2606.1,2553,3032Z"/>
  <path id="area10" class="cls-1" d="M3836,600c138.77-1.3,63.19,471.02,48,566-39.93,249.69-119.32,485.78-162,746q-17.505,174.975-35,350-46.5,8.505-93,17c-258.7,41.52-603.94,23.79-769-90-59.36-40.92-239.02-164.34-262-227q7.995-84.495,16-169c45.6-410.18,202.42-744.35,485-918l537-221Q3718.5,627,3836,600Z"/>
  <path id="area11" class="cls-1" d="M2569,1990c30.95-.29,266.37,213.68,337,245,182.34,80.84,501.96,84.41,733,45q19.5-1.005,39-2,10.005,194.985,20,390c49.63,373.6,262.53,570.4,589,665,62.02,17.97,143.81,3.3,215,28,28.22,40.42-140.38,424.7-160,433q-142.485-2.505-285-5-196.98-4.005-394-8-271.47-30-543-60-196.98,1.005-394,2-81.495,10.995-163,22l-4-4q-0.495-6.495-1-13c12.62-200.12,180.25-336.34,152-580q-46.5-298.965-93-598c-23.36-108.93-95.44-402.28-55-551Q2565.5,1994.5,2569,1990Z"/>
  <path id="area15" class="cls-1" d="M4049,1634c412.97-5.61,685.37,124.77,987,227,62.33,21.13,144.57,12.34,216,39,19.5,25.92,122.41,361.46,110,395l-4,4c-51.3,9.51-160.82-29.45-246-14-384.22,69.69-453.04,334.85-524,711-18.2,96.48-31.32,294.24-80,358-118.72,24.44-241.9-27.55-320-58-219.82-85.7-407.47-242.1-464-489-25.04-109.37-22.84-239.8-37-363-15.37-133.74,43.75-757.45,89-800,1-1.33,2-2.67,3-4Z"/>
  <path id="area09" class="cls-1" d="M4812,311c120.35-2.116,479.48,61.374,521,123l6,13c20.26,61.952-81.86,233.4-97,312q-4.5,79.992-9,160c-48.09,291.92-74.9,572.61-2,868l15,102c-36.43,26.2-144.69-11.49-177-20-264.88-69.8-501.91-178.17-807-233l-475-3c-23.05-29.95,206.87-746.826,108-970-8.22-18.556-36.43-43.605-27-69q57.99-29.5,116-59,118.98-84.492,238-169C4399.62,308.833,4618.73,356.863,4812,311Z"/>
  <path id="area03" class="cls-1" d="M2800,3725c255.71-1.29,476.92,21.73,689,47q106.485,10.005,213,20-10.995,64.5-22,129c-27.01,191.54-67.94,415.25-44,629,18.4,164.29,31.69,322,65,468q28.995,92.49,58,185-1.005,7.005-2,14-98.985,50.49-198,101c-107.38,64.75-657.3,451.89-756,443-2.33-.67-4.67-1.33-7-2-154.17-206.38-207.15-449.1-284-741-48.96-185.94-112.8-427.17-85-673q33.495-162.99,67-326c10.82-51.75,31.84-240.4,61-261C2614.02,3716.3,2717.61,3744.18,2800,3725Z"/>
  <path id="area04" class="cls-1" d="M3719,3786c348.24,1.01,741.87-10.56,1062,39q74.49,11.505,149,23,3,3.495,6,7c43.39,79.17,44.19,1436.48-4,1499q-161.985-66.99-324-134-108.99-30-218-60c-149.34-31.4-332.7-23.91-471,11q-68.49,20.505-137,41-7.995-1.005-16-2c-154.6-199.43-131.79-915.01-89-1228C3684.54,3926.81,3680.17,3810.26,3719,3786Z"/>
  <path id="area12" class="cls-1" d="M5219,2282c50.61,0.12,138.07,2.83,157,34,72.52,119.42,169.04,278.07,214,410Q5613,2848,5636,2970q78.99,302.475,158,605c42.72,131.54,120.14,242.76,171,357q-0.495,9-1,18c-142.92,102.9-1104.7-116.55-1287-145q-156.48-6.495-313-13l-4-4q-0.495-6.495-1-13c6.63-60.72,90.34-186.4,114-264,82.2-269.57,137.65-868.22,288-1048,78.59-93.98,190.51-144.67,336-173Q5157.99,2286,5219,2282Z"/>
  <path id="area05" class="cls-1" d="M4949,3854l720,121,314-18c60,79.71,89.16,178.44,125,284,37.86,111.5,96.24,237.55,129,363,58.73,224.91,56.18,522.83,28,776q3,123.48,6,247c-74.51,50.82-240.31,2.98-326,6-356.7,12.58-681.35-102.39-923-228l-83-43v-9q18-212.985,36-426-16.995-522.945-34-1046Q4945.005,3867.5,4949,3854Z"/>
  <path id="area14" class="cls-1" d="M5397,791c119.59-1.671,212.54,31.732,309,51,300.52,60.03,630.49,48.111,723,318q24.495,150.48,49,301,29.49,131.985,59,264-22.995,84.99-46,170c-90.64,404.99-188.95,550.5-483,750-26.72,18.13-193.97,122.86-225,111q-34.5-74.49-69-149-91.485-152.49-183-305c-78.56-177.53-93.59-346.38-137-567-44.17-224.44-80.26-458.84-37-712Q5377,907.011,5397,791Z"/>
  <path id="area08" class="cls-1" d="M6218,256l331,51,423,8c285.89,59.3,633.43,371.208,840,538q-0.495,9-1,18c-108.43,85.669-155.81,187.05-325,215,2.16,42.88-12.81,44.63-51,45,0.27,80.61,1.58,268-29,323q-49.995,39-100,78c-171.65,129.78-297.46,190-613,190l-151,6c-34.9-47.1-38.08-137.31-49-205-31.53-195.47-38.52-417.2-163-520-163.52-135.042-577.82-146.807-817-208l-117-14c-40.5-205.525,355.13-430.015,503-473l175-13Q6145.985,275.5,6218,256Z"/>
  <path id="area13" class="cls-1" d="M7386,1472q9,1.005,18,2l4,4q0.495,8.505,1,17-1.5,7.005-3,14c-70.85,92.62,31.38,218.07,21,242-19.94,45.98-62.75,85.77-82,144-52.88,159.93-17.16,372.94-40,569q-4.005,180.48-8,361,18.495,161.49,37,323,27,106.485,54,213c-0.67,1.67-1.33,3.33-2,5l-4,4q-89.49-22.995-179-46-94.485,4.005-189,8c-347.38,52.74-512.2,274.85-744,445-28.91,21.22-112.24,103.62-161,85-53.75-71.35-75.54-174.61-107-267q-64.5-184.98-129-370-29.49-165.48-59-331-12.495-63-25-126,91.485-48,183-96c171.14-99.97,320.02-220.01,409-403,29.37-60.4,144.98-523.68,167-534q164.985-4.005,330-8C7111.93,1693.93,7245.33,1595.22,7386,1472Z"/>
  <path id="area07" class="cls-1" d="M7894,1581q13.005,4.5,26,9-12,27.495-24,55l2,2c20.97,6.5,98.08-51.42,100,11q-7.005,22.5-14,45,25.5-4.005,51-8c6.13,2.39,461.12,546.53,477,580,26.89,56.67,42.06,170.91,29,257-27.86,183.71-124.42,301.35-180,461q-65.49,220.98-131,442l-157,160q-101.49,118.485-203,237c-22.99,4.18-128.18-154.36-148-180q-99.495-98.49-199-197-61.995-37.5-124-75c-101.99-155.41-116.23-753.4-88-1022,25.01-238-19.76-487.47,120-606,14.35-12.17,41.07-42.1,69-32q13.005,28.995,26,58h2l87-39c3.09-22.58,7.9-54.34,39-41q7.5,16.005,15,32,64.5-14.505,129-29C7819.22,1603.58,7822.2,1621.38,7894,1581Z"/>
  <path id="area06" class="cls-1" d="M7155,3326c400.43-5.32,709.7,470.56,837,754q30.495,77.985,61,156c-38.08,100.86-615.55,465.65-742,472-56.67,68.34-376.82,133.93-474,139-27.41,35.64-292.63,87.34-371,60q-26.49-151.98-53-304c-60.66-231.62-137.19-444.91-240-630-12.76-22.97-64.36-67.32-52-101,101.29-73.96,207.21-131.87,304-207,120.53-93.56,230.15-227.41,382-285C6911.42,3340.4,7028.99,3355.87,7155,3326Z"/>
  <path id="steppe1" class="cls-1" d="M-1,6202l2883-3s-108.1-196.92-189-345-186.7-297.68-235-427-180-699-180-699-546.45,11.44-721-211-488.65-513.05-534-595-240.519-328.35-302-372c-91.535-64.99-453.618-363.98-533-722-33.635-151.7-36-159-36-159L1,2754Z"/>
  <path id="steppe2" class="cls-1" d="M3090.8,6200s-116.27-133.6-158.8-181-95.61-162.19-107-189-22-56-22-56,105.05-38.79,161-72,370.44-208.77,393-229c23.81-21.35,270-193.37,411-240,142.24-47.04,275.05-91.72,462-76s260.75,28.18,423,101,359.26,150.23,408,183c50.11,33.69,206.94,99.6,283,122s445.69,82.16,566,87c124.02,4.99,353-1,353-1s32.58,260.74,51,326,55,225,55,225H3090.8Z"/>
  <path id="steppe3" class="cls-1" d="M6603,6201s-40.93-156.3-77-336c-37.83-188.47-70.79-404.84-67-499,7.41-183.94,16.59-309.17,12-366s-4-74-4-74,223.97,14.13,587-106,559.48-246.43,802-388,192.91-267.98,166-326c-27.23-58.71-143-255-143-255s208.15-271.59,294-334,113.46-220.52,159-372,44.89-210.42,117-317c21.32-31.51,97.43-221.3,105-274s21.05-308.16-155-445-274-355-274-355,27.85-41.42,119-59,123.1-13.86,170,17c8,5.26,10.45,27.66,43,29s15.73-11.56,55,13c11.84,7.41,33.99,6.01,25-13s-14-25-14-25,30.13-24.75,38-23,8.9,3.11,20,11,22.31-3.08,14-23c-0.82-1.96,15.5-15.15,18-14s18.73,20.26,28,22,5.39-33.03,3-40,61.29-43.98,71-60c2.73-4.49,5-6,5-6s17.97,16.68,31,6-3.81-20.97-3-26,49.12-32.21,63-96c0.62-2.85,24.05,6.36,29,4s18.92-4.43-14-44c-2.68-3.23,16.32-21,14-81-0.18-4.63,19.41-1.03,25-11s-36.37-36.63-25-50c14.4-16.94,14.24-93.35,14-94s17.73-5.63,19-17-35-49-35-49l-1-28a66.945,66.945,0,0,0,14-8,69.784,69.784,0,0,0,9-8s185.19,61.51,201,72c0.51,0.34,9,3,9,3V6200Z"/>
</svg>
